<?xml version="1.0" encoding="UTF-8"?>
<svg viewBox="0 0 32 32" xmlns="http://www.w3.org/2000/svg" class="sc-eCImPb fTLsEH">
  <path fill="#2559E4" d="M16 2c7.732 0 14 6.268 14 14s-6.268 14-14 14S2 23.732 2 16 8.268 2 16 2zm-.42 18.75c-.213 0-.413.04-.6.12s-.348.187-.485.32-.243.293-.32.48-.115.383-.115.59c0 .213.038.412.115.595s.183.342.32.475a1.56 1.56 0 0 0 1.085.43 1.532 1.532 0 0 0 1.07-.43c.133-.133.24-.292.32-.475s.12-.382.12-.595c0-.207-.04-.403-.12-.59s-.187-.347-.32-.48-.293-.24-.48-.32-.383-.12-.59-.12zM16 9c-.427 0-.823.038-1.19.115s-.707.182-1.02.315c-.313.133-.605.29-.875.47s-.518.37-.745.57l.7 1.11c.108.147.264.22.47.22.1 0 .213-.042.34-.125s.282-.177.465-.28c.183-.103.407-.197.67-.28s.585-.125.965-.125c.26 0 .502.037.725.11s.415.178.575.315c.16.137.285.3.375.49s.135.405.135.645c0 .36-.073.673-.22.94s-.33.505-.55.715c-.22.21-.457.405-.71.585s-.49.365-.71.555c-.22.19-.403.393-.55.61s-.22.472-.22.765l.002.124.008.046.17 1.63h1.69l.23-1.46.028-.125c.049-.164.141-.314.277-.45.17-.17.372-.343.605-.52l.74-.565c.26-.2.502-.437.725-.71s.408-.595.555-.965.22-.808.22-1.315c0-.52-.093-.99-.28-1.41s-.45-.778-.79-1.075c-.34-.297-.748-.525-1.225-.685S16.58 9 16 9z"></path>
</svg>
