<svg xmlns="http://www.w3.org/2000/svg" width="16" height="16" viewBox="0 0 16 16">
    <g fill="none" fill-rule="evenodd">
        <rect width="16" height="16" fill="#F80" rx="3.75"/>
        <path fill="#FFF" d="M5.846 2h4.308c1.337 0 1.822.14 2.311.4.49.262.873.646 1.134 1.135.262.489.401.974.401 2.31v7.976c0 .062-.006.085-.019.108a.127.127 0 0 1-.052.052c-.023.013-.046.019-.108.019H5.846c-1.337 0-1.822-.14-2.311-.4A2.726 2.726 0 0 1 2.4 12.464c-.262-.489-.401-.974-.401-2.31v-4.31c0-1.336.14-1.821.4-2.31A2.726 2.726 0 0 1 3.536 2.4C4.024 2.139 4.509 2 5.845 2z"/>
        <path fill="#0684BD" d="M5.078 3.813h5.84c.7 0 1.266.566 1.266 1.265v2.953c0 .925-.874 1.505-1.511 1.692.285.54.733 1.356 1.343 2.449H9.953L8.592 9.815h-.088a.28.28 0 0 1-.28-.28V7.883h1.898V5.873H5.881v3.604c0 .6.118 1.64 1.025 2.695H4.843c-.758-.555-1.03-1.689-1.03-2.357V5.078c0-.699.566-1.266 1.265-1.266z"/>
    </g>
</svg>
