<?xml version="1.0" encoding="utf-8"?>
<!-- Generator: Adobe Illustrator 16.0.0, SVG Export Plug-In . SVG Version: 6.00 Build 0)  -->
<!DOCTYPE svg PUBLIC "-//W3C//DTD SVG 1.1//EN" "http://www.w3.org/Graphics/SVG/1.1/DTD/svg11.dtd">
<svg version="1.1" id="Layer_1" xmlns="http://www.w3.org/2000/svg" xmlns:xlink="http://www.w3.org/1999/xlink" x="0px" y="0px"
	 width="74px" height="12px" viewBox="0 0 74 12" enable-background="new 0 0 74 12" xml:space="preserve">
<g>
	<g>
		<defs>
			<rect id="SVGID_1_" y="0.539" width="74" height="10.922"/>
		</defs>
		<clipPath id="SVGID_2_">
			<use xlink:href="#SVGID_1_"  overflow="visible"/>
		</clipPath>
		<path clip-path="url(#SVGID_2_)" fill="#00609C" d="M3.391,6.408L2.87,9.453H0l1.523-8.744h4.129c0.635,0,1.177,0.042,1.621,0.114
			C7.712,0.9,8.073,1.02,8.352,1.178c0.278,0.155,0.48,0.352,0.609,0.59C9.085,2,9.147,2.277,9.147,2.604
			c0,0.172-0.021,0.373-0.062,0.6C8.997,3.704,8.801,4.148,8.497,4.546c-0.3,0.392-0.723,0.655-1.254,0.789
			c0.175,0.067,0.34,0.136,0.48,0.202C7.862,5.609,7.986,5.695,8.089,5.8c0.098,0.104,0.176,0.237,0.232,0.388
			c0.057,0.154,0.088,0.355,0.088,0.6c0,0.247-0.031,0.541-0.088,0.872c-0.057,0.31-0.098,0.562-0.134,0.764
			C8.156,8.629,8.141,8.784,8.141,8.898c0,0.195,0.072,0.295,0.217,0.295L8.322,9.456H5.42C5.404,9.379,5.394,9.279,5.394,9.178
			c0-0.14,0.01-0.314,0.031-0.525C5.446,8.436,5.482,8.197,5.528,7.93C5.574,7.66,5.6,7.434,5.6,7.247
			c0-0.31-0.093-0.526-0.284-0.649C5.125,6.473,4.774,6.411,4.263,6.411H3.391V6.408z M3.732,4.488h1.13
			c0.444,0,0.79-0.062,1.043-0.182c0.253-0.123,0.402-0.341,0.449-0.646C6.365,3.62,6.365,3.557,6.365,3.48
			c0-0.254-0.093-0.435-0.279-0.559C5.9,2.809,5.657,2.746,5.358,2.746H4.021L3.732,4.488z"/>
	</g>
	<g>
		<defs>
			<rect id="SVGID_3_" y="0.539" width="74" height="10.922"/>
		</defs>
		<clipPath id="SVGID_4_">
			<use xlink:href="#SVGID_3_"  overflow="visible"/>
		</clipPath>
		<path clip-path="url(#SVGID_4_)" fill="#00609C" d="M13.173,3.089h2.302L15.31,4.085c0.351-0.387,0.712-0.681,1.084-0.877
			c0.361-0.201,0.785-0.3,1.27-0.3c0.712,0,1.239,0.165,1.569,0.496c0.331,0.335,0.496,0.814,0.496,1.449
			c0,0.248-0.021,0.512-0.072,0.785l-0.65,3.813h-2.529l0.578-3.365c0.031-0.146,0.042-0.284,0.042-0.423
			c0-0.217-0.052-0.403-0.155-0.548c-0.103-0.146-0.289-0.218-0.567-0.218c-0.382,0-0.671,0.115-0.847,0.348
			c-0.176,0.23-0.299,0.552-0.361,0.965L14.61,9.452h-2.529L13.173,3.089z"/>
	</g>
	<g>
		<defs>
			<rect id="SVGID_5_" y="0.539" width="74" height="10.922"/>
		</defs>
		<clipPath id="SVGID_6_">
			<use xlink:href="#SVGID_5_"  overflow="visible"/>
		</clipPath>
		<path clip-path="url(#SVGID_6_)" fill="#00609C" d="M22.093,9.629v0.036c0,0.088,0.041,0.17,0.113,0.242
			c0.083,0.104,0.258,0.155,0.516,0.155c0.372,0,0.64-0.094,0.826-0.279s0.32-0.506,0.402-0.96l0.104-0.521
			c-0.217,0.188-0.475,0.353-0.785,0.485c-0.32,0.14-0.702,0.207-1.167,0.207c-0.382,0-0.712-0.062-1.001-0.182
			s-0.526-0.289-0.723-0.496c-0.196-0.211-0.341-0.463-0.434-0.752c-0.103-0.295-0.145-0.604-0.145-0.939
			c0-0.104,0-0.207,0.021-0.311c0.01-0.107,0.021-0.217,0.042-0.33c0.062-0.387,0.175-0.779,0.341-1.166
			c0.165-0.389,0.392-0.733,0.671-1.039c0.279-0.303,0.609-0.551,1.012-0.742c0.392-0.186,0.847-0.283,1.373-0.283
			c0.392,0,0.733,0.094,1.042,0.278c0.299,0.181,0.537,0.429,0.723,0.733l0.134-0.832h2.22L26.49,8.059
			c-0.083,0.476-0.186,0.924-0.311,1.338c-0.123,0.412-0.33,0.773-0.599,1.078c-0.279,0.311-0.65,0.553-1.136,0.724
			c-0.475,0.175-1.104,0.263-1.889,0.263c-0.558,0-1.022-0.046-1.394-0.145c-0.382-0.099-0.692-0.228-0.929-0.387
			c-0.237-0.166-0.403-0.353-0.516-0.562c-0.104-0.207-0.165-0.43-0.165-0.656V9.629H22.093z M23.6,4.55
			c-0.186,0-0.351,0.036-0.485,0.113c-0.134,0.071-0.258,0.171-0.351,0.305c-0.103,0.13-0.175,0.284-0.237,0.46
			C22.465,5.609,22.413,5.799,22.382,6c-0.01,0.062-0.01,0.114-0.01,0.16c-0.011,0.052-0.011,0.099-0.011,0.145
			c0,0.254,0.062,0.475,0.186,0.655c0.124,0.187,0.331,0.279,0.62,0.289h0.051c0.186,0,0.341-0.041,0.485-0.113
			c0.144-0.071,0.258-0.171,0.361-0.288c0.103-0.125,0.186-0.264,0.248-0.424c0.072-0.16,0.114-0.32,0.155-0.496
			c0.021-0.129,0.031-0.263,0.031-0.402c0-0.269-0.062-0.494-0.196-0.687c-0.124-0.19-0.351-0.289-0.681-0.289H23.6z"/>
	</g>
	<g>
		<defs>
			<rect id="SVGID_7_" y="0.539" width="74" height="10.922"/>
		</defs>
		<clipPath id="SVGID_8_">
			<use xlink:href="#SVGID_7_"  overflow="visible"/>
		</clipPath>
		<path clip-path="url(#SVGID_8_)" fill="#F38B00" d="M33.294,4.127c0-0.031,0.011-0.059,0.011-0.083c0-0.021,0.01-0.047,0.01-0.077
			c0-0.388-0.114-0.682-0.332-0.883c-0.217-0.207-0.525-0.311-0.928-0.311c-0.476,0-0.889,0.197-1.229,0.6
			c-0.331,0.402-0.568,1.007-0.712,1.812c-0.031,0.148-0.053,0.299-0.062,0.438c-0.021,0.145-0.021,0.279-0.021,0.408
			c0,0.201,0.011,0.387,0.062,0.553c0.042,0.17,0.114,0.314,0.217,0.443c0.104,0.123,0.238,0.222,0.403,0.299
			c0.175,0.072,0.382,0.107,0.64,0.107c0.444,0,0.795-0.134,1.053-0.401c0.27-0.269,0.466-0.599,0.578-1.001h2.613
			c-0.154,0.537-0.371,1.017-0.66,1.435c-0.289,0.425-0.631,0.785-1.022,1.079s-0.836,0.516-1.321,0.676
			c-0.484,0.155-1.001,0.232-1.548,0.232c-0.589,0-1.125-0.072-1.58-0.227c-0.465-0.156-0.847-0.377-1.167-0.666
			c-0.32-0.295-0.559-0.646-0.723-1.063c-0.166-0.418-0.248-0.888-0.248-1.419c0-0.15,0.01-0.311,0.021-0.477
			c0.021-0.164,0.041-0.334,0.071-0.511c0.114-0.666,0.319-1.265,0.63-1.807c0.311-0.531,0.682-0.991,1.115-1.362
			c0.434-0.377,0.929-0.666,1.466-0.867s1.095-0.305,1.672-0.305c1.198,0,2.097,0.264,2.694,0.795
			c0.589,0.525,0.888,1.27,0.888,2.234v0.176c0,0.052-0.01,0.107-0.01,0.171L33.294,4.127L33.294,4.127z"/>
	</g>
	<g>
		<defs>
			<rect id="SVGID_9_" y="0.539" width="74" height="10.922"/>
		</defs>
		<clipPath id="SVGID_10_">
			<use xlink:href="#SVGID_9_"  overflow="visible"/>
		</clipPath>
		<path clip-path="url(#SVGID_10_)" fill="#F38B00" d="M38.518,6.661c-0.011,0.041-0.021,0.082-0.021,0.118
			c-0.011,0.041-0.011,0.082-0.011,0.123c0,0.311,0.104,0.554,0.31,0.738c0.196,0.182,0.455,0.27,0.754,0.27
			c0.196,0,0.394-0.047,0.578-0.141c0.185-0.093,0.341-0.231,0.465-0.418h2.416c-0.176,0.397-0.413,0.729-0.702,0.996
			c-0.289,0.269-0.599,0.485-0.949,0.65c-0.352,0.165-0.713,0.284-1.104,0.352c-0.382,0.071-0.754,0.104-1.125,0.104
			c-0.454,0-0.878-0.057-1.26-0.17c-0.382-0.114-0.702-0.284-0.979-0.512c-0.279-0.223-0.486-0.5-0.642-0.832
			c-0.154-0.324-0.237-0.7-0.237-1.135c0-0.104,0.012-0.212,0.021-0.32c0.011-0.107,0.031-0.221,0.042-0.334
			c0.093-0.518,0.268-0.991,0.526-1.416c0.258-0.422,0.577-0.783,0.948-1.077c0.382-0.3,0.795-0.527,1.261-0.687
			c0.475-0.166,0.959-0.244,1.465-0.244c0.518,0,0.961,0.072,1.354,0.217c0.393,0.146,0.732,0.347,0.991,0.609
			c0.269,0.258,0.475,0.573,0.608,0.944c0.135,0.372,0.207,0.785,0.207,1.229c0,0.272-0.031,0.588-0.094,0.935H38.518z
			 M41.025,5.376c0.011-0.042,0.011-0.104,0.011-0.187c0-0.258-0.082-0.476-0.269-0.655c-0.176-0.177-0.393-0.263-0.66-0.263
			c-0.383,0-0.691,0.098-0.93,0.293c-0.228,0.201-0.383,0.471-0.443,0.812H41.025z"/>
	</g>
	<g>
		<defs>
			<rect id="SVGID_11_" y="0.539" width="74" height="10.922"/>
		</defs>
		<clipPath id="SVGID_12_">
			<use xlink:href="#SVGID_11_"  overflow="visible"/>
		</clipPath>
		<path clip-path="url(#SVGID_12_)" fill="#F38B00" d="M44.258,3.089h2.303l-0.177,0.996c0.361-0.387,0.724-0.681,1.084-0.877
			c0.372-0.201,0.796-0.3,1.28-0.3c0.713,0,1.229,0.165,1.568,0.496c0.33,0.335,0.496,0.814,0.496,1.449
			c0,0.248-0.03,0.512-0.071,0.785L50.08,9.452h-2.529l0.59-3.365c0.021-0.146,0.029-0.284,0.029-0.423
			c0-0.217-0.041-0.403-0.145-0.548c-0.104-0.146-0.289-0.218-0.567-0.218c-0.382,0-0.671,0.115-0.847,0.348
			c-0.187,0.23-0.301,0.552-0.373,0.965l-0.557,3.241h-2.52L44.258,3.089z"/>
	</g>
	<g>
		<defs>
			<rect id="SVGID_13_" y="0.539" width="74" height="10.922"/>
		</defs>
		<clipPath id="SVGID_14_">
			<use xlink:href="#SVGID_13_"  overflow="visible"/>
		</clipPath>
		<path clip-path="url(#SVGID_14_)" fill="#F38B00" d="M54.757,9.407c-0.289,0.015-0.547,0.024-0.784,0.036
			c-0.238,0.01-0.465,0.01-0.66,0.01c-0.383,0-0.703-0.016-0.961-0.053c-0.259-0.035-0.465-0.103-0.619-0.195
			c-0.154-0.094-0.269-0.217-0.33-0.371c-0.062-0.148-0.094-0.346-0.094-0.583c0-0.146,0.012-0.306,0.021-0.491
			c0.021-0.181,0.052-0.382,0.093-0.599l0.466-2.663H50.99l0.236-1.455h0.939l0.352-1.982h2.488l-0.352,1.982h1.219l-0.248,1.455
			h-1.208l-0.401,2.316c-0.021,0.078-0.031,0.141-0.043,0.201c-0.01,0.062-0.01,0.119-0.01,0.166c0,0.154,0.053,0.264,0.145,0.33
			c0.104,0.062,0.278,0.098,0.547,0.098h0.402L54.757,9.407z"/>
	</g>
	<g>
		<defs>
			<rect id="SVGID_15_" y="0.539" width="74" height="10.922"/>
		</defs>
		<clipPath id="SVGID_16_">
			<use xlink:href="#SVGID_15_"  overflow="visible"/>
		</clipPath>
		<path clip-path="url(#SVGID_16_)" fill="#F38B00" d="M56.389,3.089h2.303L58.463,4.38h0.031C59,3.398,59.732,2.908,60.703,2.908
			c0.052,0,0.113,0.005,0.165,0.011c0.052,0.011,0.104,0.021,0.165,0.024l-0.454,2.529c-0.082-0.021-0.165-0.035-0.248-0.052
			c-0.082-0.017-0.175-0.024-0.258-0.024c-0.517,0-0.929,0.14-1.238,0.412c-0.3,0.278-0.517,0.76-0.63,1.444l-0.382,2.199h-2.529
			L56.389,3.089z"/>
	</g>
	<g>
		<defs>
			<rect id="SVGID_17_" y="0.539" width="74" height="10.922"/>
		</defs>
		<clipPath id="SVGID_18_">
			<use xlink:href="#SVGID_17_"  overflow="visible"/>
		</clipPath>
		<path clip-path="url(#SVGID_18_)" fill="#F38B00" d="M64.409,9.469l-0.011-0.878c-0.412,0.341-0.825,0.568-1.219,0.687
			c-0.402,0.119-0.847,0.177-1.32,0.177c-0.27,0-0.526-0.031-0.764-0.088c-0.248-0.062-0.455-0.154-0.631-0.289
			c-0.186-0.129-0.32-0.289-0.434-0.479c-0.104-0.187-0.155-0.418-0.155-0.687c0-0.114,0.011-0.237,0.042-0.377
			c0.072-0.476,0.258-0.853,0.525-1.12c0.27-0.273,0.589-0.475,0.949-0.614c0.353-0.14,0.733-0.231,1.137-0.284
			c0.402-0.057,0.773-0.103,1.115-0.148c0.351-0.041,0.64-0.104,0.877-0.182c0.237-0.076,0.371-0.217,0.412-0.418
			c0-0.016,0-0.031,0-0.041c0-0.016,0.012-0.025,0.012-0.041c0-0.099-0.031-0.176-0.094-0.231c-0.052-0.058-0.123-0.104-0.195-0.13
			s-0.155-0.047-0.248-0.062c-0.094-0.011-0.165-0.016-0.217-0.016c-0.094,0-0.187,0.005-0.289,0.016
			c-0.104,0.016-0.196,0.041-0.278,0.088c-0.093,0.047-0.176,0.108-0.259,0.187c-0.072,0.083-0.123,0.19-0.165,0.33h-2.427
			c0.062-0.341,0.177-0.646,0.342-0.903c0.176-0.263,0.412-0.49,0.723-0.671s0.691-0.319,1.146-0.418
			c0.453-0.099,1.002-0.146,1.632-0.146c0.577,0,1.042,0.037,1.413,0.113c0.371,0.078,0.66,0.191,0.867,0.336
			c0.217,0.146,0.361,0.32,0.443,0.521c0.072,0.201,0.114,0.429,0.114,0.682c0,0.148-0.011,0.311-0.031,0.471
			c-0.021,0.164-0.041,0.334-0.071,0.51L66.834,8.34c-0.021,0.135-0.029,0.248-0.029,0.342c0,0.088,0.01,0.164,0.041,0.231
			c0.041,0.071,0.092,0.149,0.186,0.237l-0.01,0.32h-2.612V9.469z M63.243,8.02c0.217,0,0.411-0.037,0.577-0.119
			c0.166-0.077,0.311-0.19,0.424-0.336c0.113-0.14,0.195-0.305,0.258-0.496c0.072-0.189,0.114-0.396,0.135-0.613
			c-0.228,0.1-0.453,0.171-0.682,0.212c-0.229,0.047-0.443,0.093-0.65,0.149c-0.195,0.052-0.361,0.123-0.506,0.222
			s-0.229,0.248-0.258,0.448v0.072c0,0.141,0.052,0.254,0.175,0.336C62.83,7.977,63.005,8.02,63.243,8.02"/>
	</g>
	<g>
		<defs>
			<rect id="SVGID_19_" y="0.539" width="74" height="10.922"/>
		</defs>
		<clipPath id="SVGID_20_">
			<use xlink:href="#SVGID_19_"  overflow="visible"/>
		</clipPath>
		<polygon clip-path="url(#SVGID_20_)" fill="#F38B00" points="67.455,9.453 68.973,0.709 71.502,0.709 69.984,9.453 		"/>
	</g>
	<g>
		<defs>
			<rect id="SVGID_21_" y="0.539" width="74" height="10.922"/>
		</defs>
		<clipPath id="SVGID_22_">
			<use xlink:href="#SVGID_21_"  overflow="visible"/>
		</clipPath>
		<polygon clip-path="url(#SVGID_22_)" fill="#00609C" points="8.796,9.453 10.215,4.286 12.048,4.286 11.304,9.453 		"/>
	</g>
	<g>
		<defs>
			<rect id="SVGID_23_" y="0.539" width="74" height="10.922"/>
		</defs>
		<clipPath id="SVGID_24_">
			<use xlink:href="#SVGID_23_"  overflow="visible"/>
		</clipPath>
		<path clip-path="url(#SVGID_24_)" fill="#F38B00" d="M12.966,1.984v-0.01c-0.01-0.011-0.021-0.031-0.041-0.052
			c-0.031-0.052-0.093-0.118-0.186-0.202c-0.175-0.148-0.454-0.33-0.929-0.418c-0.227-0.041-0.423-0.041-0.588-0.025
			c-0.413,0.047-0.661,0.207-0.749,0.279c-0.025,0.021-0.031,0.025-0.031,0.025l0,0c-0.114,0.113-0.305,0.113-0.423,0
			c-0.113-0.119-0.113-0.305,0-0.424c0.031-0.03,0.413-0.397,1.141-0.475c0.228-0.021,0.475-0.017,0.764,0.035
			c1.156,0.201,1.559,0.944,1.58,0.996c0.072,0.145,0.01,0.325-0.134,0.402c-0.031,0.016-0.072,0.025-0.103,0.025
			C13.142,2.16,13.028,2.098,12.966,1.984"/>
	</g>
	<g>
		<defs>
			<rect id="SVGID_25_" y="0.539" width="74" height="10.922"/>
		</defs>
		<clipPath id="SVGID_26_">
			<use xlink:href="#SVGID_25_"  overflow="visible"/>
		</clipPath>
		<path clip-path="url(#SVGID_26_)" fill="#F38B00" d="M12.223,2.666c0,0,0-0.006-0.01-0.031c-0.021-0.021-0.052-0.062-0.103-0.104
			c-0.093-0.082-0.258-0.186-0.517-0.232c-0.134-0.025-0.248-0.025-0.34-0.015c-0.217,0.024-0.361,0.112-0.403,0.149
			c-0.01,0.01-0.01,0.01-0.01,0.01c-0.093,0.099-0.258,0.099-0.351,0c-0.098-0.098-0.098-0.254,0-0.352
			c0.021-0.025,0.258-0.258,0.723-0.305c0.134-0.016,0.289-0.01,0.465,0.021c0.723,0.129,0.98,0.588,0.991,0.629
			c0.062,0.125,0.021,0.273-0.103,0.336c-0.031,0.011-0.062,0.021-0.093,0.025C12.378,2.811,12.275,2.759,12.223,2.666"/>
	</g>
	<g>
		<defs>
			<rect id="SVGID_27_" y="0.539" width="74" height="10.922"/>
		</defs>
		<clipPath id="SVGID_28_">
			<use xlink:href="#SVGID_27_"  overflow="visible"/>
		</clipPath>
		<path clip-path="url(#SVGID_28_)" fill="#F38B00" d="M12.017,3.273c0,0.306-0.289,0.554-0.65,0.549
			c-0.361,0-0.65-0.248-0.64-0.553c0-0.311,0.289-0.559,0.64-0.553C11.728,2.718,12.017,2.971,12.017,3.273"/>
	</g>
	<g>
		<defs>
			<rect id="SVGID_29_" y="0.539" width="74" height="10.922"/>
		</defs>
		<clipPath id="SVGID_30_">
			<use xlink:href="#SVGID_29_"  overflow="visible"/>
		</clipPath>
		<path clip-path="url(#SVGID_30_)" fill="#F38B00" d="M72.441,1.076h0.525c0.124,0,0.217,0.025,0.278,0.076
			c0.062,0.058,0.093,0.13,0.093,0.223c0,0.052-0.01,0.1-0.029,0.135c-0.012,0.036-0.031,0.062-0.053,0.082
			s-0.041,0.036-0.062,0.047c-0.021,0.01-0.029,0.016-0.041,0.021l0,0c0.012,0.005,0.031,0.011,0.053,0.016
			c0.021,0.01,0.041,0.021,0.052,0.041c0.021,0.016,0.031,0.041,0.041,0.067c0.011,0.03,0.021,0.067,0.021,0.112
			c0,0.062,0,0.125,0.012,0.177c0.01,0.052,0.031,0.093,0.052,0.112h-0.207c-0.021-0.021-0.03-0.045-0.03-0.076s0-0.058,0-0.084
			c0-0.051-0.011-0.098-0.011-0.133c-0.011-0.037-0.021-0.067-0.041-0.094c-0.011-0.021-0.03-0.042-0.062-0.052
			c-0.03-0.011-0.062-0.017-0.113-0.017h-0.277v0.455h-0.197V1.076H72.441z M72.639,1.582h0.318c0.062,0,0.104-0.016,0.135-0.047
			c0.03-0.025,0.053-0.072,0.053-0.129c0-0.036-0.012-0.067-0.021-0.088c-0.01-0.021-0.021-0.041-0.041-0.053
			c-0.021-0.016-0.031-0.021-0.062-0.024c-0.021-0.005-0.041-0.005-0.071-0.005h-0.31V1.582z"/>
	</g>
	<g>
		<defs>
			<rect id="SVGID_31_" y="0.539" width="74" height="10.922"/>
		</defs>
		<clipPath id="SVGID_32_">
			<use xlink:href="#SVGID_31_"  overflow="visible"/>
		</clipPath>
		<path clip-path="url(#SVGID_32_)" fill="#F38B00" d="M72.854,2.836c-0.629,0-1.146-0.516-1.146-1.15
			c0-0.629,0.517-1.146,1.146-1.146S74,1.057,74,1.686C74,2.32,73.482,2.836,72.854,2.836 M72.854,0.745
			c-0.517,0-0.938,0.424-0.938,0.938c0,0.521,0.423,0.945,0.938,0.945c0.517,0,0.939-0.424,0.939-0.945
			C73.794,1.169,73.37,0.745,72.854,0.745"/>
	</g>
</g>
</svg>
