<?xml version="1.0" encoding="UTF-8"?>
<svg width="160px" height="22px" viewBox="0 0 278 38" version="1.1" xmlns="http://www.w3.org/2000/svg" xmlns:xlink="http://www.w3.org/1999/xlink">
    <title>entranceLogo </title>
    <defs>
        <polygon id="path-1" points="0 38 278 38 278 0 0 0"></polygon>
    </defs>
    <g id="entranceLogo-" stroke="none" stroke-width="1" fill="none" fill-rule="evenodd">
        <g id="Group-42">
            <path d="M88.3062086,8.85941473 C88.3062086,4.03316482 91.8731685,0.111952075 96.7703124,0.111952075 C99.7932681,0.111952075 101.606943,1.19777529 103.360228,2.82669459 L102.45339,3.73160876 C101.002426,2.16307446 98.8863076,1.25816029 96.7703124,1.25816029 C92.7196157,1.25816029 89.6362698,4.57613792 89.6362698,8.79902972 C89.6362698,13.0823065 92.7196157,16.4004071 96.7703124,16.4004071 C99.1886278,16.4004071 100.881522,15.435108 102.574294,13.8063117 L103.420741,14.6508408 C101.606943,16.4004071 99.7327549,17.6068774 96.7097992,17.6068774 C91.8731685,17.5464924 88.3062086,13.7459266 88.3062086,8.85941473" id="Fill-1" fill="#565A5C"></path>
            <polygon id="Fill-3" fill="#565A5C" points="106.262526 0.415537374 107.532197 0.415537374 107.532197 16.1006343 117.446897 16.1006343 117.446897 17.2469655 106.262526 17.2469655"></polygon>
            <path d="M134.556533,8.85952541 C134.556533,4.63663361 131.533577,1.19788597 127.362346,1.19788597 C123.190992,1.19788597 120.168159,4.57624861 120.168159,8.79914041 C120.168159,12.9617702 123.190992,16.4005178 127.362346,16.4005178 C131.533577,16.4005178 134.556533,13.0221552 134.556533,8.85952541 M118.898119,8.85952541 C118.898119,4.21430754 122.28354,0.112062761 127.421998,0.112062761 C132.561564,0.112062761 135.886102,4.15392253 135.886102,8.79914041 L135.886102,8.85952541 C135.886102,13.4443583 132.500682,17.5466031 127.362346,17.5466031 C122.22278,17.5466031 118.898119,13.5047433 118.898119,8.85952541" id="Fill-5" fill="#565A5C"></path>
            <path d="M139.272765,10.2489339 L139.272765,0.415525076 L140.542805,0.415525076 L140.542805,10.1282869 C140.542805,14.1098847 142.719067,16.4024241 146.285781,16.4024241 C149.73196,16.4024241 151.908223,14.3511787 151.908223,10.2489339 L151.908223,0.415525076 L153.178262,0.415525076 L153.178262,10.1282869 C153.178262,14.9545368 150.3366,17.5485093 146.285781,17.5485093 C142.234838,17.5485093 139.272765,14.9545368 139.272765,10.2489339" id="Fill-7" fill="#565A5C"></path>
            <path d="M162.85161,16.1006958 C167.566722,16.1006958 170.528796,12.9033652 170.528796,8.86138247 L170.528796,8.80112045 C170.528796,4.81952269 167.566722,1.56180708 162.85161,1.56180708 L158.497855,1.56180708 L158.497855,16.1006958 L162.85161,16.1006958 Z M157.229045,0.415598866 L162.85161,0.415598866 C168.17124,0.415598866 171.859595,4.03525555 171.859595,8.80112045 C171.859595,13.5668624 168.17124,17.247027 162.85161,17.247027 L157.229045,17.247027 L157.229045,0.415598866 Z" id="Fill-9" fill="#565A5C"></path>
            <path d="M197.069752,8.85952541 C197.069752,4.63663361 194.046796,1.19788597 189.875565,1.19788597 C185.704211,1.19788597 182.681255,4.57624861 182.681255,8.79914041 C182.681255,12.9617702 185.704211,16.4005178 189.875565,16.4005178 C194.046796,16.4005178 197.069752,13.0221552 197.069752,8.85952541 M181.411338,8.85952541 C181.411338,4.21430754 184.796758,0.112062761 189.936324,0.112062761 C195.074783,0.112062761 198.400551,4.15392253 198.400551,8.79914041 L198.400551,8.85952541 C198.400551,13.4443583 195.013901,17.5466031 189.875565,17.5466031 C184.737106,17.5466031 181.411338,13.5047433 181.411338,8.85952541" id="Fill-11" fill="#565A5C"></path>
            <polygon id="Fill-13" fill="#565A5C" points="202.028048 0.415537374 213.937348 0.415537374 213.937348 1.6221306 203.296858 1.6221306 203.296858 8.4993799 212.849708 8.4993799 212.849708 9.6457111 203.296858 9.6457111 203.296858 17.2469655 202.028048 17.2469655"></polygon>
            <polygon id="Fill-15" fill="#565A5C" points="217.26314 0.415537374 229.173546 0.415537374 229.173546 1.6221306 218.53318 1.6221306 218.53318 8.4993799 228.0848 8.4993799 228.0848 9.6457111 218.53318 9.6457111 218.53318 17.2469655 217.26314 17.2469655"></polygon>
            <mask id="mask-2" fill="white">
                <use xlink:href="#path-1"></use>
            </mask>
            <g id="Clip-18"></g>
            <polygon id="Fill-17" fill="#565A5C" mask="url(#mask-2)" points="232.679525 17.3073751 233.949565 17.3073751 233.949565 0.415561971 232.679525 0.415561971"></polygon>
            <path d="M237.758209,8.85952541 C237.758209,4.03327551 241.326153,0.112062761 246.222436,0.112062761 C249.245391,0.112062761 251.059066,1.19788597 252.813212,2.82680527 L251.90576,3.73171944 C250.454549,2.16318515 248.399805,1.25827098 246.222436,1.25827098 C242.111964,1.25827098 239.089008,4.57624861 239.089008,8.79914041 C239.089008,13.0824172 242.172723,16.4005178 246.222436,16.4005178 C248.640751,16.4005178 250.334015,15.4352187 252.027401,13.8064223 L252.872865,14.6509515 C251.059066,16.4005178 249.185739,17.6069881 246.162783,17.6069881 C241.326153,17.5466031 237.758209,13.7460373 237.758209,8.85952541" id="Fill-19" fill="#565A5C" mask="url(#mask-2)"></path>
            <polygon id="Fill-20" fill="#565A5C" mask="url(#mask-2)" points="255.714527 0.415537374 267.745467 0.415537374 267.745467 1.6221306 256.984566 1.6221306 256.984566 8.25808586 266.657951 8.25808586 266.657951 9.40429407 256.984566 9.40429407 256.984566 16.1610193 267.866986 16.1610193 267.866986 17.2469655 255.714527 17.2469655"></polygon>
            <polygon id="Fill-21" fill="#DA291C" mask="url(#mask-2)" points="70.8937968 12.5052915 76.6685057 12.5052915 77.5899795 14.7733572 69.7879544 14.7733572 68.5592406 17.4093901 65.118965 17.4093901 73.6583414 -6.14918572e-05 76.0541488 -6.14918572e-05 84.5319049 17.4093901 81.1531265 17.4093901 74.825435 3.98448787"></polygon>
            <polygon id="Fill-22" fill="#DA291C" mask="url(#mask-2)" points="5.77470882 12.5052915 11.5494176 12.5052915 12.4710145 14.7733572 4.66886641 14.7733572 3.44027561 17.4093901 0 17.4093901 8.53925334 -6.14918572e-05 10.9350607 -6.14918572e-05 19.4128169 17.4093901 15.9726643 17.4093901 9.70646995 3.98448787"></polygon>
            <polygon id="Fill-23" fill="#DA291C" mask="url(#mask-2)" points="38.2111047 12.5052915 43.9859365 12.5052915 44.9074104 14.7733572 37.1052623 14.7733572 35.8766715 17.4093901 32.4363959 17.4093901 40.9756492 -6.14918572e-05 43.3714566 -6.14918572e-05 51.91071 17.4093901 48.4090602 17.4093901 42.1428658 3.98448787"></polygon>
            <polygon id="Fill-24" fill="#DA291C" mask="url(#mask-2)" points="16.2180996 0 24.7573529 17.4093286 24.8802243 17.4093286 26.9689147 17.4093286 27.1532833 17.4093286 35.6924136 0 32.252261 0 25.9245695 13.7313777 19.6583752 0"></polygon>
            <polygon id="Fill-25" fill="#DA291C" mask="url(#mask-2)" points="56.6413688 23.9685052 68.4365292 -3.68951143e-05 64.9962535 -3.68951143e-05 58.4229423 13.9765703 52.4024907 -3.68951143e-05 48.9622151 -3.68951143e-05 56.702743 17.4094147 53.3239645 23.9685052"></polygon>
            <path d="M186.00995,34.2023859 C186.616312,34.2023859 187.084921,34.0106543 187.414546,33.627437 C187.744171,33.235119 187.908983,32.6824302 187.908983,31.9692476 L187.908983,31.3005851 C187.908983,30.5875256 187.744171,30.0392642 187.414546,29.6559239 C187.084921,29.2636059 186.616312,29.0675698 186.00995,29.0675698 C185.422037,29.0675698 184.958348,29.2591785 184.618884,29.6425187 C184.280649,30.0258589 184.110917,30.5340277 184.110917,31.1669018 L184.110917,32.1029309 C184.110917,32.7359281 184.280649,33.2440968 184.618884,33.627437 C184.958348,34.0106543 185.422037,34.2023859 186.00995,34.2023859 M186.144014,35.1384149 C185.680325,35.1384149 185.287973,35.0403969 184.966958,34.8442379 C184.645942,34.639224 184.369205,34.367307 184.137976,34.0284869 L184.083858,34.0284869 L183.937495,34.9779212 L183.040866,34.9779212 L183.040866,25.0826515 L184.110917,25.0826515 L184.110917,28.2518189 C184.110917,28.4390001 184.102307,28.6039212 184.083858,28.7465823 C184.075248,28.8802656 184.05311,29.0273542 184.017441,29.1878479 L184.070329,29.2146584 C184.294178,28.9026487 184.583215,28.6440139 184.939899,28.4390001 C185.296583,28.2339862 185.715993,28.1314178 186.196901,28.1314178 C187.052942,28.1314178 187.730641,28.4390001 188.229998,29.0541646 C188.729356,29.6603513 188.979034,30.5206224 188.979034,31.6349779 C188.979034,32.1965215 188.912617,32.6958354 188.778553,33.1326735 C188.644489,33.5605339 188.452618,33.9260415 188.20294,34.2290734 C187.953261,34.5232504 187.654385,34.7506473 187.307541,34.911141 C186.959467,35.062657 186.572034,35.1384149 186.144014,35.1384149" id="Fill-26" fill="#222222" mask="url(#mask-2)"></path>
            <path d="M190.584123,38 C190.414391,38 190.266798,37.9911452 190.142573,37.9733125 C190.018349,37.9643347 189.887975,37.9420747 189.755141,37.9064094 L189.755141,37.0238783 C189.915034,37.0595435 190.049097,37.0818036 190.156103,37.0907814 C190.271717,37.108614 190.397172,37.1174689 190.530005,37.1174689 C190.86947,37.1174689 191.144977,37.0060456 191.358988,36.7831991 C191.572998,36.5603526 191.769789,36.2305103 191.948131,35.7936722 L192.255617,35.0448243 L189.661665,28.2919116 L190.771074,28.2919116 L192.469627,32.9186819 C192.532354,33.0791756 192.585241,33.2395464 192.629519,33.4000401 C192.675027,33.5515561 192.710696,33.703195 192.736525,33.8547109 L192.817701,33.8547109 C192.84353,33.703195 192.879198,33.5515561 192.924706,33.4000401 C192.968984,33.2395464 193.021871,33.0791756 193.084599,32.9186819 L194.756092,28.2919116 L195.866731,28.2919116 L192.817701,36.1012544 C192.576632,36.7252738 192.272836,37.1976542 191.907542,37.5186417 C191.550859,37.8396292 191.109309,38 190.584123,38" id="Fill-27" fill="#222222" mask="url(#mask-2)"></path>
            <polygon id="Fill-28" fill="#FF7A00" mask="url(#mask-2)" points="266.213326 34.9766913 267.823323 34.9766913 267.823323 24.7042306 266.213326 24.7042306"></polygon>
            <path d="M261.847063,33.9091927 C261.222251,33.9091927 260.833589,33.6030862 260.833589,33.0928268 C260.833589,32.5091461 261.24931,32.2043925 261.999576,32.2043925 L263.400482,32.2043925 L263.409091,32.3009347 C263.409091,33.310508 262.824868,33.9091927 261.847063,33.9091927 M262.172998,28.1485125 C260.687226,28.1485125 259.534769,28.8695661 259.340438,30.3416811 L260.923375,30.3416811 C261.03407,29.7866556 261.443641,29.4532468 262.172998,29.4532468 C263.019199,29.4532468 263.409091,29.9390324 263.409091,30.7022694 L263.409091,31.0492064 L261.784336,31.0492064 C260.287494,31.0492064 259.181775,31.7159011 259.181775,33.07647 C259.181775,34.4371618 260.083324,35.1445641 261.388294,35.1445641 C262.401767,35.1445641 263.068397,34.7132602 263.428771,34.0193861 L263.498877,34.0193861 L263.498877,34.971772 L265.025237,34.971772 L265.025237,30.7540455 C265.019088,29.126725 264.186416,28.1485125 262.172998,28.1485125" id="Fill-29" fill="#FF7A00" mask="url(#mask-2)"></path>
            <path d="M256.327063,34.9768143 L256.327063,31.520849 C256.327063,30.493689 256.966634,29.8405225 257.978878,29.8405225 L258.613528,29.8405225 L258.613528,28.3139256 L257.960428,28.3139256 C257.196633,28.3139256 256.641929,28.6051511 256.295085,29.2581946 L256.238507,29.2581946 L256.238507,28.3139256 L254.725676,28.3139256 L254.725676,34.9808728 L256.327063,34.9768143 Z" id="Fill-30" fill="#FF7A00" mask="url(#mask-2)"></path>
            <path d="M253.703605,33.5062981 L253.703605,34.9770603 L252.607726,34.9770603 C251.065376,34.9770603 250.219175,34.2627709 250.219175,32.72117 L250.219175,29.6367385 L249.122065,29.6367385 L249.122065,28.3142946 L250.219175,28.3142946 L250.219175,26.5455428 L251.830401,26.5455428 L251.830401,28.3142946 L253.703605,28.3142946 L253.703605,29.6367385 L251.830401,29.6367385 L251.830401,32.5347267 C251.830401,33.1457098 252.190775,33.5062981 252.802057,33.5062981 L253.703605,33.5062981 Z" id="Fill-31" fill="#FF7A00" mask="url(#mask-2)"></path>
            <path d="M243.848054,34.9773063 L243.848054,31.1186922 C243.848054,30.1744233 244.431047,29.5566761 245.374414,29.5566761 C246.275963,29.5566761 246.818368,30.0777581 246.818368,31.0982769 L246.818368,34.9773063 L248.430824,34.9773063 L248.430824,30.841118 C248.430824,29.1607915 247.614142,28.1485125 245.946338,28.1485125 C244.930404,28.1485125 244.15554,28.605643 243.808696,29.2301543 L243.750888,29.2301543 L243.750888,28.3144176 L242.241747,28.3144176 L242.241747,34.9813647 L243.848054,34.9773063 Z" id="Fill-32" fill="#FF7A00" mask="url(#mask-2)"></path>
            <path d="M237.920967,29.4870673 C238.975029,29.4870673 239.599841,30.0842762 239.642889,30.9169989 L236.200276,30.9169989 C236.351559,30.070748 236.865676,29.4870673 237.920967,29.4870673 M237.928347,33.8259327 C236.913644,33.8259327 236.233485,33.1455868 236.206426,32.0762434 L241.13481,32.0762434 L241.128661,31.5551614 C241.128661,29.3210393 239.684707,28.1536779 237.920967,28.1536779 C236.015785,28.1536779 234.623488,29.5142467 234.623488,31.6517036 C234.623488,33.7891606 235.914929,35.1497294 237.920967,35.1497294 C239.599841,35.1497294 240.69695,34.2612951 241.016736,32.9565609 L239.454707,32.9565609 C239.281285,33.4572276 238.856955,33.8259327 237.928347,33.8259327" id="Fill-33" fill="#FF7A00" mask="url(#mask-2)"></path>
            <path d="M229.805799,35.1579693 C232.207879,35.1579693 233.568197,33.8259327 233.887982,31.8476167 L232.255847,31.8476167 C232.013548,32.7497022 231.355528,33.582302 229.805799,33.582302 C228.210562,33.582302 226.93265,32.4938961 226.93265,30.1114556 C226.93265,27.7291381 228.210562,26.6433149 229.805799,26.6433149 C231.402266,26.6433149 232.041836,27.4760376 232.255847,28.3644719 L233.887982,28.3644719 C233.624774,26.3862789 232.284135,25.0991313 229.805799,25.0991313 C227.140511,25.0991313 225.210729,26.9590141 225.210729,30.1332237 C225.210729,33.3075564 227.140511,35.1674391 229.805799,35.1674391 L229.805799,35.1579693 Z" id="Fill-34" fill="#FF7A00" mask="url(#mask-2)"></path>
            <path d="M220.782919,33.5338464 C219.714098,33.5338464 219.033939,32.8685045 219.033939,31.5636473 C219.033939,30.2589131 219.706718,29.5922184 220.782919,29.5922184 C221.824682,29.5922184 222.51837,30.2575603 222.51837,31.5636473 C222.51837,32.8698573 221.830831,33.5338464 220.782919,33.5338464 L220.782919,33.5338464 Z M222.594626,28.3146635 L222.594626,29.2289245 L222.51837,29.2289245 C222.157996,28.590885 221.407731,28.1472827 220.341369,28.1472827 C218.779341,28.1472827 217.371055,29.3826541 217.371055,31.5622945 C217.371055,33.7420578 218.758432,34.9910804 220.341369,34.9910804 C221.368372,34.9910804 221.973505,34.5733048 222.438423,33.8657795 L222.51099,33.8657795 L222.51099,35.2698845 C222.51099,36.0195932 222.095269,36.3665303 221.41511,36.3665303 L218.14838,36.3665303 L218.14838,37.8006434 L221.383132,37.8006434 C223.17393,37.8006434 224.132056,36.8005398 224.132056,35.1623968 L224.132056,28.3146635 L222.594626,28.3146635 Z" id="Fill-35" fill="#0684BC" mask="url(#mask-2)"></path>
            <path d="M211.80679,34.9769373 L211.80679,31.1183233 C211.80679,30.1740543 212.389783,29.5563071 213.33438,29.5563071 C214.237159,29.5563071 214.778334,30.0773891 214.778334,31.097908 L214.778334,34.9769373 L216.38833,34.9769373 L216.38833,30.840749 C216.38833,29.1604225 215.571648,28.1481436 213.902614,28.1481436 C212.88914,28.1481436 212.105666,28.6052741 211.758822,29.2297854 L211.703475,29.2297854 L211.703475,28.3140486 L210.196793,28.3140486 L210.196793,34.9809958 L211.80679,34.9769373 Z" id="Fill-36" fill="#0684BC" mask="url(#mask-2)"></path>
            <polygon id="Fill-37" fill="#0684BC" mask="url(#mask-2)" points="207.226455 34.9765684 208.836451 34.9765684 208.836451 28.3136797 207.226455 28.3136797"></polygon>
            <path d="M202.734725,29.6180449 L200.909488,29.6180449 L200.909488,26.7607643 L202.734725,26.7607643 C203.637504,26.7607643 204.331192,27.1363566 204.331192,28.1908189 C204.331192,29.2452813 203.630124,29.6180449 202.734725,29.6180449 M204.422208,30.3812819 L204.422208,30.3159775 C205.407393,30.0439376 206.074022,29.3826541 206.074022,27.8968879 C206.074022,26.370291 204.935094,25.2587642 202.824511,25.2587642 L199.242915,25.2587642 L199.242915,34.9760764 L200.909488,34.9760764 L200.909488,31.1174624 L202.936436,31.1174624 C203.881032,31.1174624 204.353331,31.5894739 204.353331,32.5337428 L204.353331,34.9828405 L206.018675,34.9828405 L206.018675,32.5337428 C206.018675,31.1595228 205.434451,30.6044973 204.422208,30.3812819" id="Fill-38" fill="#0684BC" mask="url(#mask-2)"></path>
            <path d="M208.030875,27.2442133 C208.242425,27.2444593 208.449056,27.1819835 208.626168,27.0645341 C208.80205,26.9470846 208.938573,26.7800728 209.01975,26.5846516 C209.100926,26.3892305 209.123065,26.174009 209.081247,25.9664125 C209.039429,25.758939 208.938573,25.5681912 208.78852,25.4185201 C208.638467,25.2689719 208.447826,25.1670184 208.239965,25.1258188 C208.033335,25.0846193 207.818095,25.1058955 207.622534,25.1870647 C207.426972,25.268111 207.2597,25.4053608 207.142855,25.5814735 C207.024781,25.7575862 206.962054,25.9644448 206.963284,26.1760997 C206.960824,26.3880007 207.022321,26.5954742 207.140396,26.7718328 C207.25724,26.9481915 207.424513,27.0851953 207.621304,27.1652577 C207.750448,27.2192476 207.890661,27.246058 208.030875,27.2442133" id="Fill-39" fill="#FF7A00" mask="url(#mask-2)"></path>
            <path d="M206.803391,23.2129301 C206.413499,23.3761295 206.059275,23.614226 205.761629,23.9136913 L206.516814,24.6688113 C206.714835,24.4697007 206.949754,24.3115436 207.209272,24.203441 C207.467561,24.0952153 207.745528,24.0392577 208.027185,24.0383968 C208.307612,24.0376589 208.585579,24.0922637 208.845098,24.1990135 C209.104616,24.3057634 209.340765,24.4625676 209.540016,24.6605714 L210.295201,23.9054514 C209.846272,23.4580367 209.275578,23.153406 208.654456,23.0301763 C208.033335,22.9068237 207.388844,22.9705292 206.803391,23.2129301" id="Fill-40" fill="#FF7A00" mask="url(#mask-2)"></path>
            <path d="M275.1461,3.8709862 C275.1461,3.76718795 275.125929,3.67495016 275.085587,3.59427284 C275.045245,3.51359553 274.977475,3.4473073 274.882277,3.39540818 C274.792983,3.34633767 274.697786,3.31473086 274.59693,3.30021878 C274.496075,3.28582969 274.369268,3.27869663 274.216386,3.27869663 L273.572141,3.27869663 L273.572141,4.61466872 L274.121311,4.61466872 C274.300022,4.61466872 274.454257,4.60101753 274.584016,4.57359216 C274.713652,4.54616679 274.820411,4.49943298 274.903924,4.43302177 C274.993341,4.3610763 275.056068,4.28175181 275.092106,4.19529425 C275.128143,4.1088367 275.1461,4.00073402 275.1461,3.8709862 L275.1461,3.8709862 Z M276.668155,6.69432333 L275.70388,6.69432333 L274.272594,5.15948658 L273.572141,5.15948658 L273.572141,6.69432333 L272.858651,6.69432333 L272.858651,2.73818321 L274.207776,2.73818321 C274.478733,2.73818321 274.702213,2.74974368 274.877972,2.77274163 C275.053854,2.79586257 275.226784,2.85206613 275.396886,2.9413523 C275.578548,3.03937032 275.711874,3.15829558 275.796863,3.29812806 C275.881852,3.43796054 275.924408,3.61308935 275.924408,3.8233915 C275.924408,4.10305647 275.842986,4.33574166 275.680142,4.52169303 C275.517297,4.70764441 275.293078,4.85534785 275.007731,4.96492634 L276.668155,6.69432333 Z M277.498367,4.79188825 C277.498367,3.89841157 277.182026,3.13160811 276.54922,2.49172384 C275.916537,1.85183958 275.153357,1.53183595 274.25968,1.53183595 C273.366002,1.53183595 272.602822,1.85183958 271.970139,2.49172384 C271.337333,3.13160811 271.020992,3.89841157 271.020992,4.79188825 C271.020992,5.68548792 271.337333,6.4521684 271.970139,7.09205266 C272.602822,7.73205991 273.366002,8.05194055 274.25968,8.05194055 C275.153357,8.05194055 275.916537,7.73205991 276.54922,7.09205266 C277.182026,6.4521684 277.498367,5.68548792 277.498367,4.79188825 L277.498367,4.79188825 Z M277.999939,4.79188825 C277.999939,5.8238446 277.634522,6.7051459 276.903813,7.43579214 C276.173103,8.16656138 275.291725,8.53182301 274.25968,8.53182301 C273.227634,8.53182301 272.346256,8.16656138 271.615547,7.43579214 C270.884837,6.7051459 270.519421,5.8238446 270.519421,4.79188825 C270.519421,3.76005489 270.884837,2.87875359 271.615547,2.14798436 C272.346256,1.41733811 273.227634,1.0519535 274.25968,1.0519535 C275.291725,1.0519535 276.173103,1.41733811 276.903813,2.14798436 C277.634522,2.87875359 277.999939,3.76005489 277.999939,4.79188825 L277.999939,4.79188825 Z" id="Fill-41" fill="#565A5C" mask="url(#mask-2)"></path>
        </g>
    </g>
</svg>
