<svg xmlns="http://www.w3.org/2000/svg" width="60" height="60" viewBox="0 0 60 60">
    <g fill="none" fill-rule="evenodd">
        <g fill-rule="nonzero">
            <g transform="translate(-10 -10) translate(10 10)">
                <rect width="60" height="60" fill="#4B286D" rx="12.51"/>
                <g fill="#FFF">
                    <g>
                        <path d="M13.538 1.226l-2.746 2.729V1.799c0-.034-.003-.067-.008-.1.884-.25 1.807-.412 2.754-.473m-3.163 25.73c-5.487-1.754-9.176-6.803-9.176-12.565 0-5.582 3.486-10.366 8.394-12.289v3.295c0 .242.145.46.37.553.222.095.479.044.652-.128l4.796-4.767c.17-.166.223-.418.137-.641-.085-.222-.295-.372-.533-.383l-.208-.013C14.67.008 14.53 0 14.39 0 6.455 0 0 6.455 0 14.39c0 6.285 4.023 11.794 10.01 13.706.06.02.123.028.183.028.254 0 .49-.163.57-.416.101-.315-.073-.65-.388-.753m4.867.599l2.745-2.73v2.156c0 .034.004.068.008.1-.882.25-1.804.412-2.753.474M18.768.682c-.315-.1-.653.073-.754.39-.099.314.075.652.39.753 5.489 1.752 9.176 6.8 9.176 12.563 0 5.582-3.486 10.366-8.394 12.289v-3.295c0-.242-.145-.46-.37-.553-.22-.092-.479-.043-.652.128l-4.796 4.767c-.17.167-.223.418-.137.641.085.222.295.372.533.383l.208.013c.14.01.277.018.418.018 7.934 0 14.39-6.455 14.39-14.39 0-6.286-4.025-11.795-10.012-13.707" transform="translate(12 9) translate(3.597) rotate(90 14.39 14.39)"/>
                        <path d="M19.676 19.741c-5.866 0-10.638-4.771-10.571-10.703l2.378.068c0 .872.137 1.728.407 2.545l-.075.128-.965 1.178c-.136.18-.158.424-.055.627 1.007 1.98 2.23 3.204 4.222 4.223.203.104.371.237.553.1l1.431-.942c.021-.016.108-.048.127-.069.82.27 1.676.407 2.613.473l-.065 2.372zm-.002-3.627c-.744 0-1.474-.115-2.166-.345-.446-.152-.952-.033-1.225.247l-1.05.56c-1.47-.81-2.407-1.746-3.208-3.204l.684-.814c.334-.334.454-.822.31-1.28-.231-.696-.347-1.428-.347-2.173 0-.692-.563-1.256-1.256-1.256H9.105c-.692 0-1.256.564-1.256 1.256 0 6.52 5.305 11.825 11.825 11.825.693 0 1.256-.563 1.256-1.256V17.37c0-.693-.563-1.255-1.256-1.255z" transform="translate(12 9) translate(3.597)"/>
                    </g>
                    <path d="M12.21 34.097H9.654v1.164h2.128v1.21H9.653v1.38h2.558v1.264h-4.3v-6.23h4.3v1.212zm7.587 3.788v1.23h-4.45v-6.23h1.762v5h2.688zm14.196-2.625c1.37.31 1.98.865 1.98 1.85 0 .466-.14.956-.576 1.361-.626.59-1.475.773-2.64.773-.84 0-1.654-.189-2.455-.531l.407-1.245c.698.292 1.38.53 2.114.53.793 0 1.212-.201 1.196-.67-.017-.508-.881-.66-1.734-.837-.885-.184-1.847-.63-1.8-1.817.046-1.302 1.146-1.97 2.788-1.97.835 0 1.703.153 2.377.524l-.48 1.147c-.659-.341-1.305-.469-1.854-.469-.341 0-.929.137-.929.579 0 .475.417.505 1.606.775zM5.41 34.115H3.58v5H1.828v-5H0v-1.23h5.41v1.23zm20.4-1.23h1.817v4.156c0 .568-.009.702-.127.984-.238.58-1.055 1.202-2.642 1.202h-.064c-1.185 0-2.045-.29-2.487-.846-.267-.34-.346-.608-.346-1.202v-4.294h1.828v4.061c0 .333.035.54.11.657.146.226.46.353.89.36.581-.007.946-.226 1.002-.604.019-.12.019-.206.019-.516v-3.958z" transform="translate(12 9)"/>
                </g>
            </g>
        </g>
    </g>
</svg>
