<svg xmlns="http://www.w3.org/2000/svg" xmlns:xlink="http://www.w3.org/1999/xlink" width="10" height="10" viewBox="0 0 256 256">
    <defs>
        <linearGradient id="qnkmdienva" x1="50%" x2="50%" y1="0%" y2="100%">
            <stop offset="0%" stop-color="#3B0C7F"/>
            <stop offset="100%" stop-color="#5514B4"/>
        </linearGradient>
        <linearGradient id="kap68zpr5b" x1="50.2%" x2="50%" y1="100%" y2="0%">
            <stop offset="0%" stop-color="#FFF" stop-opacity="0"/>
            <stop offset="28.429%" stop-color="#FFF" stop-opacity="0"/>
            <stop offset="100%" stop-color="#FFF" stop-opacity=".4"/>
        </linearGradient>
        <filter id="2njei1m13c" width="108.7%" height="110.4%" x="-2.6%" y="-3.1%" filterUnits="objectBoundingBox">
            <feOffset dx="3" dy="3" in="SourceAlpha" result="shadowOffsetOuter1"/>
            <feGaussianBlur in="shadowOffsetOuter1" result="shadowBlurOuter1" stdDeviation="2"/>
            <feColorMatrix in="shadowBlurOuter1" values="0 0 0 0 0 0 0 0 0 0 0 0 0 0 0 0 0 0 0.25 0"/>
        </filter>
        <path id="tej35d31md" d="M168.96 76.988c-7.823-15.58-20.533-19.448-27.865-20.327.191-5.065-.045-13.121-2.454-21.579-3.731-13.104-13.438-29.564-38.482-33.554-16.157-2.572-29.69.217-40.238 8.29-12.978 9.93-17.652 25.078-19.21 32.313-6.418.626-18.907 3.048-28.334 12.322C4.555 62.147.59 72.741.59 85.941c0 21.126 19.653 40.365 41.231 40.365h27.01c2.665 0 4.825-2.166 4.825-4.837 0-2.67-2.16-4.837-4.825-4.837h-27.01c-16.234 0-31.582-14.915-31.582-30.69 0-10.475 2.975-18.728 8.842-24.532 10.02-9.912 25.482-9.815 25.627-9.82 2.527.031 4.616-1.821 4.887-4.308.022-.19 2.239-19.106 16.18-29.775 8.37-6.404 19.427-8.566 32.87-6.425 38.309 6.102 32.725 47.749 32.47 49.51-.219 1.474.252 2.967 1.277 4.047 1.023 1.078 2.49 1.624 3.966 1.48.162-.02 15.668-1.343 23.984 15.218 5.099 10.156 1.478 18.663-1.584 23.287l-5.427-5.44c-6.983-7.002-18.344-7.002-25.327 0-1.264 1.266-4.222 4.232-16.886-8.465-12.664-12.695-9.705-15.661-8.443-16.928 6.984-7 6.984-18.391 0-25.392l-8.443-8.465c-6.983-7.001-18.344-7.001-25.328 0l-5.066 5.079c-15.102 15.14-6.691 42.384 21.952 71.1 28.641 28.714 55.817 37.147 70.919 22.007 2.331-2.339 2.566-4.709.233-7.047-2.331-2.338-5.224-2.253-7.556.084-9.594 9.62-26.539 5.517-56.504-22.155C69.247 87.177 60.028 63.065 71.2 51.692l5.674-5.689c2.608-2.614 6.85-2.615 9.458 0l9.46 9.482c2.608 2.616 2.607 6.87 0 9.484-10.91 10.936 2.678 26.855 8.45 32.643 5.774 5.787 20.817 19.313 32.204 7.897 2.449-2.454 6.83-2.57 9.159 0l9.343 9.173c2.308 2.549 5.052 3.02 7.369.762.012-.012.027-.02.04-.03 6.084-5.723 15.294-21.117 6.603-38.426"/>
    </defs>
    <g fill="none" fill-rule="evenodd">
        <path fill="url(#qnkmdienva)" d="M76.575 0h102.85c26.627 0 36.282 2.772 46.017 7.978 9.734 5.206 17.374 12.846 22.58 22.58 5.206 9.735 7.978 19.39 7.978 46.017v102.85c0 26.627-2.772 36.282-7.978 46.017-5.206 9.734-12.846 17.374-22.58 22.58-9.735 5.206-19.39 7.978-46.017 7.978H76.575c-26.627 0-36.282-2.772-46.017-7.978-9.734-5.206-17.374-12.846-22.58-22.58C2.772 215.707 0 206.052 0 179.425V76.575c0-26.627 2.772-36.282 7.978-46.017 5.206-9.734 12.846-17.374 22.58-22.58C40.293 2.772 49.948 0 76.575 0z"/>
        <rect width="256" height="256" fill="url(#kap68zpr5b)" rx="59.733"/>
        <g transform="translate(40.5 52.5)">
            <use fill="#000" filter="url(#2njei1m13c)" xlink:href="#tej35d31md"/>
            <use fill="#FEFEFE" xlink:href="#tej35d31md"/>
        </g>
    </g>
</svg>
