<svg xmlns="http://www.w3.org/2000/svg" width="108" height="18" viewBox="0 0 154 40">
    <g fill="#5514B4">
        <path d="M16.08 17.2c0-.8-.64-1.28-1.6-1.28h-1.6v2.56h1.6c.48.08 1.6-.08 1.6-1.28zm0 5.28c0-.8-.64-1.28-1.6-1.28h-1.6v2.56h1.6c.48 0 1.6-.08 1.6-1.28zm3.52.24c0 2.32-1.76 4-4.32 4H9.84V13.28h5.12c2.56 0 4.32 1.52 4.32 3.76 0 1.04-.48 2.08-1.28 2.64.88.56 1.6 1.6 1.6 3.04zM36.8 20c0-9.52-7.68-17.2-17.2-17.2S2.4 10.48 2.4 20s7.68 17.2 17.2 17.2S36.8 29.52 36.8 20zm2.4 0c0 10.88-8.8 19.6-19.6 19.6C8.72 39.6 0 30.8 0 20 0 9.12 8.8.4 19.6.4 30.48.4 39.2 9.12 39.2 20zm-18.56-6.72H30v3.12h-3.12v10.24H23.6V16.4h-3.04v-3.12h.08z"/>
        <g>
            <path d="M9.712 2.856c-.424-.192-.872-.368-1.344-.512-.472-.152-1.024-.224-1.656-.224-.856 0-1.552.2-2.088.608-.536.4-.952.92-1.248 1.544-.304.624-.504 1.328-.608 2.096-.104.768-.16 1.52-.16 2.248 0 .704.048 1.448.136 2.232.088.784.28 1.504.576 2.152.296.648.72 1.184 1.272 1.616.552.424 1.296.64 2.232.64.496 0 .984-.072 1.456-.224.472-.152.952-.328 1.432-.536v1.84c-.944.432-1.992.648-3.16.648-1.192 0-2.176-.232-2.944-.696-.768-.464-1.376-1.072-1.824-1.84-.448-.76-.76-1.64-.928-2.64-.168-1-.256-2.04-.256-3.112 0-.952.096-1.928.28-2.912.184-.984.504-1.88.96-2.68.456-.8 1.072-1.448 1.856-1.952S5.472.4 6.664.4C7.248.4 7.8.456 8.336.56c.528.104.992.24 1.376.4v1.896zM13.832 16.72L11.976 16.72 11.976.568 13.832.568zM25.816 11.184c0 .792-.088 1.536-.272 2.232-.176.696-.464 1.304-.848 1.84-.392.528-.88.952-1.48 1.256-.6.304-1.32.456-2.176.456-.84 0-1.56-.152-2.16-.456-.608-.304-1.104-.728-1.488-1.256-.392-.528-.672-1.144-.848-1.84-.176-.696-.272-1.44-.272-2.232 0-.76.088-1.496.272-2.192.176-.704.456-1.32.84-1.856.384-.536.872-.96 1.48-1.28.608-.312 1.336-.472 2.184-.472.848 0 1.576.16 2.184.472.608.312 1.096.736 1.48 1.28.384.536.664 1.16.84 1.856.176.704.264 1.432.264 2.192zm-1.928-.04c0-.512-.032-1.016-.104-1.52s-.208-.952-.416-1.336c-.208-.392-.504-.712-.872-.96-.376-.248-.856-.368-1.456-.368-.616 0-1.104.128-1.464.368-.36.24-.656.568-.864.96-.208.392-.344.84-.416 1.336-.072.496-.104 1.008-.104 1.52 0 .544.04 1.064.112 1.576.072.512.216.968.424 1.36.208.4.496.72.864.96s.848.36 1.448.36 1.08-.12 1.456-.36c.376-.24.664-.56.864-.96.2-.4.336-.848.416-1.36.072-.512.112-1.04.112-1.576zM28.168 5.656h1.856v7.472c0 .704.144 1.264.424 1.664.28.408.784.608 1.504.608.536 0 1.048-.16 1.52-.48.48-.32.888-.672 1.232-1.064v-8.2h1.856V16.72h-1.592l-.224-1.368c-.192.192-.4.392-.616.584-.216.192-.456.368-.728.512-.272.152-.568.272-.896.368-.328.096-.696.144-1.096.144-1.032 0-1.832-.28-2.4-.848-.568-.568-.848-1.376-.848-2.416v-8.04h.008zM48.032 16.72h-1.568l-.224-.984c-.296.296-.68.576-1.152.84-.472.264-1.048.392-1.728.392-.776 0-1.44-.144-1.984-.424s-1.008-.68-1.36-1.184c-.36-.504-.616-1.104-.784-1.792-.16-.688-.248-1.424-.248-2.216 0-.824.088-1.592.264-2.32.176-.728.456-1.352.824-1.896.368-.536.848-.96 1.432-1.28.584-.312 1.272-.472 2.08-.472.568 0 1.064.104 1.504.304.44.2.792.408 1.064.616V.568h1.88V16.72zm-1.856-8.936c-.328-.24-.672-.44-1.04-.592-.368-.16-.776-.232-1.24-.232-.592 0-1.088.112-1.472.336-.384.224-.688.536-.912.92-.224.384-.376.832-.472 1.344-.088.512-.136 1.064-.136 1.656 0 .56.048 1.088.144 1.6.096.504.256.952.488 1.336.232.384.528.688.904.92.368.224.832.336 1.384.336.832 0 1.616-.304 2.344-.92V7.784h.008zM59.448 13.632L62.128 3.328 64.008 3.328 66.912 13.832 69.88.568 71.832.568 67.936 16.72 65.984 16.72 63.072 5.904 60.224 16.72 58.272 16.72 54.416.568 56.368.568zM81.744 11.184c0 .792-.088 1.536-.272 2.232-.176.696-.464 1.304-.848 1.84-.392.528-.88.952-1.48 1.256-.6.304-1.32.456-2.176.456-.84 0-1.56-.152-2.16-.456-.608-.304-1.104-.728-1.488-1.256-.392-.528-.672-1.144-.848-1.84-.176-.696-.272-1.44-.272-2.232 0-.76.088-1.496.272-2.192.176-.704.456-1.32.84-1.856.384-.536.872-.96 1.48-1.28.608-.32 1.336-.472 2.184-.472.848 0 1.576.16 2.184.472.608.312 1.096.736 1.48 1.28.384.536.664 1.16.84 1.856.176.704.264 1.432.264 2.192zm-1.92-.04c0-.512-.032-1.016-.104-1.52s-.208-.952-.416-1.336c-.208-.392-.504-.712-.872-.96s-.856-.368-1.456-.368c-.616 0-1.104.128-1.464.368-.368.248-.656.568-.864.96-.208.392-.344.84-.416 1.336-.072.496-.104 1.008-.104 1.52 0 .544.04 1.064.112 1.576.072.512.216.968.424 1.36.208.4.496.72.864.96s.848.36 1.448.36 1.08-.12 1.456-.36c.376-.24.664-.56.864-.96.2-.4.336-.848.416-1.36.072-.512.112-1.04.112-1.576zM86 7.448c.296-.552.72-1.032 1.264-1.448.544-.408 1.144-.616 1.8-.616.208 0 .44.016.696.048v1.52c-.12-.016-.224-.024-.312-.024h-.312c-.52 0-1.056.136-1.6.4s-1.048.64-1.512 1.12v8.272h-1.856V5.656h1.616L86 7.448zM95.544 10.216L100 16.72 97.696 16.72 93.6 10.728 93.44 10.728 93.44 16.72 91.584 16.72 91.584.568 93.44.568 93.44 9.944 93.576 9.944 97.384 5.656 99.848 5.656z" transform="translate(53.6 12)"/>
        </g>
    </g>
</svg>
