<?xml version="1.0" encoding="UTF-8"?>
<svg width="83px" height="18px" viewBox="0 0 83 18" version="1.1" xmlns="http://www.w3.org/2000/svg" xmlns:xlink="http://www.w3.org/1999/xlink">
    <title>RC logo</title>
    <g id="RC-logo" stroke="none" stroke-width="1" fill="none" fill-rule="evenodd">
        <g id="ringcentral_2.0_logo_POS-(1)" transform="translate(0.086498, 0.000000)">
            <polygon id="Path" fill="#FF7A00" fill-rule="nonzero" points="83.0769633 2.10229593 81.1269056 2.10229593 81.1269056 14.5473748 83.0769633 14.5473748"></polygon>
            <path d="M76.2329825,6.27427189 C74.4329825,6.27427189 73.0368575,7.14789497 72.8011268,8.93137478 L74.7181268,8.93137478 C74.8532999,8.25888439 75.3495114,7.85504401 76.2329825,7.85504401 C77.2582902,7.85504401 77.7296652,8.44350555 77.7296652,9.36822093 L77.7296652,9.78853824 L75.761521,9.78853824 C73.9483672,9.78853824 72.6082325,10.5962882 72.6082325,12.2445863 C72.6082325,13.8929709 73.7011268,14.7501344 75.2819249,14.7501344 C76.5099056,14.7501344 77.3175691,14.2275286 77.7544152,13.386894 L77.8384441,13.386894 L77.8384441,14.5407113 L79.6879441,14.5407113 L79.6879441,9.43087478 C79.6797229,7.45943343 78.6708575,6.27427189 76.2329825,6.27427189 Z M75.8374152,13.2533652 C75.0808095,13.2533652 74.6093479,12.8825479 74.6093479,12.2644036 C74.6093479,11.5572113 75.1137806,11.1880382 76.0220018,11.1880382 L77.7197999,11.1880382 L77.7296652,11.3050382 C77.7296652,12.5280863 77.0225595,13.2533652 75.8374152,13.2533652 Z" id="Shape" fill="#FF7A00"></path>
            <path d="M69.1517133,14.5473748 L69.1517133,10.3605575 C69.1517133,9.11604785 69.9264056,8.32481805 71.1527422,8.32481805 L71.9209441,8.32481805 L71.9209441,6.47536997 L71.1297229,6.47536997 C70.2049729,6.47536997 69.5324825,6.82811805 69.1120787,7.61932189 L69.0444922,7.61932189 L69.0444922,6.47536997 L67.2116075,6.47536997 L67.2116075,14.5523075 L69.1517133,14.5473748 Z" id="Path" fill="#FF7A00"></path>
            <path d="M65.9736749,12.7654613 L65.9736749,14.5473748 L64.6450499,14.5473748 C62.7775499,14.5473748 61.7522422,13.6819902 61.7522422,11.8144036 L61.7522422,8.07756901 L60.4237037,8.07756901 L60.4237037,6.47536997 L61.7522422,6.47536997 L61.7522422,4.33251324 L63.7038575,4.33251324 L63.7038575,6.47536997 L65.9736749,6.47536997 L65.9736749,8.07756901 L63.7038575,8.07756901 L63.7038575,11.5885382 C63.7038575,12.3287017 64.1407037,12.7654613 64.8807806,12.7654613 L65.9736749,12.7654613 Z" id="Path" fill="#FF7A00"></path>
            <path d="M54.0329249,14.5473748 L54.0329249,9.87265362 C54.0329249,8.7287017 54.7401172,7.98031708 55.8824249,7.98031708 C56.9752325,7.98031708 57.6312806,8.61163247 57.6312806,9.84790362 L57.6312806,14.5473748 L59.5846268,14.5473748 L59.5846268,9.53636516 C59.5846268,7.50064305 58.5955787,6.27427189 56.5747325,6.27427189 C55.345021,6.27427189 54.4054729,6.82811805 53.9851556,7.58470651 L53.9159249,7.58470651 L53.9159249,6.47536997 L52.0878864,6.47536997 L52.0878864,14.5523075 L54.0329249,14.5473748 Z" id="Path" fill="#FF7A00"></path>
            <path d="M46.8626941,13.1528075 C45.6346268,13.1528075 44.8104345,12.3287017 44.7774633,11.0330479 L50.7478383,11.0330479 L50.7396172,10.4017498 C50.7396172,7.69514689 48.9906749,6.28086612 46.8543864,6.28086612 C44.5467518,6.28086612 42.8604633,7.92921612 42.8604633,10.5187498 C42.8604633,13.1083267 44.4247325,14.7567113 46.8543864,14.7567113 C48.8884729,14.7567113 50.2170114,13.6803459 50.6044441,12.0995479 L48.7121075,12.0995479 C48.502771,12.7060959 47.9884729,13.1528075 46.8626941,13.1528075 Z M46.8543864,7.89624497 C48.1318672,7.89624497 48.8884729,8.61987093 48.9396172,9.6287017 L44.7692422,9.6287017 C44.9538287,8.60339401 45.5752614,7.89624497 46.8543864,7.89624497 Z" id="Shape" fill="#FF7A00"></path>
            <path d="M37.0236172,14.7665767 C39.9329537,14.7665767 41.5813383,13.1528075 41.9686845,10.7561248 L39.9906749,10.7561248 C39.6972229,11.849019 38.9010691,12.8577979 37.0236172,12.8577979 C35.0900883,12.8577979 33.5423479,11.5391248 33.5423479,8.65280747 C33.5423479,5.7665767 35.0900883,4.45119208 37.0236172,4.45119208 C38.957146,4.45119208 39.7318383,5.45998824 39.9906749,6.53635362 L41.9686845,6.53635362 C41.6489249,4.13965362 40.0252902,2.58031708 37.0236172,2.58031708 C33.794521,2.58031708 31.4571172,4.8336142 31.4571172,8.6792017 C31.4571172,12.5247979 33.794521,14.7780863 37.0236172,14.7780863 L37.0236172,14.7665767 Z" id="Path" fill="#FF7A00"></path>
            <path d="M28.2873864,6.47536132 L28.2873864,7.58305362 L28.1950499,7.58305362 C27.7582902,6.80997958 26.8499825,6.27261901 25.5577037,6.27261901 C23.6653672,6.27261901 21.9593479,7.76931901 21.9593479,10.4099709 C21.9593479,13.0506055 23.6407037,14.5638171 25.5577037,14.5638171 C26.8022133,14.5638171 27.5357133,14.0577402 28.0977806,13.2006632 L28.1868287,13.2006632 L28.1868287,14.9017498 C28.1868287,15.8099709 27.682396,16.2302882 26.8582902,16.2302882 L22.9021845,16.2302882 L22.9021845,17.9676344 L26.8202999,17.9676344 C28.9895595,17.9676344 30.1500402,16.7560959 30.1500402,14.7715094 L30.1500402,6.47536132 L28.2873864,6.47536132 Z M26.0933768,12.7984325 C24.7978095,12.7984325 23.9736172,11.9924132 23.9736172,10.4116152 C23.9736172,8.83081708 24.7895883,8.02317093 26.0933768,8.02317093 C27.3544152,8.02317093 28.1950499,8.82917285 28.1950499,10.4116152 C28.1950499,11.9940575 27.3626364,12.7984325 26.0933768,12.7984325 Z" id="Shape" fill="#0684BC"></path>
            <path d="M15.2192133,14.5473748 L15.2192133,9.87265362 C15.2192133,8.7287017 15.9264056,7.98031708 17.0703575,7.98031708 C18.1631652,7.98031708 18.8192133,8.61163247 18.8192133,9.84790362 L18.8192133,14.5473748 L20.7691845,14.5473748 L20.7691845,9.53636516 C20.7691845,7.50064305 19.7802229,6.27427189 17.7593768,6.27427189 C16.5313095,6.27427189 15.581896,6.82811805 15.1614922,7.58470651 L15.0939922,7.58470651 L15.0939922,6.47536997 L13.2692422,6.47536997 L13.2692422,14.5523075 L15.2192133,14.5473748 Z" id="Path" fill="#0684BC"></path>
            <polygon id="Path" fill="#0684BC" fill-rule="nonzero" points="11.6208575 6.47536997 9.67088639 6.47536997 9.67088639 14.5473748 11.6208575 14.5473748"></polygon>
            <path d="M6.2736287,8.98087478 L6.2736287,8.90177862 C7.4670287,8.57207574 8.27472678,7.77098055 8.27472678,5.97098055 C8.27472678,4.12152382 6.89505274,2.77482093 4.33846428,2.77482093 L0,2.77482093 L0,14.5473748 L2.01758062,14.5473748 L2.01758062,9.87265362 L4.4736287,9.87265362 C5.61758062,9.87265362 6.18955659,10.4445863 6.18955659,11.5885382 L6.18955659,14.5555959 L8.20714024,14.5555959 L8.20714024,11.5885382 C8.20714024,9.92371132 7.5,9.25122093 6.2736287,8.98087478 Z M4.22966812,8.05614208 L2.01758062,8.05614208 L2.01758062,4.59460362 L4.22966812,4.59460362 C5.32252774,4.59460362 6.16318832,5.04955362 6.16318832,6.32702574 C6.16318832,7.60449785 5.31428928,8.05614208 4.22966812,8.05614208 Z" id="Shape" fill="#0684BC"></path>
            <path d="M10.6450499,5.17976805 C10.9014633,5.18009689 11.1521652,5.10434112 11.3654825,4.96210651 C11.5787999,4.81987189 11.7451268,4.61753632 11.8433479,4.38073247 C11.9416556,4.14391997 11.9674441,3.88328343 11.9175114,3.63181132 C11.8675787,3.38033055 11.7440883,3.14932478 11.5628768,2.96803535 C11.3815787,2.78673728 11.150521,2.66331612 10.8990402,2.61337478 C10.6475595,2.56343343 10.3869056,2.58923055 10.1501364,2.68749497 C9.91336716,2.78575939 9.71104024,2.95207766 9.56877101,3.16539497 C9.42650178,3.37870362 9.35078063,3.62942285 9.35112678,3.88581035 C9.34887678,4.14245747 9.42373255,4.39386035 9.56600178,4.60749785 C9.70818447,4.82113535 9.91129024,4.98718535 10.1489249,5.08416035 C10.3060787,5.14948824 10.4749152,5.18201805 10.6450499,5.17976805 Z" id="Path" fill="#FF7A00"></path>
            <path d="M9.15823255,0.295699969 C8.68590563,0.4934092 8.25694313,0.781817662 7.89560178,1.14460074 L8.81043447,2.05943343 C9.05023255,1.81825939 9.3352037,1.62668055 9.6490787,1.49565266 C9.9629537,1.36463343 10.2995883,1.29671805 10.6396845,1.29580074 C10.9797806,1.29488343 11.3167614,1.36097285 11.6313287,1.49030458 C11.945896,1.61963632 12.2319922,1.80966612 12.4730883,2.04954208 L13.3878864,1.13470939 C12.8446845,0.592576219 12.1529825,0.223549392 11.4001845,0.0742229501 C10.6473864,-0.0751041845 9.86724216,0.00196523859 9.15823255,0.295699969 Z" id="Path" fill="#FF7A00"></path>
        </g>
    </g>
</svg>