<?xml version="1.0" encoding="UTF-8"?>
<svg width="130px" height="28px" viewBox="0 0 130 28" version="1.1" xmlns="http://www.w3.org/2000/svg" xmlns:xlink="http://www.w3.org/1999/xlink">
    <title>2DCE430A-1498-41BD-9D13-DB522BE7BAB3@1x</title>
    <g id="VXD-BT-&amp;-Telus" stroke="none" stroke-width="1" fill="none" fill-rule="evenodd">
        <g id="RC/new-logo-" transform="translate(-1087.000000, -344.000000)">
            <g id="ringcentral_2.0_logo_POS-(1)" transform="translate(1087.000000, 344.000000)">
                <polygon id="Path" fill="#FF7A00" fill-rule="nonzero" points="129.463619 3.27612889 126.424732 3.27612889 126.424732 22.6700124 129.463619 22.6700124"></polygon>
                <path d="M118.798249,9.77755942 C115.993206,9.77755942 113.817544,11.1389766 113.450191,13.918276 L116.437562,13.918276 C116.64821,12.8702954 117.421485,12.2409677 118.798249,12.2409677 C120.396045,12.2409677 121.130616,13.1580012 121.130616,14.5990385 L121.130616,15.2540432 L118.063544,15.2540432 C115.238002,15.2540432 113.149593,16.5128065 113.149593,19.0814444 C113.149593,21.6502171 114.852713,22.9859844 117.316161,22.9859844 C119.229795,22.9859844 120.488423,22.1715777 121.169186,20.8615683 L121.300133,20.8615683 L121.300133,22.6596283 L124.182315,22.6596283 L124.182315,14.6966756 C124.169504,11.6244649 122.59733,9.77755942 118.798249,9.77755942 Z M118.181814,20.6534826 C117.002752,20.6534826 116.268046,20.0756166 116.268046,19.1123269 C116.268046,18.0102683 117.054133,17.4349647 118.469466,17.4349647 L121.115242,17.4349647 L121.130616,17.6172925 C121.130616,19.5232388 120.028693,20.6534826 118.181814,20.6534826 Z" id="Shape" fill="#FF7A00"></path>
                <path d="M107.7631,22.6700124 L107.7631,16.1454537 C107.7631,14.2060627 108.970347,12.9730437 110.881418,12.9730437 L112.078551,12.9730437 L112.078551,10.0909421 L110.845546,10.0909421 C109.404455,10.0909421 108.356474,10.6406498 107.701335,11.8736283 L107.596011,11.8736283 L107.596011,10.0909421 L104.739721,10.0909421 L104.739721,22.6776993 L107.7631,22.6700124 Z" id="Path" fill="#FF7A00"></path>
                <path d="M102.810579,19.8931539 L102.810579,22.6700124 L100.740106,22.6700124 C97.8298733,22.6700124 96.2320772,21.3214336 96.2320772,18.4110659 L96.2320772,12.5877412 L94.1617392,12.5877412 L94.1617392,10.0909421 L96.2320772,10.0909421 L96.2320772,6.75160503 L99.2733919,6.75160503 L99.2733919,10.0909421 L102.810579,10.0909421 L102.810579,12.5877412 L99.2733919,12.5877412 L99.2733919,18.0590869 C99.2733919,19.2125263 99.9541545,19.8931539 101.107459,19.8931539 L102.810579,19.8931539 Z" id="Path" fill="#FF7A00"></path>
                <path d="M84.2026203,22.6700124 L84.2026203,15.385125 C84.2026203,13.6024388 85.3046788,12.436188 87.0848027,12.436188 C88.7877879,12.436188 89.8101454,13.4200031 89.8101454,15.3465557 L89.8101454,22.6700124 L92.8541573,22.6700124 L92.8541573,14.8610673 C92.8541573,11.6886843 91.3128667,9.77755942 88.1636657,9.77755942 C86.2473353,9.77755942 84.7831834,10.6406498 84.1281787,11.8196852 L84.0202924,11.8196852 L84.0202924,10.0909421 L81.1715548,10.0909421 L81.1715548,22.6776993 L84.2026203,22.6700124 Z" id="Path" fill="#FF7A00"></path>
                <path d="M73.0288365,20.4967778 C71.1150685,20.4967778 69.8306821,19.2125263 69.7793012,17.1934342 L79.0832806,17.1934342 L79.0704691,16.209646 C79.0704691,11.9917908 76.3449916,9.78783559 73.0158901,9.78783559 C69.4197702,9.78783559 66.7919297,12.3565544 66.7919297,16.3919739 C66.7919297,20.4274608 69.2296206,22.9962336 73.0158901,22.9962336 C76.1857244,22.9962336 78.2560624,21.3188713 78.8598211,18.8554226 L75.9108841,18.8554226 C75.5846629,19.8006414 74.7832026,20.4967778 73.0288365,20.4967778 Z M73.0158901,12.3051735 C75.006662,12.3051735 76.1857244,13.4328416 76.2654254,15.0049607 L69.7664897,15.0049607 C70.0541416,13.4071646 71.022556,12.3051735 73.0158901,12.3051735 Z" id="Shape" fill="#FF7A00"></path>
                <path d="M57.696036,23.0116073 C62.2298228,23.0116073 64.7985955,20.4967778 65.4022193,16.761889 L62.319773,16.761889 C61.8624699,18.4650091 60.6217775,20.0370473 57.696036,20.0370473 C54.6829066,20.0370473 52.2709736,17.982083 52.2709736,13.4841685 C52.2709736,8.98638875 54.6829066,6.93654911 57.696036,6.93654911 C60.7091654,6.93654911 61.9164131,8.50861429 62.319773,10.1859765 L65.4022193,10.1859765 C64.9039195,6.45106078 62.3737161,4.0210568 57.696036,4.0210568 C52.6639494,4.0210568 49.0214383,7.53249953 49.0214383,13.5253001 C49.0214383,19.5181142 52.6639494,23.0295434 57.696036,23.0295434 L57.696036,23.0116073 Z" id="Path" fill="#FF7A00"></path>
                <path d="M44.0818642,10.0909287 L44.0818642,11.8171094 L43.9379708,11.8171094 C43.2573432,10.6123836 41.8418749,9.77498364 39.8280424,9.77498364 C36.8791053,9.77498364 34.2205172,12.1073775 34.2205172,16.2224575 C34.2205172,20.3375106 36.8406708,22.6956354 39.8280424,22.6956354 C41.7674334,22.6956354 42.9104887,21.9069865 43.7863906,20.5713542 L43.9251593,20.5713542 L43.9251593,23.2222553 C43.9251593,24.6375887 43.1390728,25.2925934 41.8548213,25.2925934 L35.6897937,25.2925934 L35.6897937,28 L41.7956187,28 C45.176101,28 46.984545,26.1119898 46.984545,23.0192942 L46.984545,10.0909287 L44.0818642,10.0909287 Z M40.6628126,19.9445348 C38.6438554,19.9445348 37.359469,18.6884686 37.359469,16.2250198 C37.359469,13.7615711 38.6310439,12.5029696 40.6628126,12.5029696 C42.6279615,12.5029696 43.9379708,13.7590088 43.9379708,16.2250198 C43.9379708,18.6910309 42.640773,19.9445348 40.6628126,19.9445348 Z" id="Shape" fill="#0684BC"></path>
                <path d="M23.7169771,22.6700124 L23.7169771,15.385125 C23.7169771,13.6024388 24.8190356,12.436188 26.6017218,12.436188 C28.304707,12.436188 29.3270645,13.4200031 29.3270645,15.3465557 L29.3270645,22.6700124 L32.3658169,22.6700124 L32.3658169,14.8610673 C32.3658169,11.6886843 30.8246612,9.77755942 27.6754602,9.77755942 C25.7616921,9.77755942 24.2821664,10.6406498 23.6270269,11.8196852 L23.5218377,11.8196852 L23.5218377,10.0909421 L20.6782247,10.0909421 L20.6782247,22.6776993 L23.7169771,22.6700124 Z" id="Path" fill="#0684BC"></path>
                <polygon id="Path" fill="#0684BC" fill-rule="nonzero" points="18.1094519 10.0909421 15.0706995 10.0909421 15.0706995 22.6700124 18.1094519 22.6700124"></polygon>
                <path d="M9.7765571,13.9954147 L9.7765571,13.8721546 C11.6363011,13.3583596 12.8949835,12.1099668 12.8949835,9.30492304 C12.8949835,6.42280805 10.744958,4.32416335 6.76087888,4.32416335 L-9.58222807e-16,4.32416335 L-9.58222807e-16,22.6700124 L3.14411214,22.6700124 L3.14411214,15.385125 L6.97151338,15.385125 C8.75419958,15.385125 9.64554268,16.2764007 9.64554268,18.0590869 L9.64554268,22.6828239 L12.7896595,22.6828239 L12.7896595,18.0590869 C12.7896595,15.4646912 11.6876819,14.4167106 9.7765571,13.9954147 Z M6.59133556,12.5543504 L3.14411214,12.5543504 L3.14411214,7.16003558 L6.59133556,7.16003558 C8.29440167,7.16003558 9.60445149,7.86901038 9.60445149,9.85976878 C9.60445149,11.8505272 8.2815632,12.5543504 6.59133556,12.5543504 Z" id="Shape" fill="#0684BC"></path>
                <path d="M16.5887946,8.07193101 C16.9883784,8.07244347 17.3790617,7.95438889 17.7114864,7.7327365 C18.043911,7.5110841 18.3031078,7.19577291 18.4561715,6.82674783 C18.6093701,6.45770927 18.6495577,6.05154433 18.5717447,5.65966084 C18.4939317,5.26776387 18.3014895,4.90777427 18.0190972,4.62526052 C17.7365699,4.34273328 17.3764994,4.15039898 16.9846024,4.0725725 C16.5927055,3.99474602 16.1865135,4.03494716 15.8175424,4.18807827 C15.4485713,4.34120938 15.1332736,4.60039272 14.9115672,4.93281738 C14.6898609,5.26522854 14.5718603,5.65593877 14.5723997,6.05548218 C14.5688934,6.45543017 14.6855454,6.84720577 14.9072518,7.1801294 C15.1288233,7.51305302 15.4453347,7.77181831 15.8156544,7.92294004 C16.0605563,8.02474424 16.323664,8.07543732 16.5887946,8.07193101 Z" id="Path" fill="#FF7A00"></path>
                <path d="M14.2718015,0.460806301 C13.5357472,0.768907988 12.8672703,1.21835151 12.3041712,1.78369728 L13.7298077,3.20933378 C14.1034989,2.83349838 14.5475858,2.53495003 15.0367153,2.33076172 C15.5258448,2.12658691 16.050442,2.02075045 16.5804334,2.01932096 C17.1104248,2.01789146 17.6355614,2.12088242 18.1257697,2.32242751 C18.6159781,2.5239726 19.0618182,2.820107 19.4375322,3.19391953 L20.8631148,1.76828303 C20.0166119,0.923445668 18.938693,0.3483699 17.7655644,0.1156659 C16.5924357,-0.117039178 15.376692,0.00306254454 14.2718015,0.460806301 Z" id="Path" fill="#FF7A00"></path>
            </g>
        </g>
    </g>
</svg>
