<?xml version="1.0" encoding="UTF-8"?>
<svg width="60px" height="60px" viewBox="0 0 512 512" version="1.1" xmlns="http://www.w3.org/2000/svg" xmlns:xlink="http://www.w3.org/1999/xlink">
    <title>Avaya</title>
    <g id="Avaya" stroke="none" stroke-width="1" fill="none" fill-rule="evenodd">
        <g id="Group" transform="translate(-82.865374, -165.730748)" fill="#DA291C">
            <polygon id="Fill-1" points="300.522803 222.638376 290.948497 243.357414 290.948497 243.367362 169.573704 506.169154 156.123168 535.299297 426.449111 535.299297 416.926273 514.785454 188.139424 514.785454 302.251014 267.707149 319.087283 231.254053 527.243486 679.736256 550.033931 679.736256 337.63254 222.596715 319.037055 182.544012"></polygon>
            <polygon id="Fill-3" points="316.578918 0 53.2779518 568.487384 0 682.138151 22.6273345 682.138151 71.8566813 577.135049 316.619919 48.6690486 611.49404 682.138151 634.100253 682.138151"></polygon>
            <polygon id="Fill-4" points="253.764573 232.341132 110.377029 541.716495 55.6819279 658.299515 45.636003 679.736256 68.247715 679.736256 74.2273435 666.986732 117.472871 574.806699 444.934513 574.806699 435.400135 554.34258 127.079264 554.34258 128.942931 550.362153 276.345244 232.341132 319.200904 139.873903 570.667502 679.736256 593.268039 679.736256 319.149998 91.2720061"></polygon>
            <polygon id="Fill-2" points="127.297476 595.669934 121.703386 607.81607 86.4682163 684.540045 109.623366 684.540045 140.46466 616.756771 465.96761 616.756771 456.321934 595.669934"></polygon>
        </g>
    </g>
</svg>
