<svg xmlns="http://www.w3.org/2000/svg" xmlns:xlink="http://www.w3.org/1999/xlink" width="1280" height="228" viewBox="0 0 1280 228">
  <defs>
    <path id="video_tab_no_meetings-a" d="M0 0H1280V228H0z"/>
    <path id="video_tab_no_meetings-c" d="M0 0H1280V180H0z"/>
    <linearGradient id="video_tab_no_meetings-e" x1="48.522%" x2="48.522%" y1="0%" y2="100%">
      <stop offset="0%" stop-color="#FFF" stop-opacity=".336"/>
      <stop offset="100%" stop-color="#FFF" stop-opacity="0"/>
    </linearGradient>
    <path id="video_tab_no_meetings-f" d="M0 0H561V151H0z"/>
    <linearGradient id="video_tab_no_meetings-h" x1="50%" x2="50%" y1="36.771%" y2="119.637%">
      <stop offset="0%" stop-color="#F7F7F7"/>
      <stop offset="100%" stop-color="#D9E0E5"/>
    </linearGradient>
    <path id="video_tab_no_meetings-i" d="M15.8199901,20.9963287 C20.9659517,25.786298 25.2083241,27.8327574 28.5471074,27.1357069 C33.5552823,26.090131 27.6238636,13.6342665 20.5126386,10.3675846 C13.4014136,7.10090283 11.0320744,5.51774783 9.33257785,3.40723851 C7.6330813,1.29672919 3.79556383,-1.83462686 1.57993405,1.3786318 C0.102847536,3.52080424 -0.338538515,5.86356822 0.255775898,8.40692376 C1.80763381,8.41620573 3.32240304,9.06975936 4.8000836,10.3675846 C6.27776416,11.6654099 12.1795448,15.8727822 22.5054254,22.9897015 L15.8199901,20.9963287 Z"/>
    <path id="video_tab_no_meetings-k" d="M23.4441555,14.3940077 C35.2728445,12.4711339 40.2307758,9.50085237 38.3179492,5.48316315 C35.4487094,-0.543370679 24.6628627,-2.09656185 18.2880866,3.32733736 C11.9133106,8.75123657 7.25794516,7.09098498 2.2827246,8.75123657 C-1.03408911,9.85807096 -0.736388877,12.8928403 3.17582531,17.8555447 L29.4777389,8.80817154 C29.2882334,10.1643316 28.6342927,11.2506014 27.5159167,12.066981 C26.8329328,12.5655379 25.6728131,12.8293251 24.8116525,13.2975214 C24.4456677,13.4965001 23.9898354,13.8619955 23.4441555,14.3940077 Z"/>
    <path id="video_tab_no_meetings-m" d="M0 0L68.76 0 68.76 75 0 75z"/>
  </defs>
  <g fill="none" fill-rule="evenodd">
    <mask id="video_tab_no_meetings-b" fill="#fff">
      <use xlink:href="#video_tab_no_meetings-a"/>
    </mask>
    <g mask="url(#video_tab_no_meetings-b)">
      <g transform="translate(0 19.667)">
        <mask id="video_tab_no_meetings-d" fill="#fff">
          <use xlink:href="#video_tab_no_meetings-c"/>
        </mask>
        <use fill="#DCE8F1" xlink:href="#video_tab_no_meetings-c"/>
        <path fill="#C9DAF8" d="M-.084-28.224H464.416V74.776H-.084zM-.084 75.776H464.416V190.776H-.084z" mask="url(#video_tab_no_meetings-d)"/>
        <g mask="url(#video_tab_no_meetings-d)">
          <g transform="matrix(-1 0 0 1 195.33 64.024)">
            <path fill="#E1ECFF" d="M31.3996601,77.1295075 C31.3996601,77.1295075 8.48866636,61.0560428 3.52602009,29.5001038 C3.52602009,29.5001038 25.1086681,34.857248 35.9213375,77.128849" transform="rotate(-9 19.724 53.315)"/>
            <path fill="#B7D0FD" d="M41.6525717,79.3701811 C41.6525717,79.3701811 68.861527,63.2930089 74.7619977,31.7356192 C74.7619977,31.7356192 49.1322682,37.0960303 36.2852154,79.3701811"/>
            <path fill="#B7D0FD" d="M35.1067524,71.7348032 C29.4414666,71.7348032 11.9117415,40.1013537 18.7563269,0 C18.7563269,0 44.7433959,18.2096039 41.026201,74.217931 L35.1067524,71.7348032 Z"/>
            <path fill="#E1ECFF" d="M39.8722948,80.5572518 C39.8722948,80.5572518 61.3547114,52.2793153 53.9834721,17.2459052 C53.9834721,17.2459052 29.555739,33.8098282 34.2746038,82.8701811"/>
            <path fill="#E1ECFF" d="M9.636 118L69.258 118 69.258 67.816 9.636 67.816z"/>
          </g>
        </g>
        <g mask="url(#video_tab_no_meetings-d)">
          <g transform="translate(350 .324)">
            <g transform="translate(100.373)">
              <path fill="#A7C2F5" d="M46.45 0H50.650000000000006V16.8H46.45z"/>
              <circle cx="48.3" cy="31.55" r="6.3" fill="#FFF"/>
              <path fill="#A7C2F5" d="M48.5503655,14.7 L95.5042409,24.3118934 C96.4814359,24.5119343 97.1830853,25.3717685 97.1830853,26.3692286 L97.1830853,26.3972315 L97.1830853,26.3972315 C46.1264539,26.3972315 13.7320921,26.3972315 0,26.3972315 C0,26.3877029 0,26.3781743 0,26.3686457 C-5.63721199e-16,25.3714486 0.701288043,24.5117647 1.67815884,24.311451 L48.5503655,14.7 L48.5503655,14.7 Z"/>
            </g>
            <path fill="url(#video_tab_no_meetings-e)" d="M100.373 26.534L198.023 26.534 309.323 151.484 0 151.484z"/>
          </g>
        </g>
        <g mask="url(#video_tab_no_meetings-d)">
          <g transform="translate(294.983 123.024)">
            <g transform="matrix(-1 0 0 1 121.017 13.746)">
              <g transform="translate(0 19.663)">
                <path fill="#B8D0F6" fill-rule="nonzero" d="M0 11.494H121.017V23.591H0z"/>
                <path fill="#FFF" fill-rule="nonzero" d="M9.352 0L104.061 0 104.061 11.577 9.352 11.577z" transform="matrix(-1 0 0 1 113.412 0)"/>
                <path fill="#FFF" d="M10.858 1.476H103.799V10.334H10.858z"/>
                <path stroke="#DFECFD" stroke-linecap="square" stroke-width="2.281" d="M53.852 5.986L88.604 5.986"/>
              </g>
              <g fill-rule="nonzero" transform="translate(12.517 9.12)">
                <path fill="#B8D0F6" d="M0 0H10.238V10.646H0z"/>
                <path fill="#C8DCFF" d="M10.238 0H13.651V10.646H10.238z"/>
                <path fill="#B8D0F6" d="M13.651 0H83.806V10.646H13.651z"/>
              </g>
              <g fill-rule="nonzero" transform="translate(19.79)">
                <path fill="#E1ECFF" d="M0 0H34.398V9.2H0z"/>
                <path fill="#C8DCFF" d="M9.173 3.45H22.932000000000002V5.75H9.173z"/>
                <path fill="#E1ECFF" d="M34.398 0H71.089V9.2H34.398z"/>
              </g>
            </g>
            <g transform="translate(23.388)">
              <path fill="#FFF" fill-rule="nonzero" d="M0 0H67.079V13.69H0z"/>
              <path fill="#FFF" d="M2.388 1.611H64.618V12.08H2.388z"/>
              <path stroke="#DFECFD" stroke-linecap="square" stroke-width="2.281" d="M8.622 6.853L41.946 6.853"/>
            </g>
          </g>
        </g>
        <g mask="url(#video_tab_no_meetings-d)">
          <g transform="translate(760.948 .073)">
            <mask id="video_tab_no_meetings-g" fill="#fff">
              <use xlink:href="#video_tab_no_meetings-f"/>
            </mask>
            <use fill="#E5EFFF" xlink:href="#video_tab_no_meetings-f"/>
            <g mask="url(#video_tab_no_meetings-g)">
              <g transform="translate(-213 29.543)">
                <path fill="#F2F6FF" d="M816.410341,7.1341555 C818.839657,7.1341555 820.809006,9.0973959 820.809006,11.5191757 C820.809006,13.0021508 820.070556,14.3131866 818.940231,15.1067834 L819.521596,15.1069194 C820.601601,17.4899894 824.439294,21.4287075 831.034675,26.9230738 C837.630057,32.41744 837.630057,37.7802799 831.034675,43.0115932 L831.205851,43.0115932 L831.205851,58.1598447 L830.868795,58.1598447 L848.800511,66.9298851 L867.194929,66.9298851 L867.194929,86.8617949 L886.389103,86.8617949 L886.389103,127.522891 L728.037162,127.522891 L728.037162,86.8617949 L762.426725,86.8617949 L762.426725,66.9298851 L796.581887,58.1598447 L802.414589,58.1598447 L802.414589,43.0115932 L802.458837,43.0115932 C796.001781,36.9149442 796.001781,31.5521044 802.458837,26.9230738 C808.915892,22.2940431 812.673335,18.355325 813.731166,15.1069194 L813.880452,15.1067834 C812.750126,14.3131866 812.011676,13.0021508 812.011676,11.5191757 C812.011676,9.0973959 813.981026,7.1341555 816.410341,7.1341555 Z"/>
                <path fill="#C1D8FD" d="M217.744245,59.7948473 L217.660569,90.2455368 L317.534404,90.2455368 C317.565624,79.4476388 317.611127,79.0542879 317.670912,89.0654841 C317.730698,99.0766803 317.745029,109.867629 317.713905,121.43833 L64.1542803,122.169181 L64.1542803,76.7244261 L172.622305,76.7244261 L172.622305,107.192343 L195.88213,107.192343 L195.88213,59.7948473 L217.744245,59.7948473 Z M1055.71618,61.9748128 L1055.71618,121.705046 L488.062206,121.705046 L488.062206,92.6691954 L549.34709,92.6691954 L549.34709,92.6691954 L549.34709,83.5153485 L549.34709,83.5153485 L747.328457,83.5153485 L747.328457,63.897996 L787.741934,63.6251972 L787.741934,87.0799816 L939.076057,87.0799816 C950.26807,70.3432024 966.794929,61.9748128 988.656635,61.9748128 L1055.71618,61.9748128 L1055.71618,61.9748128 Z" transform="matrix(-1 0 0 1 1119.87 0)"/>
                <rect width="5" height="13.5" x="520.052" y="92.717" fill="#DCE8F1" rx="2.5"/>
                <ellipse cx="513.12" cy="95.394" fill="#DCE8F1" rx="2.497" ry="2.5"/>
                <path fill="#A5C4FE" d="M128.19178,81.9180653 L167.085867,81.9180653 L167.085867,81.9180653 L206.230637,55.1735848 L206.230637,121.371904 L99.1699029,121.371904 L99.3976953,110.134389 C99.7154407,94.4592881 112.513459,81.9180653 128.19178,81.9180653 Z"/>
                <path fill="#E4EEFF" d="M323.102 40.483L427.07 40.483 427.07 122.169 323.102 122.169z"/>
                <g transform="translate(206.23 1.107)">
                  <path fill="#C1D8FD" d="M49.9848301,1.33226763e-14 L76.3768204,1.33226763e-14 L76.3768204,12.3940239 L91.5722087,12.3940239 L91.572,24.24 L126.36165,24.240484 L126.36165,127.740484 L-6.39488462e-13,127.740484 L-6.39488462e-13,24.240484 L34.789,24.24 L34.7894417,12.3940239 L49.9848301,12.3940239 L49.9848301,1.33226763e-14 Z"/>
                  <ellipse cx="105.39" cy="34.29" fill="#E6EFFF" rx="2.5" ry="2.503"/>
                  <ellipse cx="116.39" cy="34.29" fill="#E6EFFF" rx="2.5" ry="2.503"/>
                  <ellipse cx="94.392" cy="34.29" fill="#E6EFFF" rx="2.5" ry="2.503"/>
                </g>
                <path fill="#C1D8FD" d="M427.070388,40.4825499 L460.437014,40.507851 L460.437014,121.456706 L427.070388,121.431405 L427.070388,40.4825499 Z M443.753701,5.76682701 L460.815232,40.4825499 L427.070388,40.4825499 L443.753701,5.76682701 Z"/>
                <path fill="#A5C4FE" d="M456.001 55.315L456.001 121.705 332.592 121.705 332.592 81.467 402.729 81.467 402.835 55.315z" transform="matrix(-1 0 0 1 788.593 0)"/>
                <path fill="#D4E5FF" d="M427.07 40.483L461.532 40.483 461.532 44.483 427.07 44.483z"/>
                <path fill="#A5C4FE" d="M453.462379,55.1979634 L480.654126,55.21864 L480.654126,121.371904 L453.462379,121.351228 L453.462379,55.1979634 Z M467.058252,27.2932897 L480.654126,55.1979634 L453.462379,55.1979634 L467.058252,27.2932897 Z"/>
                <g transform="translate(531.839)">
                  <path fill="#A5C4FE" d="M0 27.742L89.117 27.742 135.159 0 176.536 27.742 269.791 27.742 270.318 121.246 0 121.246z"/>
                  <path fill="#B1CDFB" d="M58.782 49.13H78.126V100.434H58.782zM22.618 49.13H41.962V100.434H22.618zM94.945 49.13H114.28899999999999V100.434H94.945zM131.109 49.13H150.453V100.434H131.109zM167.273 49.13H186.617V100.434H167.273z"/>
                </g>
                <path fill="#A5C4FE" d="M47.587 46.867L64.822 36.861 64.822 105.799 102.304 105.799 102.304 121.414 0 121.377 0 63.612 47.587 63.612z"/>
              </g>
            </g>
          </g>
        </g>
        <g transform="translate(486.358 72)">
          <g transform="translate(0 76.855)">
            <path fill="#F7F7F7" d="M0,19.7462029 C18.3228777,6.58206763 41.3491631,0 69.0788565,0 C96.8085498,0 120.9741,15.0178677 141.575507,45.053603 C123.651004,53.114396 104.594117,57.1447925 84.4048459,57.1447925 C64.2155747,57.1447925 36.0806261,44.678596 0,19.7462029 Z"/>
            <ellipse cx="70.336" cy="25.598" fill="url(#video_tab_no_meetings-h)" rx="21.32" ry="6.77" transform="rotate(17 70.336 25.598)"/>
          </g>
          <g transform="translate(45.064 54.146)">
            <path fill="#183BB6" d="M0 24.726L13.559 0 51.219 25.709 37.533 51.418z"/>
            <path fill="#0E3E87" d="M0 24.726L0 23.48 2.19 3.768 2.91 3.009 9.057 7.255"/>
            <path fill="#ECF7FF" d="M0.403 24.134L2.91 3.009 9.564 7.504z"/>
            <path fill="#0E3E87" d="M0 23.48L0 24.726 20.635 39.427 20.635 37.649 0.819 23.603z"/>
          </g>
          <g transform="translate(61.392)">
            <g transform="translate(0 1.34)">
              <path fill="#E6B9A1" d="M19.4026096,107.14686 C5.64429687,97.1421866 -0.797042535,91.1226788 0.0785913855,89.0883363 C3.16401492,90.4811586 10.0389955,95.3183116 11.8220767,96.3253969 C13.7397154,97.4084802 15.1834003,96.9892908 16.1531314,95.0678285 C16.4165443,91.7315755 16.6036951,89.8944198 16.7145838,89.5563615 C17.2576844,87.9006503 18.1933233,88.3879373 18.4401245,90.6651876 C18.7625125,93.6398814 20.2868992,97.3851149 23.0132847,101.900888 L19.4026096,107.14686 Z"/>
              <path fill="#89ABD0" d="M53.6079898,50.9186657 C50.2288494,72.5434487 51.280312,87.0583026 56.7623779,94.4632273 C64.9854766,105.570614 98.149651,131.647127 127.074973,131.647127 C125.783008,118.57428 127.074973,105.570614 128.93991,84.165843 C123.869397,84.165843 116.580088,83.6864934 110.098063,76.7557097 C103.616038,69.824926 89.8512716,48.4160256 74.6773938,46.4526907 C64.5614752,45.1438009 57.5383406,46.6324592 53.6079898,50.9186657 Z"/>
              <path fill="#89ABD0" d="M72.1087576,46.4558326 C72.1087576,46.4558326 60.410431,46.0338769 51.9183009,54.969961 C46.2568808,60.9273505 49.9638545,79.1588339 63.039222,109.664411 L23.0132847,101.900888 L17.3647081,109.664411 C38.3259421,119.374397 54.444735,125.939258 65.7210869,129.358993 C68.3059416,130.142891 70.7209191,130.787176 72.9660195,131.291845 C79.239399,132.702024 85.4681516,128.759618 86.8783271,122.486237 C87.2426613,120.865441 87.2559171,119.185442 86.9172037,117.559098 C77.0449063,70.1569212 72.1087576,46.4558326 72.1087576,46.4558326 Z"/>
              <path stroke="#6D89A7" stroke-width="2.2" d="M80.184 92.537L87.999 118.39"/>
              <path fill="#E8B092" d="M42.735 46.124L44.684 51.983 52.651 44.849z"/>
              <path fill="#173D83" d="M247.004854,130.573929 C248.405324,130.763121 251.512155,128.428334 256.325346,123.569569 C261.138537,118.710804 276.488382,100.064069 302.37488,67.6293635 L293.098773,60.0027234 L241.022323,100.115115 L247.004854,130.573929 Z"/>
              <path fill="#E6B9A1" d="M300.252685,65.9467764 L307.961853,57.960865 C311.973367,58.1920654 315.05886,58.3144716 317.218332,58.3280835 C319.377804,58.3416953 321.304524,58.2508828 322.998491,58.0556459 L329.524426,60.0027234 C322.159163,54.3546779 316.56564,50.1877586 312.743858,47.5019655 C308.922076,44.8161725 307.328074,43.9319919 307.961853,44.8494237 L293.098773,60.0027234 L300.252685,65.9467764 Z"/>
              <g transform="translate(307.019 37.013)">
                <mask id="video_tab_no_meetings-j" fill="#fff">
                  <use xlink:href="#video_tab_no_meetings-i"/>
                </mask>
                <use fill="#121212" xlink:href="#video_tab_no_meetings-i"/>
                <path fill="#919191" d="M-2.59341383,5.30260276 L37.4065862,5.30260276 L36.3644444,16.8428796 C32.6539221,13.310743 28.4397188,11.4305483 23.7218344,11.2022954 C20.6161398,11.0520408 9.73351279,13.2613607 6.14498623,13.2136695 C3.10744322,13.1733009 0.637307238,12.311978 -1.26542171,10.6297008 L-2.59341383,5.30260276 Z" mask="url(#video_tab_no_meetings-j)" transform="rotate(35 17.407 11.073)"/>
              </g>
              <path fill="#204EA8" d="M127.128518,131.647127 L241.935209,131.647127 C249.008121,131.647127 254.741849,125.913399 254.741849,118.840487 C254.741849,117.013153 254.350796,115.206978 253.594958,113.54329 L218.758398,36.8639579 L218.758398,36.8639579 L205.083805,41.9626193 L220.542812,105.735465 C186.12673,89.4751975 162.864233,81.3450636 150.755323,81.3450636 C132.591959,81.3450636 128.93991,84.2555424 128.93991,84.2555424 C127.128518,94.4632273 126.080674,101.631938 125.670237,110.312721 C125.396613,116.09991 125.882707,123.211379 127.128518,131.647127 Z"/>
              <path stroke="#153672" stroke-width="2.2" d="M220.542812,105.735465 C225.754914,109.195607 228.360965,112.655749 228.360965,116.115892"/>
              <path fill="#E6B9A1" d="M207.972426,40.9058596 L218.758398,36.8639579 L215.575717,23.5907413 C219.043773,18.6986463 221.667574,15.4129192 223.447119,13.7335601 C224.448899,12.7881786 224.448899,13.7335601 226.764852,12.066981 C228.723667,10.6574005 228.726674,8.75123657 228.726674,8.75123657 C228.726674,8.75123657 220.041581,11.1912412 202.671397,16.0712504 C202.342548,16.9181217 202.342548,18.0987915 202.671397,19.6132598 C202.805338,20.2301071 203.919616,23.2934151 204.530726,25.5647488 C205.123575,27.7682083 206.270808,32.8819119 207.972426,40.9058596 Z"/>
              <g transform="translate(199.249)">
                <mask id="video_tab_no_meetings-l" fill="#fff">
                  <use xlink:href="#video_tab_no_meetings-k"/>
                </mask>
                <use fill="#121212" xlink:href="#video_tab_no_meetings-k"/>
                <path fill="#919191" d="M-2.37596161,-0.146326141 L37.6240384,-0.146326141 L37.7922298,12.2115268 C34.6867535,7.19276975 30.5151669,4.79255029 25.2774698,5.01086845 C23.4348741,5.08767169 12.293232,7.30234581 11.5973433,7.2922051 C8.5604585,7.24795067 3.90269019,6.76844025 -2.37596161,5.85367386 L-2.37596161,-0.146326141 Z" mask="url(#video_tab_no_meetings-l)" transform="rotate(-16 17.708 6.033)"/>
              </g>
            </g>
            <path fill="#E6B9A1" d="M41.0740534,14.296226 C30.1816345,28.9271124 26.2797601,38.5331366 29.3684302,43.1142986 C34.0014353,49.9860415 51.7414594,47.1939701 53.6079898,44.986693 C54.4705785,43.9666334 57.3633768,40.4265851 60.7449708,34.6479974 C61.7427226,32.9430039 63.4014279,29.9501119 65.7210869,25.6693213 L41.0740534,14.296226 Z"/>
            <path fill="#B21056" d="M41.0740534,14.296226 C40.5506321,16.1042243 41.7428565,19.1772532 44.6507268,23.5153127 C47.2870416,27.4482564 52.7686622,30.6966272 55.8729591,30.8090935 C59.9618698,27.7538242 60.4103763,31.6535605 60.7449708,32.7444714 C61.589755,35.4988031 55.8729591,40.6262276 50.2728853,46.1893914 C30.8053531,65.5286136 32.9685173,82.0665481 56.7623779,95.8031951 C50.7202169,79.6755063 49.0244519,67.6483831 51.6750831,59.7218254 C55.6510298,47.8319888 83.8536054,46.7203406 95.4807298,61.0676649 C95.9914693,53.0109104 92.3437764,46.9343242 84.5376511,42.8379062 C87.3338869,23.6449729 83.0736656,10.7713351 71.756987,4.21699279 C60.4403085,-2.33734951 50.2126639,-1.2512822 41.0740534,7.47519471 C35.4153845,9.55822899 31.8791945,12.5406184 30.4654837,16.4223628 C29.0517728,20.3041073 29.0517728,25.3977603 30.4654837,31.7033217 C31.7688284,29.0380774 33.2441611,26.3087411 34.8914816,23.5153127 C36.5388021,20.7218842 38.5996594,17.6488554 41.0740534,14.296226 Z"/>
          </g>
        </g>
      </g>
    </g>
    <g transform="matrix(-1 0 0 1 301.176 19.667)">
      <mask id="video_tab_no_meetings-n" fill="#fff">
        <use xlink:href="#video_tab_no_meetings-m"/>
      </mask>
      <use fill="#E6EFFF" xlink:href="#video_tab_no_meetings-m"/>
      <g mask="url(#video_tab_no_meetings-n)">
        <g transform="translate(13.544 16.667)">
          <path fill="#734B0A" d="M17.5781062,39.8704935 C17.2546031,51.9346462 18.4582722,84.441084 18.4582722,85.8614339 C18.4582722,87.2817838 15.6065288,86.6920168 14.5933027,87.8238152 C13.5800765,88.9556136 13.671506,89.1379439 13.8723339,89.3818481 C14.7635432,89.3818481 14.7635432,89.3818481 18.1178947,89.3818481 C21.8159888,89.3818481 22.0780318,86.4925431 22.0780318,84.1464986 C20.8064051,69.8444004 26.9182627,61.4631596 27.3893349,59.9032368 C32.5446784,65.7586393 17.9016094,27.8063408 17.5781062,39.8704935 Z"/>
          <path fill="#805208" d="M65.2226665,83.2351953 C71.6306091,79.6466701 73.7496597,72.5284918 74.6651225,71.941683 C75.5805853,71.3548742 75.8365344,88.9426184 59.8537455,89.5587887 C51.2844937,89.8891514 51.6419893,86.8081841 54.9452024,84.9166221 C57.881459,83.2351953 62.5283512,84.7440444 65.2226665,83.2351953 Z"/>
          <path fill="#C1D8FD" d="M10.4290745,5.98356956 C6.46371803,3.22125733 3.88044946,1.49501656 1.85607103,0 C0.385731006,2.06278044 -2.64414037,8.28124618 4.91924923,12.6979685 C12.4826388,17.1146909 14.4583499,27.9832814 14.1348468,40.047434 C13.8113436,52.1115867 15.2852899,84.5709861 15.2852899,85.991336 C15.2852899,87.4116859 12.1632694,86.8689573 11.1500432,88.0007558 C10.1368171,89.1325542 10.2282466,89.3148845 10.4290745,89.5589329 C11.3202837,89.5589329 11.3202837,89.5589329 14.6746353,89.5589329 C18.3727294,89.5589329 18.7607718,86.6813511 18.7607718,84.3353066 C17.4891451,70.0332085 23.4750032,61.6401002 23.9460754,60.0801774 C25.8200352,60.0801774 40.2661998,67.4531421 41.3154457,72.0398823 C35.4835463,74.8080125 35.4835463,79.4584971 41.3154457,85.991336 C36.0221013,85.4464837 32.4667043,85.0702991 30.6492547,84.8627822 C26.0295815,84.3353066 23.6059465,88.8013998 25.4491158,89.5589329 C27.8027554,89.5589329 39.6651946,89.5589329 61.0364333,89.5589329 C66.3425015,77.2154469 64.3461086,65.4508957 55.0472546,54.265279 C41.0989737,37.486854 23.9460754,41.8251557 23.6059465,24.1984286 C23.430802,15.1218003 25.0545955,11.6932758 24.6567213,11.2885325 C21.937137,8.52199661 19.5281367,6.85328481 16.8121495,5.09473866 C14.1658295,3.38130057 11.9694489,5.53359653 10.4290745,5.98356956 Z"/>
          <path fill="#D5E5FE" d="M28.2336737,10.267363 L33.4635079,27.7282736 C33.6102498,28.2182024 33.3320418,28.7343259 32.842113,28.8810677 C32.6037625,28.9524577 32.3467107,28.9249282 32.1288838,28.8046829 L23.1153234,23.8289987 C20.8766104,22.5931797 20.0636042,19.776515 21.2994232,17.537802 C21.5045717,17.166171 21.7598516,16.8245167 22.0580889,16.5224405 L28.2336737,10.267363 L28.2336737,10.267363 Z" transform="matrix(-1 0 0 1 51.876 0)"/>
        </g>
      </g>
    </g>
  </g>
</svg>
