<?xml version="1.0" encoding="UTF-8"?>
<svg width="268px" height="212px" viewBox="0 0 268 212" version="1.1" xmlns="http://www.w3.org/2000/svg" xmlns:xlink="http://www.w3.org/1999/xlink">
    <!-- Generator: Sketch 54.1 (76490) - https://sketchapp.com -->
    <title>Group 2</title>
    <desc>Created with Sketch.</desc>
    <defs>
        <linearGradient x1="50%" y1="0%" x2="50%" y2="100%" id="linearGradient-1">
            <stop stop-color="#EBF6FB" offset="0%"></stop>
            <stop stop-color="#FFFFFF" offset="100%"></stop>
        </linearGradient>
        <path d="M2,0 L132,0 C133.104569,-2.02906125e-16 134,0.8954305 134,2 L134,18.703125 C134,19.8076945 133.104569,20.703125 132,20.703125 L2,20.703125 C0.8954305,20.703125 1.3527075e-16,19.8076945 0,18.703125 L0,2 C-1.3527075e-16,0.8954305 0.8954305,2.02906125e-16 2,0 Z" id="path-2"></path>
        <filter x="-2.6%" y="-12.1%" width="105.2%" height="133.8%" filterUnits="objectBoundingBox" id="filter-3">
            <feOffset dx="0" dy="1" in="SourceAlpha" result="shadowOffsetOuter1"></feOffset>
            <feGaussianBlur stdDeviation="1" in="shadowOffsetOuter1" result="shadowBlurOuter1"></feGaussianBlur>
            <feColorMatrix values="0 0 0 0 0   0 0 0 0 0   0 0 0 0 0  0 0 0 0.0575747283 0" type="matrix" in="shadowBlurOuter1"></feColorMatrix>
        </filter>
        <path d="M77.71,37.7625 L174.21,37.7625 C175.314569,37.7625 176.21,38.6579305 176.21,39.7625 L176.21,56.3 C176.21,57.4045695 175.314569,58.3 174.21,58.3 L77.71,58.3 C76.6054305,58.3 75.71,57.4045695 75.71,56.3 L75.71,39.7625 C75.71,38.6579305 76.6054305,37.7625 77.71,37.7625 Z" id="path-4"></path>
        <filter x="-3.5%" y="-12.2%" width="107.0%" height="134.1%" filterUnits="objectBoundingBox" id="filter-5">
            <feOffset dx="0" dy="1" in="SourceAlpha" result="shadowOffsetOuter1"></feOffset>
            <feGaussianBlur stdDeviation="1" in="shadowOffsetOuter1" result="shadowBlurOuter1"></feGaussianBlur>
            <feColorMatrix values="0 0 0 0 0   0 0 0 0 0   0 0 0 0 0  0 0 0 0.0575747283 0" type="matrix" in="shadowBlurOuter1"></feColorMatrix>
        </filter>
        <path d="M2,0 L98.5,0 C99.6045695,-8.05134447e-15 100.5,0.8954305 100.5,2 L100.5,18.703125 C100.5,19.8076945 99.6045695,20.703125 98.5,20.703125 L2,20.703125 C0.8954305,20.703125 1.3527075e-16,19.8076945 0,18.703125 L0,2 C-1.3527075e-16,0.8954305 0.8954305,2.02906125e-16 2,0 Z" id="path-6"></path>
        <filter x="-3.5%" y="-12.1%" width="107.0%" height="133.8%" filterUnits="objectBoundingBox" id="filter-7">
            <feOffset dx="0" dy="1" in="SourceAlpha" result="shadowOffsetOuter1"></feOffset>
            <feGaussianBlur stdDeviation="1" in="shadowOffsetOuter1" result="shadowBlurOuter1"></feGaussianBlur>
            <feColorMatrix values="0 0 0 0 0   0 0 0 0 0   0 0 0 0 0  0 0 0 0.0575747283 0" type="matrix" in="shadowBlurOuter1"></feColorMatrix>
        </filter>
        <path d="M2,0 L132,0 C133.104569,-2.02906125e-16 134,0.8954305 134,2 L134,18.703125 C134,19.8076945 133.104569,20.703125 132,20.703125 L2,20.703125 C0.8954305,20.703125 1.3527075e-16,19.8076945 0,18.703125 L0,2 C-1.3527075e-16,0.8954305 0.8954305,2.02906125e-16 2,0 Z" id="path-8"></path>
        <filter x="-2.6%" y="-12.1%" width="105.2%" height="133.8%" filterUnits="objectBoundingBox" id="filter-9">
            <feOffset dx="0" dy="1" in="SourceAlpha" result="shadowOffsetOuter1"></feOffset>
            <feGaussianBlur stdDeviation="1" in="shadowOffsetOuter1" result="shadowBlurOuter1"></feGaussianBlur>
            <feColorMatrix values="0 0 0 0 0   0 0 0 0 0   0 0 0 0 0  0 0 0 0.0575747283 0" type="matrix" in="shadowBlurOuter1"></feColorMatrix>
        </filter>
        <path d="M26.5526371,18.769301 L25.4631003,18.769301 L25.0843695,19.1452873 C26.4222769,20.7054931 27.2359991,22.7281346 27.2359991,24.9442581 C27.2359991,29.8705017 23.2428601,33.8636407 18.3166165,33.8636407 C13.390373,33.8636407 9.39723404,29.8705017 9.39723404,24.9442581 C9.39723404,20.0180146 13.390373,16.0248756 18.3166165,16.0248756 C20.53274,16.0248756 22.5540093,16.8372256 24.1142152,18.1737607 L24.4929459,17.7977744 L24.4929459,16.710982 L31.3512649,9.86226844 L33.397234,11.9082376 L26.5526371,18.769301 L26.5526371,18.769301 Z M18.3166165,18.769301 C14.9052958,18.769301 12.1416594,21.5329374 12.1416594,24.9442581 C12.1416594,28.3542067 14.9052958,31.1192153 18.3166165,31.1192153 C21.7265651,31.1192153 24.4915737,28.3542067 24.4915737,24.9442581 C24.4915737,21.5329374 21.7265651,18.769301 18.3166165,18.769301 L18.3166165,18.769301 Z" id="path-10"></path>
        <polygon id="path-12" points="135.981489 71.8722973 162.924043 71.8722973 162.924043 90.8744088 135.981489 90.8744088"></polygon>
    </defs>
    <g id="R1.6---VxD---Helena" stroke="none" stroke-width="1" fill="none" fill-rule="evenodd">
        <g id="Empty-Call-log/Voicemail" transform="translate(-816.000000, -2528.000000)">
            <g id="Group-13" transform="translate(159.000000, 2262.000000)">
                <g id="Group-17" transform="translate(657.000000, 266.000000)">
                    <g id="Group-11">
                        <g id="Group-2">
                            <rect id="Rectangle" fill="#FFFFFF" x="0" y="0" width="268" height="212"></rect>
                            <g id="Group" transform="translate(8.040000, 7.950000)">
                                <path d="M129.922012,194.373013 C185.029637,194.373013 215.425974,174.461891 215.425974,119.971142 C215.425974,109.360734 261.647302,97.646623 250.054176,51.9143555 C239.896694,11.8453813 149.681119,31.5848648 119.543738,27.2040954 C79.8176547,21.4295123 64.6535848,-3.7609427 42.6256246,0.478044398 C1.73565887,8.34677284 30.1408295,53.1816894 30.1408295,95.7087844 C30.1408295,117.044643 -9.50190974,160.004004 2.14066214,176.143992 C20.232655,201.224751 96.3917826,194.373013 129.922012,194.373013 Z" id="Oval" fill="url(#linearGradient-1)" fill-rule="nonzero"></path>
                                <g id="Group-10" transform="translate(33.500000, 141.112500)">
                                    <g id="Rectangle" fill-rule="nonzero">
                                        <use fill="black" fill-opacity="1" filter="url(#filter-3)" xlink:href="#path-2"></use>
                                        <use fill="#FFFFFF" xlink:href="#path-2"></use>
                                    </g>
                                    <path d="M8.7,4.140625 L18.1,4.140625 C19.2045695,4.140625 20.1,5.0360555 20.1,6.140625 L20.1,15.390625 C20.1,16.4951945 19.2045695,17.390625 18.1,17.390625 L8.7,17.390625 C7.5954305,17.390625 6.7,16.4951945 6.7,15.390625 L6.7,6.140625 C6.7,5.0360555 7.5954305,4.140625 8.7,4.140625 Z" id="Rectangle-Copy-4" fill="#F5F5F5"></path>
                                    <g id="Group-9" transform="translate(22.612500, 4.968750)" fill="#E0EDF5" fill-rule="nonzero">
                                        <polygon id="Rectangle-22-Copy-3" points="0 -8.52651283e-14 101.3375 -8.52651283e-14 101.3375 3.16701858 0 3.16701858"></polygon>
                                        <polygon id="Rectangle-22-Copy" points="3.55271368e-14 7.453125 27.2632979 7.453125 27.2632979 10.6201436 3.55271368e-14 10.6201436"></polygon>
                                    </g>
                                </g>
                                <g id="Rectangle" fill-rule="nonzero">
                                    <use fill="black" fill-opacity="1" filter="url(#filter-5)" xlink:href="#path-4"></use>
                                    <use fill="#FFFFFF" xlink:href="#path-4"></use>
                                </g>
                                <g id="Group-6" transform="translate(33.500000, 70.225000)">
                                    <g id="Rectangle" fill-rule="nonzero">
                                        <use fill="black" fill-opacity="1" filter="url(#filter-7)" xlink:href="#path-6"></use>
                                        <use fill="#FFFFFF" xlink:href="#path-6"></use>
                                    </g>
                                    <g id="Group-5" transform="translate(22.612500, 5.796875)" fill="#E0EDF5" fill-rule="nonzero">
                                        <polygon id="Rectangle-22-Copy-3" points="-1.63424829e-13 -8.52651283e-14 41.6968085 -8.52651283e-14 41.6968085 3.16701858 -1.63424829e-13 3.16701858"></polygon>
                                        <polygon id="Rectangle-22-Copy" opacity="0.5" points="-1.95399252e-14 6.625 24.0558511 6.625 24.0558511 9.79201858 -1.95399252e-14 9.79201858"></polygon>
                                    </g>
                                    <path d="M13.325,4.140625 L13.475,4.140625 C17.1338865,4.140625 20.1,7.10673853 20.1,10.765625 L20.1,10.765625 C20.1,14.4245115 17.1338865,17.390625 13.475,17.390625 L13.325,17.390625 C9.66611353,17.390625 6.7,14.4245115 6.7,10.765625 L6.7,10.765625 C6.7,7.10673853 9.66611353,4.140625 13.325,4.140625 Z" id="Rectangle-Copy-3" fill="#E0EDF5"></path>
                                </g>
                                <g id="Group-8" transform="translate(63.650000, 104.012500)">
                                    <g id="Rectangle" fill-rule="nonzero">
                                        <use fill="black" fill-opacity="1" filter="url(#filter-9)" xlink:href="#path-8"></use>
                                        <use fill="#FFFFFF" xlink:href="#path-8"></use>
                                    </g>
                                    <path d="M8.7,4.140625 L18.1,4.140625 C19.2045695,4.140625 20.1,5.0360555 20.1,6.140625 L20.1,15.390625 C20.1,16.4951945 19.2045695,17.390625 18.1,17.390625 L8.7,17.390625 C7.5954305,17.390625 6.7,16.4951945 6.7,15.390625 L6.7,6.140625 C6.7,5.0360555 7.5954305,4.140625 8.7,4.140625 Z" id="Rectangle-Copy-7" fill="#FCE9CD"></path>
                                    <g id="Group-7" transform="translate(22.612500, 4.968750)" fill="#E0EDF5" fill-rule="nonzero">
                                        <polygon id="Rectangle-22-Copy-3" points="0 -8.52651283e-14 96.3125 -8.52651283e-14 96.3125 3.16701858 0 3.16701858"></polygon>
                                        <polygon id="Rectangle-22-Copy" opacity="0.5" points="3.55271368e-14 7.453125 27.2632979 7.453125 27.2632979 10.6201436 3.55271368e-14 10.6201436"></polygon>
                                    </g>
                                </g>
                                <g id="Group-3" transform="translate(119.302766, 66.250000)">
                                    <path d="M21.2,0.555067568 L21.68,0.555067568 C33.3884367,0.555067568 42.88,10.0466309 42.88,21.7550676 L42.88,21.7550676 C42.88,33.4635043 33.3884367,42.9550676 21.68,42.9550676 L21.2,42.9550676 C9.4915633,42.9550676 1.43386995e-15,33.4635043 0,21.7550676 L0,21.7550676 C-1.43386995e-15,10.0466309 9.4915633,0.555067568 21.2,0.555067568 Z" id="Rectangle-Copy" fill="#6A5CC8"></path>
                                    <mask id="mask-11" fill="white">
                                        <use xlink:href="#path-10"></use>
                                    </mask>
                                    <use id="Mask" fill="#FFFFFF" transform="translate(21.397234, 21.862955) scale(1, -1) translate(-21.397234, -21.862955) " xlink:href="#path-10"></use>
                                </g>
                                <path d="M89.035,41.7375 L89.185,41.7375 C92.8438865,41.7375 95.81,44.7036135 95.81,48.3625 L95.81,48.3625 C95.81,52.0213865 92.8438865,54.9875 89.185,54.9875 L89.035,54.9875 C85.3761135,54.9875 82.41,52.0213865 82.41,48.3625 L82.41,48.3625 C82.41,44.7036135 85.3761135,41.7375 89.035,41.7375 Z" id="Rectangle" fill="#F8E3DD"></path>
                                <g id="Group-4" transform="translate(98.490000, 43.725000)" fill="#E0EDF5" fill-rule="nonzero">
                                    <polygon id="Rectangle-22-Copy-3" points="0 0 41.54 0 41.54 3.3125 0 3.3125"></polygon>
                                    <polygon id="Rectangle-22-Copy" opacity="0.5" points="0 6.625 24.12 6.625 24.12 9.9375 0 9.9375"></polygon>
                                </g>
                                <path d="M147.287358,104.809291 C145.469123,107.80156 144.717325,109.978689 145.031963,111.340677 C145.346601,112.702665 147.140868,113.48142 150.414764,113.676943 L155.22617,107.182371 L147.287358,104.809291 Z" id="Path-14" fill="#F1DAD5" fill-rule="nonzero"></path>
                                <path d="M146.245319,103.881746 C148.267552,102.103647 150.498019,101.801963 152.936718,102.976696 C155.375416,104.151429 155.86586,106.761908 154.408047,110.808134 C152.210642,113.530283 150.317185,114.315192 148.727674,113.162861 C148.07934,112.692845 147.912642,112.210809 147.72628,111.701068 C147.54592,111.207745 147.678609,110.423287 148.124347,109.347695 C147.42686,109.571487 146.954859,109.683383 146.708343,109.683383 C146.461828,109.683383 146.395586,109.463225 146.509617,109.022908 L147.458002,107.938891 C146.649547,106.514642 146.245319,105.48482 146.245319,104.849425 C146.245319,104.214031 146.245319,103.891471 146.245319,103.881746 Z" id="Path-15" fill="#42526E" fill-rule="nonzero"></path>
                                <path d="M146.245319,106.076098 C145.612237,107.246434 145.205707,107.831603 145.025731,107.831603 C144.845754,107.831603 145.049019,108.090973 145.635525,108.609713 L146.245319,106.076098 Z" id="Path-16" fill="#F1DAD5" fill-rule="nonzero"></path>
                                <path d="M141.399154,115.616419 C136.167843,113.8631 133.552078,112.71946 133.55186,112.185498 C133.551532,111.384556 130.22044,103.319858 130.220138,102.582457 C130.219937,102.090856 130.485299,100.96532 131.016225,99.2058477 C131.053275,98.7431693 131.053149,98.4359201 131.015848,98.2841 C130.953182,98.0290439 130.708399,97.8350875 130.666772,97.8350708 C130.604524,97.8350459 130.564325,98.1330239 130.38587,98.9675143 C130.354244,99.1154021 130.298572,99.2737936 130.218854,99.4426888 C129.53426,98.8214344 129.068306,98.2349247 128.820992,97.6831595 C128.405609,96.7564288 128.805475,95.9822001 128.405293,95.9820397 C128.341426,95.9820141 128.305378,98.0472013 128.356503,98.7771717 C127.830227,99.1502359 127.281866,99.6479158 127.282068,100.140304 C127.282121,100.26996 128.155368,101.289895 128.155692,102.08226 C128.156379,103.764682 128.652377,110.374313 129.072414,111.861215 C129.266362,112.547779 129.726492,114.286541 131.50298,115.77424 C132.646006,116.731454 135.194317,118.182675 139.147913,120.127902 L141.399154,115.616419 Z" id="Path-20" fill="#F1DAD5" fill-rule="nonzero" transform="translate(134.340611, 108.054971) rotate(-1.000000) translate(-134.340611, -108.054971) "></path>
                                <path d="M163.284461,115.61804 C159.392265,113.777209 157.446371,112.589796 157.446781,112.055801 C157.447395,111.25481 166.765074,108.459091 167.469997,108.167631 C168.17492,107.87617 168.166091,107.749904 168.789024,107.230901 C169.226116,106.866734 169.647308,106.883424 169.591627,106.655745 C169.529265,106.400746 169.04893,106.530895 168.930989,106.60065 C168.813047,106.670406 168.667279,106.832559 168.311489,106.967806 C167.947174,107.106292 169.529738,105.384685 169.376779,105.004788 C169.279008,104.761959 168.347716,104.421183 167.94918,104.449052 C167.85333,104.455754 167.759745,104.36782 167.239197,104.867034 C166.718649,105.366247 166.858899,105.338921 166.567161,105.739267 C166.250133,106.174318 165.862754,106.911467 165.18455,107.057544 C163.455524,107.429955 152.549724,110.250189 152.967987,111.736696 C153.161117,112.423077 153.619174,114.161413 155.393805,115.647143 C156.535636,116.60309 158.413719,118.09818 161.028052,120.132414 L163.284461,115.61804 Z" id="Path-20-Copy" fill="#F1DAD5" fill-rule="nonzero" transform="translate(161.276434, 112.289680) scale(-1, 1) rotate(4.000000) translate(-161.276434, -112.289680) "></path>
                                <path d="M139.610982,113.676943 C142.567569,114.559692 145.945395,114.793904 149.744461,114.37958 C153.543527,113.965255 156.226083,115.02636 157.792128,117.562896 C156.855014,121.616858 156.200456,124.199456 155.828451,125.310689 C155.270445,126.977538 154.894076,136.465992 154.671865,136.465992 C154.449653,136.465992 147.368711,140.372635 140.372813,134.537542 C140.79328,131.345503 141.81195,128.268774 142.4304,125.310689 C142.612034,124.441919 142.737294,123.162023 142.806178,121.471 C138.961794,121.074795 137.117598,120.540002 137.273593,119.86662 C137.429587,119.193237 138.208717,117.130012 139.610982,113.676943 Z" id="Path-17" fill="#FFC400" fill-rule="nonzero"></path>
                                <path d="M146.245319,147.355544 C147.44294,153.421229 148.235507,157.678577 148.623021,160.127585 C149.922373,168.339217 150.477029,173.590223 151.221821,175.750507 C152.979518,175.750507 154.314301,175.289952 155.22617,174.368842 C154.857901,167.420679 154.632673,162.536348 154.550488,159.715851 C154.300809,151.147232 154.409457,145.342854 154.550488,142.756236 C154.600289,141.842837 155.265315,138.107485 154.550488,137.266459 C153.862961,136.457554 151.7034,136.272227 148.071807,136.71048 L146.245319,147.355544 Z" id="Path-22" fill="#FFAB00" fill-rule="nonzero"></path>
                                <path d="M140.596885,135.311615 C139.078924,138.736172 138.095862,141.74387 137.647698,144.334708 C135.248284,158.205738 134.698511,171.700523 134.698511,177.692229 C136.664635,178.481419 138.099634,178.481419 139.003505,177.692229 C140.747002,166.022627 142.085293,158.478857 143.018379,155.06092 C144.587097,149.314634 147.088482,147.014848 147.578549,146.749454 C148.192386,146.417034 150.200056,144.918509 151.905984,143.04039 C154.065724,140.662653 155.858194,137.755288 155.012269,136.706127 C154.002868,135.454214 149.19774,134.989377 140.596885,135.311615 Z" id="Path-21" fill="#FFAB00" fill-rule="nonzero"></path>
                                <path d="M134.458945,177.479408 C137.039386,176.743285 138.486528,176.472647 138.800371,176.667492 C139.114213,176.862338 139.256685,178.487429 139.227784,181.542767 L136.73571,182.107961 L136.734071,181.29938 C135.691091,181.987256 134.762958,182.467405 133.949672,182.739826 C132.977483,183.065474 132.243167,183.554801 130.553801,183.778991 C129.659881,183.897619 127.679772,184.078907 127.499244,183.876298 C127.193935,183.533647 129.151764,182.336939 133.37273,180.286173 L134.458945,177.479408 Z" id="Path-23-Copy" fill="#42526E" fill-rule="nonzero" transform="translate(133.349896, 180.286923) rotate(13.000000) translate(-133.349896, -180.286923) "></path>
                                <path d="M150.514129,173.771349 C153.094571,173.035226 154.541713,172.764588 154.855555,172.959434 C155.169398,173.154279 155.311869,174.779371 155.282969,177.834708 L152.790895,178.399902 L152.789256,177.591321 C151.746275,178.279197 150.818142,178.759346 150.004856,179.031767 C149.032667,179.357416 148.298352,179.846742 146.608986,180.070932 C145.715065,180.18956 143.734956,180.370848 143.554428,180.168239 C143.24912,179.825588 145.206949,178.62888 149.427914,176.578114 L150.514129,173.771349 Z" id="Path-23-Copy-2" fill="#42526E" fill-rule="nonzero" transform="translate(149.405081, 176.578864) rotate(13.000000) translate(-149.405081, -176.578864) "></path>
                                <path d="M161.591093,114.94375 C160.869517,115.058468 160.153825,115.174711 159.444016,115.292478 C158.734208,115.410246 156.9006,115.294003 153.943191,114.94375 L155.62683,122.544595 C157.96798,122.384721 159.637547,122.19242 160.635531,121.967691 C161.633515,121.742963 162.396352,121.464515 162.924043,121.132348 L161.591093,114.94375 Z" id="Path-2" fill="#FFC400"></path>
                                <mask id="mask-13" fill="white">
                                    <use xlink:href="#path-12"></use>
                                </mask>
                                <g id="Clip-2"></g>
                            </g>
                        </g>
                    </g>
                </g>
            </g>
        </g>
    </g>
</svg>