<?xml version="1.0" encoding="UTF-8" standalone="no"?><!DOCTYPE svg PUBLIC "-//W3C//DTD SVG 1.1//EN" "http://www.w3.org/Graphics/SVG/1.1/DTD/svg11.dtd"><svg width="100%" height="100%" viewBox="0 0 66 10" version="1.1" xmlns="http://www.w3.org/2000/svg" xmlns:xlink="http://www.w3.org/1999/xlink" xml:space="preserve" style="fill-rule:evenodd;clip-rule:evenodd;stroke-linejoin:round;stroke-miterlimit:1.41421;"><g><path d="M0.106,4.171c0,-2.214 1.533,-3.781 3.669,-3.781c2.16,0 3.658,1.543 3.658,3.76c0,2.214 -1.521,3.768 -3.669,3.768c-2.158,0 -3.658,-1.542 -3.658,-3.747Zm6.164,0c0,-1.61 -1.041,-2.763 -2.505,-2.763c-1.465,0 -2.495,1.119 -2.495,2.742c0,1.611 1.04,2.75 2.505,2.75c1.465,0.001 2.495,-1.117 2.495,-2.729Z" style="fill:#808284;fill-rule:nonzero;"/><path d="M8.229,2.395l1.119,0l0,-0.403c0,-1.354 0.638,-1.98 1.711,-1.98c0.828,0 1.209,0.348 1.209,0.727c0,0.313 -0.247,0.502 -0.269,0.482c-0.157,-0.157 -0.47,-0.315 -0.806,-0.315c-0.537,0 -0.771,0.335 -0.771,1.097l0,0.392l1.387,0l0,0.905l-1.365,0l0,4.476l-1.096,0l0,-4.476l-1.119,0l0,-0.905Z" style="fill:#808284;fill-rule:nonzero;"/><path d="M12.401,2.395l1.118,0l0,-0.403c0,-1.354 0.638,-1.98 1.711,-1.98c0.828,0 1.208,0.348 1.208,0.727c0,0.313 -0.247,0.502 -0.269,0.482c-0.157,-0.157 -0.47,-0.315 -0.805,-0.315c-0.538,0 -0.772,0.335 -0.772,1.097l0,0.392l1.387,0l0,0.905l-1.365,0l0,4.476l-1.096,0l0,-4.476l-1.118,0l0,-0.905l0.001,0Zm4.486,-1.769c0,-0.403 0.247,-0.626 0.659,-0.626c0.425,0 0.66,0.225 0.66,0.626c0,0.403 -0.245,0.615 -0.66,0.615c-0.413,-0.001 -0.659,-0.223 -0.659,-0.615Zm0.1,2.248c0,-0.403 0.212,-0.536 0.492,-0.536l0.123,0c0.291,0 0.493,0.123 0.493,0.536l0,4.9l-1.108,0l0,-4.9Z" style="fill:#808284;fill-rule:nonzero;"/><path d="M19.404,5.078c0,-1.633 1.187,-2.818 2.796,-2.818c1.6,0 2.305,0.984 2.305,1.488c0,0.459 -0.626,0.548 -0.66,0.493c-0.247,-0.592 -0.705,-1.052 -1.622,-1.052c-1.007,0 -1.768,0.795 -1.768,1.89c0,1.107 0.749,1.914 1.768,1.914c0.906,0 1.376,-0.461 1.622,-1.052c0.034,-0.056 0.66,0.022 0.66,0.504c0,0.492 -0.716,1.475 -2.305,1.475c-1.622,-0.002 -2.796,-1.186 -2.796,-2.842Z" style="fill:#808284;fill-rule:nonzero;"/><path d="M25.4,5.111c0,-1.633 1.163,-2.852 2.751,-2.852c1.556,0 2.585,1.096 2.585,2.707l0,0.09c0,0.234 -0.078,0.323 -0.336,0.323l-3.972,0c0.078,0.997 0.817,1.667 1.834,1.667c0.939,0 1.408,-0.413 1.689,-0.894c0.022,-0.021 0.583,0.077 0.583,0.548c0,0.472 -0.829,1.222 -2.294,1.222c-1.7,-0.004 -2.84,-1.132 -2.84,-2.811Zm1.04,-0.48l3.221,0c-0.056,-0.929 -0.626,-1.533 -1.521,-1.533c-0.884,0 -1.566,0.638 -1.7,1.533Z" style="fill:#808284;fill-rule:nonzero;"/><path d="M33.623,4.229c0,-1.006 0.637,-1.689 1.52,-1.689c0.461,0 0.842,0.248 1.053,0.549l0,-0.527l0.85,0l0,1.879c0,0.57 0.18,0.872 0.65,0.872c0.559,0 0.861,-0.615 0.861,-1.554c0,-1.633 -1.131,-2.775 -3.041,-2.775c-1.824,0 -3.1,1.32 -3.1,3.177c0,1.835 1.318,3.166 3.189,3.166c0.738,0 1.408,-0.235 1.834,-0.549c0.123,-0.089 0.234,-0.146 0.379,-0.146c0.234,0 0.391,0.358 0.348,0.402c-0.537,0.483 -1.477,0.886 -2.561,0.886c-2.283,0 -3.803,-1.522 -3.803,-3.758c0,-2.204 1.531,-3.77 3.713,-3.77c2.27,0 3.658,1.354 3.658,3.356c0,1.41 -0.605,2.192 -1.701,2.192c-0.615,0 -1.064,-0.28 -1.197,-0.716c-0.234,0.438 -0.637,0.706 -1.152,0.706c-0.889,-0.003 -1.5,-0.717 -1.5,-1.701Zm2.561,0.167l0,-0.547c-0.145,-0.335 -0.426,-0.571 -0.83,-0.571c-0.514,0 -0.85,0.379 -0.85,0.951c0,0.583 0.348,0.962 0.84,0.962c0.461,-0.001 0.84,-0.314 0.84,-0.795Z" style="fill:#808284;fill-rule:nonzero;"/><path d="M40.611,1.018c0,-0.347 0.168,-0.526 0.482,-0.526l0.166,0c0.334,0 0.502,0.179 0.502,0.526l0,2.629l3.816,0l0,-2.629c0,-0.347 0.164,-0.526 0.48,-0.526l0.166,0c0.336,0 0.502,0.179 0.502,0.526l0,6.757l-1.152,0l0,-3.122l-3.814,0l0,3.122l-1.152,0l0,-6.757l0.004,0Z" style="fill:#808284;fill-rule:nonzero;"/><path d="M48.096,6.364c0,-1.241 1.188,-1.778 3.613,-1.822l0.146,0l0,-0.112c0,-0.817 -0.469,-1.265 -1.332,-1.265c-0.814,0 -1.297,0.425 -1.543,0.917c0,0.013 -0.682,0 -0.682,-0.536c0,-0.515 0.781,-1.286 2.305,-1.286c1.521,0 2.346,0.783 2.346,2.148l0,3.368l-1.084,0c0,0 0.012,-0.158 0,-0.806c-0.412,0.583 -1.117,0.929 -1.934,0.929c-1.154,-0.002 -1.835,-0.616 -1.835,-1.535Zm3.759,-0.715l0,-0.414l-0.303,0.011c-1.564,0.056 -2.371,0.347 -2.371,1.073c0,0.482 0.379,0.784 1.018,0.784c0.963,-0.001 1.656,-0.606 1.656,-1.454Z" style="fill:#808284;fill-rule:nonzero;"/><path d="M55.578,3.211c0.371,-0.549 0.963,-0.952 1.791,-0.952c1.422,0 2.082,0.973 2.082,2.304l0,3.211l-1.109,0l0,-3.076c0,-0.906 -0.457,-1.467 -1.24,-1.467c-0.705,0 -1.24,0.38 -1.51,0.939l0,3.602l-1.107,0l0,-5.311c0,-0.033 0.18,-0.123 0.402,-0.123c0.326,0 0.662,0.167 0.691,0.873Z" style="fill:#808284;fill-rule:nonzero;"/><path d="M60.656,5.09c0,-1.7 1.064,-2.83 2.553,-2.83c0.873,0 1.531,0.402 1.848,0.883l0,-2.931c0,-0.033 0.188,-0.123 0.402,-0.123c0.348,0 0.705,0.18 0.705,0.952l0,6.734l-1.098,0l0,-0.896c-0.424,0.649 -1.041,1.042 -1.891,1.042c-1.443,-0.003 -2.519,-1.131 -2.519,-2.831Zm4.41,0.335l0,-1.141c-0.279,-0.681 -0.828,-1.107 -1.654,-1.107c-1.008,0 -1.678,0.761 -1.678,1.914c0,1.119 0.693,1.912 1.656,1.912c0.893,-0.001 1.676,-0.659 1.676,-1.578Z" style="fill:#808284;fill-rule:nonzero;"/></g></svg>
