<?xml version="1.0" encoding="UTF-8"?>
<svg width="177px" height="42px" viewBox="0 0 177 42" version="1.1" xmlns="http://www.w3.org/2000/svg" xmlns:xlink="http://www.w3.org/1999/xlink">
    <title>Group 46@3x</title>
    <g id="Page-1" stroke="none" stroke-width="1" fill="none" fill-rule="evenodd">
        <g id="Group-46" transform="translate(0.162500, 0.725000)">
            <g id="Group-30"></g>
            <g id="Group-2-Copy" transform="translate(171.381331, 26.672186)" fill="#FF8800" fill-rule="nonzero">
                <path d="M1.5530303,0 C2.41074526,0 3.10606061,0.695315351 3.10606061,1.5530303 C3.10606061,2.41074526 2.41074526,3.10606061 1.5530303,3.10606061 C0.695315351,3.10606061 0,2.41074526 0,1.5530303 C0,0.695315351 0.695315351,0 1.5530303,0 Z M1.5530303,0.232954545 C0.823972594,0.232954545 0.232954545,0.823972594 0.232954545,1.5530303 C0.232954545,2.28208801 0.823972594,2.87310606 1.5530303,2.87310606 C2.28208801,2.87310606 2.87310606,2.28208801 2.87310606,1.5530303 C2.87310606,0.823972594 2.28208801,0.232954545 1.5530303,0.232954545 Z" id="Oval"></path>
                <path d="M1.19391707,2.42111206 L1.19391707,1.75233839 L1.52956574,1.75233839 L1.95859037,2.42111206 L2.20591044,2.42111206 L1.75164908,1.73467267 C1.98130343,1.71448327 2.18824472,1.54792077 2.18824472,1.24507986 C2.18824472,0.934667932 1.96868506,0.737821341 1.6607968,0.737821341 L0.984452108,0.737821341 L0.984452108,2.42111206 L1.19391707,2.42111206 Z M1.63556006,1.56811017 L1.19391707,1.56811017 L1.19391707,0.924573235 L1.63556006,0.924573235 C1.83493033,0.924573235 1.97120874,1.0558043 1.97120874,1.24507986 C1.97120874,1.43435543 1.83493033,1.56811017 1.63556006,1.56811017 Z" id="R"></path>
            </g>
            <g id="Group-Copy" transform="translate(54.415963, 32.559632)" fill="#75787B" fill-rule="nonzero">
                <path d="M0.529694264,5.76517794 L0.76264881,4.43678237 C0.797776876,4.49779428 0.886059253,4.54956196 1.02749594,4.5920854 C1.16893263,4.63460885 1.29419192,4.65587058 1.40327381,4.65587058 C1.9098575,4.65587058 2.31891459,4.4663639 2.63044508,4.08735056 C2.94197556,3.70833721 3.0977408,3.237806 3.0977408,2.67575694 C3.0977408,2.30783667 3.00576073,2.03235867 2.8218006,1.84932296 C2.63784046,1.66628724 2.36097583,1.57476939 1.99120671,1.57476939 C1.85069444,1.57476939 1.69908911,1.61128409 1.53639069,1.68431349 C1.37369228,1.75734289 1.2488952,1.84747411 1.16199946,1.95470716 C1.13796447,1.7254503 1.12132486,1.59880438 1.11208063,1.57476939 L1.11208063,1.57476939 L0.582386364,1.67460705 C0.610119048,1.80772393 0.62398539,1.94453851 0.62398539,2.08505077 C0.62398539,2.22186535 0.61104347,2.36145319 0.585159632,2.5038143 L0.585159632,2.5038143 L0.0027732684,5.76517794 L0.529694264,5.76517794 Z M1.32839556,4.21214763 C1.23965097,4.21214763 1.14443543,4.19181033 1.04274892,4.15113573 C0.94106241,4.11046113 0.873579545,4.0605423 0.840300325,4.00137924 L0.840300325,4.00137924 L1.12594697,2.36515088 C1.18511003,2.28380167 1.2854099,2.20568795 1.42684659,2.1308097 C1.56828328,2.05593145 1.69261815,2.01849233 1.79985119,2.01849233 C2.04574766,2.01849233 2.23017,2.07904202 2.35311824,2.20014141 C2.47606647,2.3212408 2.53754058,2.5038143 2.53754058,2.74786192 C2.53754058,3.20082909 2.4326186,3.5581185 2.22277462,3.81973016 C2.01293065,4.08134181 1.71480429,4.21214763 1.32839556,4.21214763 Z M4.42713474,4.64200424 C4.78765963,4.64200424 5.09687906,4.54031773 5.35479302,4.33694471 C5.61270698,4.1335717 5.79851596,3.878431 5.91221997,3.57152263 C6.02592397,3.26461426 6.08277597,2.96879897 6.08277597,2.68407675 C6.08277597,2.3254007 5.98756043,2.04853607 5.79712933,1.85348286 C5.60669823,1.65842965 5.33122024,1.56090305 4.97069535,1.56090305 C4.49184434,1.56090305 4.0971158,1.75040972 3.78650974,2.12942307 C3.47590368,2.50843641 3.32060065,2.96325243 3.32060065,3.49387112 C3.32060065,3.8580937 3.4158162,4.14050487 3.60624729,4.34110461 C3.79667839,4.54170436 4.07030754,4.64200424 4.42713474,4.64200424 Z M4.50478626,4.21214763 C4.0850983,4.21214763 3.87525433,3.96162906 3.87525433,3.4605919 C3.87525433,3.25721888 3.91130682,3.03720626 3.9834118,2.80055402 C4.05551677,2.56390178 4.17245626,2.369773 4.33423025,2.21816766 C4.49600424,2.06656232 4.68319986,1.99075965 4.8958171,1.99075965 C5.31550505,1.99075965 5.52534903,2.22926073 5.52534903,2.70626289 C5.52534903,3.1037647 5.43336896,3.45412094 5.24940882,3.75733162 C5.06544868,4.0605423 4.81724116,4.21214763 4.50478626,4.21214763 Z M7.08769751,4.64200424 L8.27465639,2.70903616 L8.8265368,4.64200424 L8.96520022,4.64200424 C9.37564394,3.83220986 9.89054744,2.82089132 10.5099107,1.60804861 L10.5099107,1.60804861 L9.96357684,1.60804861 L9.03175866,3.51051073 L8.49929113,1.60804861 L8.36062771,1.60804861 L7.25409361,3.49664439 L6.92962121,1.60804861 L6.39438041,1.60804861 L6.94903409,4.64200424 L7.08769751,4.64200424 Z M11.6479491,4.64200424 C11.8753571,4.64200424 12.1369688,4.59300983 12.4327841,4.49502101 L12.4327841,4.49502101 L12.4882495,3.95700694 C12.266388,4.11785651 12.0463754,4.19828129 11.8282116,4.19828129 C11.5823151,4.19828129 11.3909596,4.13264727 11.254145,4.00137924 C11.1173304,3.8701112 11.0489232,3.68245337 11.0489232,3.43840575 C11.0489232,3.35705654 11.057243,3.27200965 11.0738826,3.18326506 C11.2569183,3.28310272 11.481553,3.33302155 11.7477868,3.33302155 C12.1452886,3.33302155 12.4808541,3.23965485 12.7544832,3.05292144 C13.0281124,2.86618804 13.1649269,2.61104735 13.1649269,2.28749937 C13.1649269,2.05454482 13.0771068,1.8752068 12.9014665,1.7494853 C12.7258261,1.6237638 12.4910227,1.56090305 12.1970563,1.56090305 C11.708961,1.56090305 11.3040639,1.73377011 10.9823647,2.07950424 C10.6606656,2.42523836 10.499816,2.85047285 10.499816,3.3552077 C10.499816,4.21307206 10.8825271,4.64200424 11.6479491,4.64200424 Z M11.6618155,2.89484515 C11.4713844,2.89484515 11.3059127,2.86341477 11.1654004,2.80055402 C11.3576804,2.26993533 11.6932459,2.00462599 12.1720969,2.00462599 C12.4864006,2.00462599 12.6435525,2.11832999 12.6435525,2.345738 C12.6435525,2.52507603 12.5520346,2.66142839 12.3689989,2.75479509 C12.1859632,2.84816179 11.9502354,2.89484515 11.6618155,2.89484515 Z M13.9424405,4.58653887 L14.2447267,2.88375207 C14.2872502,2.64340214 14.3935588,2.43679365 14.5636526,2.26392658 C14.7337464,2.09105952 14.91216,2.00462599 15.0988934,2.00462599 C15.246801,2.00462599 15.3762202,2.04899828 15.487151,2.13774287 L15.487151,2.13774287 L15.6369075,1.5997288 C15.5000929,1.57384496 15.3993308,1.56090305 15.3346212,1.56090305 C14.9556079,1.56090305 14.6385308,1.7374678 14.3833902,2.09059731 L14.3833902,2.09059731 L14.4665882,1.61636841 L13.9396672,1.61636841 L13.4155195,4.58653887 L13.9424405,4.58653887 Z M16.8831034,4.64200424 C17.1105114,4.64200424 17.372123,4.59300983 17.6679383,4.49502101 L17.6679383,4.49502101 L17.7234037,3.95700694 C17.5015422,4.11785651 17.2815296,4.19828129 17.0633658,4.19828129 C16.8174693,4.19828129 16.6261138,4.13264727 16.4892992,4.00137924 C16.3524847,3.8701112 16.2840774,3.68245337 16.2840774,3.43840575 C16.2840774,3.35705654 16.2923972,3.27200965 16.3090368,3.18326506 C16.4920725,3.28310272 16.7167073,3.33302155 16.982941,3.33302155 C17.3804428,3.33302155 17.7160083,3.23965485 17.9896374,3.05292144 C18.2632666,2.86618804 18.4000812,2.61104735 18.4000812,2.28749937 C18.4000812,2.05454482 18.312261,1.8752068 18.1366207,1.7494853 C17.9609803,1.6237638 17.7261769,1.56090305 17.4322105,1.56090305 C16.9441153,1.56090305 16.5392181,1.73377011 16.2175189,2.07950424 C15.8958198,2.42523836 15.7349702,2.85047285 15.7349702,3.3552077 C15.7349702,4.21307206 16.1176813,4.64200424 16.8831034,4.64200424 Z M16.8969697,2.89484515 C16.7065386,2.89484515 16.5410669,2.86341477 16.4005547,2.80055402 C16.5928346,2.26993533 16.9284001,2.00462599 17.4072511,2.00462599 C17.7215548,2.00462599 17.8787067,2.11832999 17.8787067,2.345738 C17.8787067,2.52507603 17.7871889,2.66142839 17.6041531,2.75479509 C17.4211174,2.84816179 17.1853896,2.89484515 16.8969697,2.89484515 Z M19.6601434,4.63923097 C20.0317614,4.63923097 20.3248034,4.50796293 20.5392695,4.24542686 L20.5392695,4.24542686 L20.4754843,4.58653887 L20.9968588,4.58653887 L21.7206818,0.398903587 L21.2187202,0.398903587 L20.9386201,1.9158814 C20.7888636,1.68292686 20.5734731,1.56644958 20.2924486,1.56644958 C19.808051,1.56644958 19.4105492,1.75087193 19.0999432,2.11971663 C18.7893371,2.48856132 18.6340341,2.96232801 18.6340341,3.54101668 C18.6340341,3.87935543 18.7246275,4.14697583 18.9058144,4.34387788 C19.0870013,4.54077994 19.3384443,4.63923097 19.6601434,4.63923097 Z M19.8487256,4.21214763 C19.4179446,4.21214763 19.2025541,3.95053598 19.2025541,3.42731268 C19.2025541,3.01317126 19.3102494,2.67344588 19.5256399,2.40813654 C19.7410304,2.1428272 20.0123485,2.01017253 20.3395942,2.01017253 C20.4227922,2.01017253 20.5018304,2.03466973 20.5767086,2.08366414 C20.6515869,2.13265855 20.715372,2.20014141 20.7680641,2.28611273 C20.8207562,2.37208405 20.8452534,2.42338952 20.8415557,2.44002913 L20.8415557,2.44002913 L20.7195319,3.18326506 C20.6696131,3.48647574 20.5605312,3.73375884 20.3922863,3.92511436 C20.2240413,4.11646987 20.0428544,4.21214763 19.8487256,4.21214763 Z M23.5225298,4.64200424 L23.8026299,4.30089222 C23.920956,4.52830023 24.1308,4.64200424 24.4321618,4.64200424 C24.909164,4.64200424 25.309439,4.46266621 25.632987,4.10399017 C25.956535,3.74531412 26.118309,3.33209713 26.118309,2.86433919 C26.118309,2.46683739 26.0143114,2.15022258 25.8063163,1.91449477 C25.5983212,1.67876695 25.3353229,1.56090305 25.0173214,1.56090305 C24.6623431,1.56090305 24.4155222,1.68385128 24.2768588,1.92974774 L24.2768588,1.92974774 L24.5236797,0.398903587 L24.0133983,0.398903587 L23.4809307,3.43563248 C23.3977327,3.89414619 23.2960462,4.29627011 23.1758712,4.64200424 L23.1758712,4.64200424 L23.5225298,4.64200424 Z M24.4155222,4.20937437 C24.334173,4.20937437 24.253286,4.18718822 24.1728612,4.14281592 C24.0924364,4.09844363 24.0300379,4.04482711 23.9856656,3.98196636 C23.9412933,3.91910561 23.920956,3.87750658 23.9246537,3.85716928 L23.9246537,3.85716928 L24.2019805,2.41229644 C24.3554347,2.14051614 24.537546,2.00462599 24.7483144,2.00462599 C25.2807819,2.00462599 25.5470157,2.30598782 25.5470157,2.90871149 C25.5470157,3.22116639 25.4370094,3.51605727 25.2169968,3.79338411 C24.9969841,4.07071095 24.7298259,4.20937437 24.4155222,4.20937437 Z M26.260744,5.7513116 C26.6915251,5.7513116 27.0113754,5.686602 27.2202949,5.55718281 C27.4292145,5.42776362 27.596535,5.22254175 27.7222565,4.94151722 L27.7222565,4.94151722 L29.2115016,1.61636841 L28.6124756,1.61636841 L27.541994,4.09012382 C27.4218191,4.09012382 27.3460164,3.9838152 27.314586,3.77119796 L27.314586,3.77119796 L26.9873404,1.61636841 L26.4132738,1.61636841 L26.7848918,3.8294366 C26.8699387,4.34341567 27.0428057,4.60040521 27.303493,4.60040521 C27.2406322,4.80747592 27.1370969,4.96277895 26.9928869,5.0663143 C26.8486769,5.16984965 26.6046293,5.22161733 26.260744,5.22161733 L26.260744,5.22161733 L26.260744,5.7513116 Z" id="poweredby"></path>
            </g>
            <g id="RC-logo-color-Copy" transform="translate(86.186526, 26.672186)" fill-rule="nonzero">
                <path d="M4.03107417,6.79134827 L3.42303505,10.4239299 L0,10.4239299 L1.8015974,0 L6.71095026,0 C7.47662918,0 8.10718824,0.0451252375 8.64766747,0.135375713 C9.16562674,0.225626188 9.59350611,0.361001901 9.93130566,0.564065469 C10.2691051,0.74456642 10.4943048,0.992755229 10.6519446,1.26350665 C10.8095844,1.53425808 10.8771442,1.87269736 10.8771442,2.25626188 C10.8771442,2.45932545 10.8546243,2.68495164 10.8095844,2.95570306 C10.6969845,3.54233115 10.4717848,4.08383401 10.1114654,4.557649 C9.75114588,5.03146399 9.25570663,5.34734063 8.62514751,5.50527901 C8.82782725,5.57296684 9.03050693,5.66321733 9.18814669,5.75346777 C9.36830647,5.84371827 9.50342622,5.93396876 9.61602607,6.06934448 C9.72862592,6.20472019 9.81870581,6.34009591 9.88626568,6.54315945 C9.95382562,6.72366039 9.97634557,6.97184921 9.97634557,7.24260064 C9.97634557,7.53591467 9.93130566,7.8969166 9.88626568,8.28048108 C9.81870581,8.641483 9.77366584,8.95735965 9.72862592,9.18298586 C9.683586,9.43117468 9.66106604,9.61167561 9.66106604,9.74705133 C9.66106604,9.97267754 9.75114588,10.0854906 9.90878564,10.0854906 L9.90878564,10.4239299 L6.44071071,10.4239299 C6.41819069,10.3336794 6.41819069,10.2208663 6.41819069,10.0854906 C6.41819069,9.92755226 6.44071071,9.70192611 6.46323066,9.45373729 C6.48575062,9.20554847 6.53079054,8.91223443 6.57583051,8.59635778 C6.64339039,8.28048108 6.66591035,8.00972965 6.66591035,7.78410349 C6.66591035,7.42310157 6.5533105,7.15235014 6.32811086,7.01697443 C6.10291116,6.8590361 5.67503178,6.79134827 5.08951264,6.79134827 L4.03107417,6.79134827 L4.03107417,6.79134827 Z M4.43643358,4.51252376 L5.78763163,4.51252376 C6.3055909,4.51252376 6.73347028,4.4448359 7.02622985,4.28689757 C7.31898942,4.15152186 7.49914914,3.88077043 7.56670907,3.51976853 C7.56670907,3.4746433 7.58922903,3.40695544 7.58922903,3.29414234 C7.58922903,3.0008283 7.47662918,2.77520211 7.25142949,2.6398264 C7.02622985,2.50445069 6.73347028,2.43676283 6.39567073,2.43676283 L4.79675306,2.43676283 L4.43643358,4.51252376 Z" id="Shape" fill="#0073AE"></path>
                <path d="M15.8073966,2.94196363 L18.5289318,2.94196363 L18.3265036,4.12215473 C18.7538521,3.65453184 19.1812006,3.32051549 19.6085491,3.07557017 C20.0358976,2.8528926 20.5532143,2.71928606 21.115515,2.71928606 C21.970212,2.71928606 22.5774967,2.91969587 22.9823532,3.29824774 C23.3872097,3.6767996 23.5671459,4.25576127 23.5671459,4.99059725 C23.5671459,5.28007808 23.5446538,5.59182669 23.4771778,5.92584302 L22.7124488,10.4239299 L19.7210093,10.4239299 L20.4182621,6.46026919 C20.4407541,6.28212715 20.4632462,6.12625286 20.4632462,5.97037857 C20.4632462,5.70316549 20.39577,5.50275564 20.28331,5.3246136 C20.1708498,5.14647154 19.9459295,5.05740052 19.6085491,5.05740052 C19.1587086,5.05740052 18.7988362,5.19100706 18.5964079,5.45822015 C18.3939797,5.72543323 18.2365355,6.10398506 18.1690594,6.59387573 L17.4942986,10.4016622 L14.502859,10.4016622 L15.8073966,2.94196363 Z" id="Path" fill="#0073AE"></path>
                <path d="M26.0696773,10.9677871 L26.0696773,11.0131086 C26.0696773,11.1264121 26.1134661,11.217055 26.2010437,11.3076979 C26.3105158,11.4436622 26.5075655,11.4889836 26.8140873,11.4889836 C27.2300811,11.4889836 27.5584973,11.37568 27.7774414,11.1490728 C27.9963856,10.9224657 28.1496465,10.5372335 28.2372241,9.99337625 L28.3466962,9.3588762 C28.1058577,9.58548334 27.7993358,9.76676911 27.4490253,9.94805483 C27.0987146,10.1066798 26.638932,10.1973227 26.1134661,10.1973227 C25.6755778,10.1973227 25.2814784,10.1293406 24.9530622,9.97071554 C24.624646,9.83475124 24.3400186,9.63080481 24.1210745,9.38153691 C23.9021304,9.132269 23.7269751,8.83767969 23.617503,8.47510819 C23.508031,8.13519746 23.4423477,7.74996525 23.4423477,7.3647331 C23.4423477,7.2287688 23.4423477,7.1154652 23.4642421,6.97950089 C23.4861366,6.84353659 23.4861366,6.73023299 23.508031,6.59426869 C23.5737142,6.11839365 23.7269751,5.66517926 23.9021304,5.18930423 C24.0991801,4.71342917 24.3400186,4.30553626 24.6684348,3.94296479 C24.996851,3.58039332 25.369056,3.28580399 25.8288387,3.05919682 C26.2886214,2.83258965 26.8140873,2.71928606 27.4271309,2.71928606 C27.8869135,2.71928606 28.2810129,2.83258965 28.6313235,3.05919682 C28.9816342,3.28580399 29.2662615,3.58039332 29.4633112,3.94296479 L29.6165721,2.94589323 L32.1782184,2.94589323 L31.149181,9.08694759 C31.0616034,9.65346552 30.9302369,10.1973227 30.7988704,10.6731978 C30.6456095,11.1717336 30.4266654,11.6022872 30.0982492,11.9648586 C29.769833,12.3274301 29.3538392,12.6220195 28.7845844,12.8259659 C28.2372241,13.0299124 27.4928141,13.143216 26.5951431,13.143216 C25.9602052,13.143216 25.4128449,13.0752338 24.9749566,12.9619302 C24.5370683,12.8486266 24.1867578,12.6900016 23.9021304,12.5087159 C23.6393974,12.3047694 23.4423477,12.1008229 23.3109812,11.8288943 C23.1796147,11.5796265 23.1139315,11.3076979 23.1139315,11.0357693 L23.1139315,10.9451264 L26.0696773,10.9451264 L26.0696773,10.9677871 Z M27.7993358,4.89471491 C27.5803917,4.89471491 27.4052364,4.94003634 27.2300811,5.03067921 C27.0768202,5.12132208 26.9454538,5.23462566 26.8140873,5.39325068 C26.7046152,5.55187571 26.6170376,5.73316144 26.5513543,5.93710787 C26.4856711,6.14105436 26.4199878,6.39032226 26.3980934,6.6169294 C26.3980934,6.68491158 26.376199,6.7528937 26.376199,6.79821517 C26.376199,6.8661973 26.376199,6.91151871 26.376199,6.97950089 C26.376199,7.27409021 26.4418822,7.54601882 26.5951431,7.77262596 C26.7484041,7.99923315 26.9673482,8.11253675 27.2957644,8.11253675 L27.3614476,8.11253675 C27.5584973,8.11253675 27.755547,8.06721533 27.9088079,7.97657244 C28.0620688,7.88592955 28.2153297,7.77262596 28.3248018,7.63666165 C28.4342738,7.5006974 28.5437459,7.31941163 28.6094291,7.13812591 C28.6751124,6.95684019 28.7407956,6.7528937 28.7845844,6.54894727 C28.8064789,6.39032226 28.8283733,6.23169725 28.8283733,6.07307218 C28.8283733,5.75582215 28.76269,5.48389355 28.6094291,5.25728638 C28.4561682,5.03067921 28.1934353,4.91737563 27.8212302,4.91737563 L27.7993358,4.91737563 L27.7993358,4.89471491 Z" id="Shape" fill="#0073AE"></path>
                <path d="M39.1643517,4.01968539 C39.1643517,3.97426521 39.1643517,3.95155513 39.1643517,3.92884504 C39.1643517,3.90613495 39.1643517,3.86071478 39.1643517,3.83800469 C39.1643517,3.38380295 39.0317036,3.02044156 38.7885154,2.7706306 C38.5232192,2.52081965 38.1694909,2.40726921 37.7052226,2.40726921 C37.1304142,2.40726921 36.6661458,2.65708017 36.2682015,3.133992 C35.8702572,3.61090382 35.604961,4.3376266 35.4280969,5.29145023 C35.3838808,5.47313096 35.3617728,5.65481164 35.3396648,5.81378224 C35.3175568,5.97275284 35.3175568,6.15443358 35.3175568,6.31340418 C35.3175568,6.56321509 35.3396648,6.76760591 35.3838808,6.97199666 C35.4280969,7.17638748 35.5165289,7.35806815 35.649177,7.49432868 C35.7597171,7.65329928 35.9365812,7.76684972 36.1355534,7.85769009 C36.3345255,7.9485304 36.5777137,7.99395062 36.887226,7.99395062 C37.3957104,7.99395062 37.8157627,7.83498001 38.1252749,7.51703876 C38.4347871,7.19909755 38.6558673,6.79031598 38.8106234,6.31340418 L41.8615297,6.31340418 C41.6846656,6.94928658 41.4193694,7.53974883 41.0877492,8.03937077 C40.7561289,8.53899271 40.3581846,8.97048436 39.8939163,9.33384572 C39.4296479,9.69720713 38.9211635,9.9470181 38.3463551,10.1514089 C37.7715467,10.3330895 37.1746302,10.4239299 36.5334977,10.4239299 C35.8260411,10.4239299 35.2291247,10.3330895 34.6764243,10.1514089 C34.1458319,9.96972818 33.6815635,9.69720713 33.3057272,9.35655579 C32.9298909,9.01590451 32.6424867,8.58441286 32.4656226,8.08479093 C32.2666504,7.58516905 32.1782184,7.01741687 32.1782184,6.38153441 C32.1782184,6.19985373 32.1782184,6.01817305 32.2003264,5.81378224 C32.2224344,5.60939148 32.2445424,5.40500067 32.2887585,5.2006099 C32.4214066,4.40575686 32.6645947,3.67903408 33.018323,3.04315165 C33.3720513,2.40726921 33.8142116,1.86222713 34.322696,1.40802539 C34.8311804,0.953823651 35.4059888,0.613172348 36.0250133,0.36336139 C36.6661458,0.113550435 37.3072783,0 37.9705188,0 C39.3633238,0 40.4245087,0.317941218 41.1098572,0.953823651 C41.7952057,1.58970608 42.148934,2.47539947 42.148934,3.63361391 L42.148934,3.8152946 C42.148934,3.88342486 42.148934,3.95155513 42.1268259,4.01968539 L39.1643517,4.01968539 Z" id="Path" fill="#FF8800"></path>
                <path d="M45.4798281,7.05537609 C45.4798281,7.10120674 45.4578611,7.14703744 45.4578611,7.19286808 C45.4578611,7.23869873 45.4578611,7.28452943 45.4578611,7.33036008 C45.4578611,7.69700541 45.5676963,7.99490472 45.8093335,8.22405801 C46.0509707,8.45321135 46.336542,8.5448727 46.6880143,8.5448727 C46.9296516,8.5448727 47.1493218,8.49904199 47.368992,8.38446532 C47.5886623,8.26988871 47.7643984,8.10948134 47.8962006,7.88032805 L50.7079794,7.88032805 C50.5102761,8.36155 50.2247049,8.75111066 49.8951996,9.09484061 C49.5656942,9.4156553 49.1922548,9.69063929 48.7968485,9.87396193 C48.4014421,10.0801999 47.9621016,10.2176919 47.5227612,10.3093532 C47.0834207,10.4010146 46.6440803,10.4239299 46.2047399,10.4239299 C45.6775314,10.4239299 45.1942569,10.3551839 44.7549164,10.2176919 C44.315576,10.0801999 43.9421366,9.87396193 43.6126313,9.59897794 C43.283126,9.32399395 43.0414887,8.980264 42.8657526,8.59070334 C42.6900164,8.20114268 42.6021483,7.74283606 42.6021483,7.21578341 C42.6021483,7.07829141 42.6021483,6.96371474 42.6241153,6.82622275 C42.6460823,6.68873075 42.6460823,6.55123876 42.6680494,6.41374682 C42.7778845,5.79503282 42.9755877,5.22214954 43.283126,4.6950969 C43.5906643,4.1909596 43.9421366,3.75556829 44.3814771,3.38892298 C44.8208175,3.02227767 45.304092,2.74729369 45.8532675,2.56397103 C46.4024431,2.35773304 46.9516186,2.26607172 47.5447282,2.26607172 C48.1378378,2.26607172 48.6650463,2.35773304 49.1263538,2.5410557 C49.5876612,2.72437836 49.9611006,2.95353167 50.2686389,3.27434632 C50.5761772,3.59516097 50.8178144,3.96180628 50.9715836,4.42011292 C51.1253528,4.87841956 51.2132208,5.35964152 51.2132208,5.9096095 C51.2132208,6.25333945 51.1692868,6.61998479 51.1033857,7.03246077 L45.4798281,7.03246077 L45.4798281,7.05537609 Z M48.379475,5.49713352 C48.379475,5.45130287 48.4014421,5.38255684 48.4014421,5.26798017 C48.4014421,4.94716555 48.291607,4.6950969 48.0939037,4.46594358 C47.8962006,4.2597056 47.6325963,4.14512894 47.325058,4.14512894 C46.8857176,4.14512894 46.5342452,4.2597056 46.2486739,4.51177425 C45.9850697,4.7638429 45.8093335,5.08465755 45.7214654,5.49713352 L48.379475,5.49713352 L48.379475,5.49713352 Z" id="Shape" fill="#FF8800"></path>
                <path d="M52.4952663,2.94196363 L55.2392934,2.94196363 L55.0368654,4.12215473 C55.4642141,3.65453184 55.8915623,3.32051549 56.318911,3.07557017 C56.7462592,2.8528926 57.2635761,2.71928606 57.8258768,2.71928606 C58.6805737,2.71928606 59.2878583,2.91969587 59.6927148,3.29824774 C60.0975713,3.6767996 60.2775077,4.25576127 60.2775077,4.99059725 C60.2775077,5.28007808 60.2550155,5.59182669 60.1875395,5.92584302 L59.4228108,10.4239299 L56.4313708,10.4239299 L57.1286241,6.46026919 C57.1511157,6.28212715 57.1736079,6.12625286 57.1736079,5.97037857 C57.1736079,5.70316549 57.1061319,5.50275564 56.9936716,5.3246136 C56.8812117,5.14647154 56.656291,5.05740052 56.318911,5.05740052 C55.8690701,5.05740052 55.5091979,5.19100706 55.3067699,5.45822015 C55.1043414,5.72543323 54.9468972,6.10398506 54.8794212,6.59387573 L54.2046604,10.4239299 L51.2132208,10.4239299 L52.4952663,2.94196363 Z" id="Path" fill="#FF8800"></path>
                <path d="M64.8167046,10.3565602 C64.4728265,10.3790168 64.1518731,10.4014733 63.87677,10.4014733 C63.5787421,10.4014733 63.3265644,10.4239299 63.0743867,10.4239299 C62.6158821,10.4239299 62.2261531,10.4014733 61.9051992,10.3565602 C61.5842459,10.3116471 61.3320687,10.2442774 61.1486667,10.1319945 C60.9652646,10.0197117 60.8277133,9.8849723 60.7589377,9.68286322 C60.6901621,9.50321065 60.6443113,9.27864502 60.6443113,8.98670966 C60.6443113,8.80705709 60.6672367,8.62740457 60.6901621,8.40283888 C60.7130869,8.17827325 60.7589377,7.95370757 60.8047879,7.68422876 L61.3549936,4.54030946 L60.2775077,4.54030946 L60.5755356,2.81115383 L61.6988723,2.81115383 L62.1344521,0.453214344 L65.137658,0.453214344 L64.7020788,2.81115383 L66.1692942,2.81115383 L65.8712657,4.54030946 L64.4040508,4.54030946 L63.9226208,7.28001056 C63.8996954,7.36983684 63.8996954,7.43720652 63.87677,7.50457625 C63.87677,7.57194592 63.8538446,7.63931565 63.8538446,7.70668532 C63.8538446,7.88633789 63.9226208,8.02107729 64.0372467,8.08844697 C64.1518731,8.15581669 64.3811254,8.20072981 64.7020788,8.20072981 L65.1835088,8.20072981 L64.8167046,10.3565602 Z" id="Path" fill="#FF8800"></path>
                <path d="M66.5459724,2.94196363 L69.2697609,2.94196363 L68.9996329,4.45617108 L69.0221437,4.45617108 C69.629931,3.29824774 70.5078462,2.71928606 71.6558895,2.71928606 C71.7234213,2.71928606 71.7909532,2.71928606 71.8584851,2.74155381 C71.9260169,2.74155381 71.9935488,2.76382157 72.0610806,2.76382157 L71.543336,5.74770098 C71.4532934,5.72543323 71.3407404,5.70316549 71.2506978,5.68089768 C71.1381443,5.65862993 71.0481017,5.65862993 70.9355487,5.65862993 C70.3277609,5.65862993 69.8325271,5.81450422 69.4723565,6.14852061 C69.1121864,6.48253694 68.8645692,7.03923085 68.7069947,7.84087011 L68.2567814,10.4239299 L65.2628655,10.4239299 L66.5459724,2.94196363 Z" id="Path" fill="#FF8800"></path>
                <path d="M76.2910814,10.4043075 L76.2694996,9.40850189 C75.7947035,9.79816496 75.3414892,10.0579403 74.8882749,10.187828 C74.4350606,10.3177157 73.9386832,10.3826596 73.3775605,10.3826596 C73.0754176,10.3826596 72.7732747,10.3393636 72.5142949,10.2744198 C72.2337338,10.209476 71.9963357,10.1012363 71.8021013,9.94970064 C71.6078663,9.79816496 71.4352136,9.62498139 71.3273052,9.40850189 C71.1978155,9.19202245 71.1546519,8.93224707 71.1546519,8.62917581 C71.1546519,8.49928813 71.1762337,8.3477525 71.1978155,8.19621682 C71.2841421,7.65501813 71.4999584,7.22205918 71.8021013,6.91898793 C72.1042441,6.61591667 72.4711318,6.37778924 72.8811831,6.22625361 C73.2912339,6.07471798 73.7228664,5.96647823 74.1760807,5.90153436 C74.6292956,5.83659054 75.0609281,5.79329466 75.4493976,5.72835079 C75.8378671,5.68505492 76.183173,5.62011105 76.4421528,5.5118713 C76.7227139,5.42527953 76.8737854,5.2737439 76.8953671,5.03561647 C76.8953671,5.01396852 76.8953671,4.99232057 76.8953671,4.99232057 C76.8953671,4.97067262 76.8953671,4.97067262 76.8953671,4.94902468 C76.8953671,4.84078494 76.8522036,4.75419315 76.8090405,4.68924931 C76.7442957,4.62430546 76.6579691,4.58100957 76.5716425,4.53771367 C76.4853159,4.51606573 76.3989893,4.47276983 76.2910814,4.47276983 C76.183173,4.45112188 76.0968464,4.45112188 76.0321015,4.45112188 C75.9241932,4.45112188 75.8162853,4.45112188 75.7083769,4.47276983 C75.600469,4.49441778 75.4925606,4.51606573 75.3846528,4.58100957 C75.2767444,4.62430546 75.1904177,4.71089725 75.1040911,4.79748905 C75.0177645,4.88408084 74.9530197,5.01396852 74.9098567,5.16550416 L72.1474072,5.16550416 C72.212152,4.7758411 72.3416422,4.42947393 72.5358767,4.12640267 C72.7301112,3.8233314 73.0106728,3.56355602 73.3559787,3.36872449 C73.7228664,3.15224502 74.1544995,3.00070938 74.6724586,2.89246964 C75.1904177,2.78422991 75.8162853,2.71928606 76.5284794,2.71928606 C77.1759282,2.71928606 77.7154692,2.76258196 78.1471017,2.84917375 C78.557153,2.93576554 78.9024589,3.06565323 79.1398569,3.23883681 C79.377255,3.41202039 79.5499082,3.60685192 79.6362348,3.84497935 C79.7225614,4.08310677 79.7657245,4.34288214 79.7657245,4.62430546 C79.7657245,4.79748905 79.7441427,4.97067262 79.7225614,5.16550416 C79.7009796,5.36033568 79.6793979,5.55516723 79.6362348,5.74999873 L79.0535303,9.14872657 C79.0319491,9.3002622 79.0103673,9.43014988 79.0103673,9.53838958 C79.0103673,9.64662933 79.0319491,9.73322114 79.0751121,9.81981295 C79.1182751,9.90640471 79.1830205,9.99299652 79.2909284,10.1012363 L79.2909284,10.4692513 L76.2910814,10.4692513 L76.2910814,10.4043075 Z M74.9530197,8.7590635 C75.1904177,8.7590635 75.4278158,8.71576757 75.600469,8.62917581 C75.7947035,8.542584 75.9457749,8.41269632 76.0752646,8.23951275 C76.2047548,8.08797712 76.3126626,7.89314556 76.377408,7.67666612 C76.4421528,7.46018662 76.5068976,7.22205918 76.5284794,6.98393175 C76.2694996,7.09217149 76.0105198,7.1787633 75.7515405,7.22205918 C75.4925606,7.26535511 75.2335813,7.33029893 75.0177645,7.39524275 C74.8019483,7.46018662 74.586132,7.54677843 74.4350606,7.65501813 C74.2624073,7.76325788 74.1760807,7.93644149 74.1329177,8.17456888 L74.1329177,8.21786481 C74.1329177,8.36940044 74.1976625,8.49928813 74.3271522,8.60752788 C74.4782236,8.69411963 74.6940404,8.7590635 74.9530197,8.7590635" id="Shape" fill="#FF8800"></path>
                <polygon id="Path" fill="#FF8800" points="79.7657245 10.4239299 81.6381593 0 84.7510823 0 82.8786475 10.4239299"></polygon>
                <polygon id="Path" fill="#0073AE" points="10.4239299 10.4239299 12.0259899 4.53214344 14.0496447 4.53214344 13.2275349 10.4239299"></polygon>
                <path d="M15.2210414,1.55914339 C15.2210414,1.55914339 15.2210414,1.55914339 15.2210414,1.55914339 C15.1994899,1.53607848 15.1994899,1.51301357 15.1779384,1.48994867 C15.1348353,1.42075395 15.0701807,1.35155922 14.9624231,1.25929959 C14.7684593,1.07478033 14.4236349,0.844131254 13.9063983,0.75187162 C13.64778,0.705741805 13.4322647,0.705741805 13.238301,0.72880671 C12.7641674,0.774936529 12.4839975,0.982520696 12.3977914,1.07478033 C12.3546884,1.09784523 12.3546884,1.09784523 12.3546884,1.09784523 C12.2253792,1.23623468 12.009864,1.23623468 11.8805548,1.09784523 C11.7512456,0.959455792 11.7512456,0.72880671 11.8805548,0.590417267 C11.9236578,0.544287453 12.3546884,0.106054203 13.1736464,0.0137945726 C13.4322647,-0.00927033507 13.7124346,-0.00927033507 14.0357074,0.0599243879 C15.3503506,0.313638373 15.8029326,1.21316977 15.8244841,1.2823645 C15.9106902,1.46688376 15.8460357,1.67446793 15.6736234,1.76672756 C15.6305204,1.78979247 15.5874174,1.78979247 15.5658658,1.81285737 C15.4150051,1.76672756 15.2856959,1.69753284 15.2210414,1.55914339" id="Path" fill="#FF8800"></path>
                <path d="M14.4273862,2.56164805 C14.4273862,2.56164805 14.4273862,2.56164805 14.4047443,2.53642598 C14.3821024,2.51120389 14.3368188,2.46075973 14.2915351,2.38509349 C14.1783258,2.28420517 13.9971911,2.13287268 13.6802051,2.08242852 C13.5217122,2.05720644 13.3858611,2.05720644 13.2726518,2.05720644 C13.0009496,2.08242852 12.8424567,2.20853893 12.7745312,2.25898309 C12.7518893,2.25898309 12.7518893,2.25898309 12.7518893,2.25898309 C12.6386801,2.38509349 12.4575453,2.38509349 12.3216942,2.25898309 C12.208485,2.13287268 12.208485,1.93109604 12.3216942,1.77976356 C12.3443361,1.75454147 12.6386801,1.45187651 13.1820845,1.37621026 C13.3405774,1.35098818 13.544354,1.35098818 13.7481307,1.40143234 L13.7481307,1.40143234 C14.608521,1.57798691 14.9255068,2.18331684 14.9255068,2.23376101 C14.9934324,2.38509349 14.9481487,2.58687014 14.7896557,2.68775846 C14.7670139,2.71298054 14.7217302,2.71298054 14.6764465,2.71298054 C14.5858791,2.73820262 14.4726699,2.68775846 14.4273862,2.56164805" id="Path" fill="#FF8800"></path>
                <path d="M14.0487559,3.39910758 C14.0487559,3.77418152 13.7490306,4.07892909 13.3693787,4.07892909 C12.9897268,4.07892909 12.6900016,3.77418152 12.6900016,3.39910758 C12.6900016,3.02403364 12.9897268,2.71928606 13.3693787,2.71928606 C13.7490306,2.71928606 14.0687375,3.02403364 14.0487559,3.39910758" id="Path" fill="#FF8800"></path>
            </g>
            <path d="M3.36785714,19.572619 L3.36785714,12.3732143 L6.49166667,12.3732143 L10.1035714,19.572619 L14.0571429,19.572619 L9.5422619,11.7142857 C11.6654762,11.2017857 12.8369048,9.44464286 12.8369048,6.76011905 C12.8369048,3.00178571 10.7625,1.26904762 6.4672619,1.26904762 L-1.00890917e-14,1.26904762 L-1.00890917e-14,19.572619 L3.36785714,19.572619 Z M6.39404762,9.76190476 L3.36785714,9.76190476 L3.36785714,4.14880952 L6.49166667,4.14880952 C8.5172619,4.14880952 9.34702381,4.85654762 9.34702381,6.88214286 C9.34702381,9.07857143 8.46845238,9.76190476 6.39404762,9.76190476 Z M19.5437771,19.8166667 C21.3009199,19.8166667 22.7896104,19.1333333 23.6925866,17.9863095 L23.7658009,18.0107143 L24.0342532,19.572619 L26.4015152,19.572619 L26.4015152,10.3232143 C26.4015152,6.36964286 24.9128247,4.6125 20.8128247,4.6125 C18.9824675,4.6125 17.3473485,4.9297619 15.9074675,5.56428571 L16.1759199,8.12678571 C17.5181818,7.54107143 18.6652056,7.29702381 20.2515152,7.29702381 C22.4479437,7.29702381 23.3265152,8.02916667 23.3265152,9.85952381 L23.3265152,10.9577381 C22.4967532,10.6892857 21.4229437,10.4940476 20.2759199,10.4940476 C16.8592532,10.4940476 15.0044913,12.2755952 15.0044913,15.0333333 C15.0044913,18.3035714 16.8104437,19.8166667 19.5437771,19.8166667 Z M20.3979437,17.3029762 C18.9580628,17.3029762 17.9330628,16.6928571 17.9330628,14.9845238 C17.9330628,13.4958333 18.836039,12.6904762 20.8372294,12.6904762 C22.0574675,12.6904762 22.9604437,12.9345238 23.3265152,13.1053571 L23.3265152,15.2529762 C23.3265152,16.3267857 21.9354437,17.3029762 20.3979437,17.3029762 Z M30.7721861,2.92857143 C32.0412338,2.92857143 32.6269481,2.46488095 32.6269481,1.48869048 C32.6269481,0.536904762 32.0412338,-1.76559104e-14 30.7721861,-1.76559104e-14 C29.5275433,-1.76559104e-14 28.9174242,0.536904762 28.9174242,1.48869048 C28.9174242,2.5625 29.5275433,2.92857143 30.7721861,2.92857143 Z M32.3340909,19.572619 L32.3340909,4.8077381 L29.1858766,4.97857143 L29.1858766,19.572619 L32.3340909,19.572619 Z M38.5706169,19.572619 L38.5706169,8.78571429 C39.1807359,7.93154762 40.400974,7.44345238 41.4991883,7.44345238 C43.3051407,7.44345238 44.3057359,8.22440476 44.3057359,10.0791667 L44.3057359,19.572619 L47.4051407,19.572619 L47.4051407,10.0547619 C47.4051407,6.49166667 45.4527597,4.6125 42.353355,4.6125 C40.7670455,4.6125 39.278355,5.17380952 38.1801407,6.19880952 L37.6920455,4.78333333 L35.4712121,4.95416667 L35.4712121,19.572619 L38.5706169,19.572619 Z M56.7920996,19.8654762 C60.5016234,19.8654762 62.6980519,17.6446429 62.6980519,12.202381 C62.6980519,6.73571429 60.5504329,4.63690476 57.158171,4.63690476 C55.6938853,4.63690476 54.3028139,5.10059524 53.2778139,6.10119048 L53.2045996,6.05238095 L53.2534091,4.1 L53.2534091,0.292857143 L50.1540043,0.463690476 L50.1540043,19.572619 L52.2528139,19.572619 L52.6920996,18.2303571 C53.6194805,19.2065476 55.0593615,19.8654762 56.7920996,19.8654762 Z M56.3040043,17.3029762 C54.7909091,17.3029762 53.7659091,16.6196429 53.2534091,15.8142857 L53.2534091,8.85892857 C53.8879329,7.95595238 54.9617424,7.41904762 56.2795996,7.41904762 C58.3540043,7.41904762 59.5254329,8.24880952 59.5254329,12.2511905 C59.5254329,16.3755952 58.28079,17.3029762 56.3040043,17.3029762 Z M71.2863095,19.9142857 C75.85,19.9142857 77.802381,17.7178571 77.802381,12.2755952 C77.802381,6.8577381 75.85,4.6125 71.2863095,4.6125 C66.7470238,4.6125 64.6970238,6.8577381 64.6970238,12.2755952 C64.6970238,17.7178571 66.7470238,19.9142857 71.2863095,19.9142857 Z M71.2863095,17.3029762 C68.8702381,17.3029762 67.9184524,16.1315476 67.9184524,12.2755952 C67.9184524,8.41964286 68.8458333,7.24821429 71.2863095,7.24821429 C73.702381,7.24821429 74.6053571,8.41964286 74.6053571,12.2755952 C74.6053571,16.1315476 73.702381,17.3029762 71.2863095,17.3029762 Z M86.1443723,19.572619 L88.2431818,10.1035714 L88.633658,8.15119048 L88.7068723,8.15119048 L89.0729437,10.1035714 L91.0741342,19.572619 L94.9300866,19.572619 L98.3223485,4.88095238 L95.296158,4.88095238 L93.3193723,15.1309524 L93.0021104,17.0833333 L92.9288961,17.0833333 L92.5384199,15.1553571 L90.2443723,4.88095238 L86.9741342,4.88095238 L84.7288961,15.1065476 L84.3628247,17.0345238 L84.2896104,17.0345238 L83.923539,15.1065476 L81.873539,4.88095238 L78.7497294,4.88095238 L82.3372294,19.572619 L86.1443723,19.572619 Z M114.032359,19.9142857 C119.62105,19.9142857 121.841883,17.1077381 121.841883,10.4208333 C121.841883,3.83154762 119.62105,0.976190476 114.032359,0.976190476 C108.419264,0.976190476 106.174026,3.83154762 106.174026,10.4208333 C106.174026,17.010119 108.492478,19.9142857 114.032359,19.9142857 Z M114.032359,16.814881 C110.884145,16.814881 109.712716,15.472619 109.712716,10.4208333 C109.712716,5.36904762 110.884145,4.07559524 114.007955,4.07559524 C117.204978,4.07559524 118.327597,5.34464286 118.327597,10.4208333 C118.327597,15.4482143 117.180574,16.814881 114.032359,16.814881 Z M128.302489,19.572619 L128.302489,7.24821429 L131.719156,7.24821429 L131.719156,4.88095238 L128.302489,4.88095238 L128.302489,4.31964286 C128.302489,3.075 128.985823,2.31845238 130.718561,2.31845238 C131.255465,2.31845238 131.767965,2.39166667 132.207251,2.48928571 L132.402489,0.439285714 C131.816775,0.244047619 130.938203,0.0976190476 130.132846,0.0976190476 C126.66737,0.0976190476 125.17868,1.92797619 125.17868,4.24642857 L125.17868,4.88095238 L123.201894,4.88095238 L123.201894,7.24821429 L125.203084,7.24821429 L125.203084,19.572619 L128.302489,19.572619 Z M136.429275,19.572619 L136.429275,7.24821429 L139.845942,7.24821429 L139.845942,4.88095238 L136.429275,4.88095238 L136.429275,4.31964286 C136.429275,3.075 137.112608,2.31845238 138.845346,2.31845238 C139.382251,2.31845238 139.894751,2.39166667 140.334037,2.48928571 L140.529275,0.439285714 C139.943561,0.244047619 139.064989,0.0976190476 138.259632,0.0976190476 C134.794156,0.0976190476 133.305465,1.92797619 133.305465,4.24642857 L133.305465,4.88095238 L131.32868,4.88095238 L131.32868,7.24821429 L133.32987,7.24821429 L133.32987,19.572619 L136.429275,19.572619 Z M143.693019,2.92857143 C144.962067,2.92857143 145.547781,2.46488095 145.547781,1.48869048 C145.547781,0.536904762 144.962067,-1.76559104e-14 143.693019,-1.76559104e-14 C142.448377,-1.76559104e-14 141.838258,0.536904762 141.838258,1.48869048 C141.838258,2.5625 142.448377,2.92857143 143.693019,2.92857143 Z M145.254924,19.572619 L145.254924,4.8077381 L142.10671,4.97857143 L142.10671,19.572619 L145.254924,19.572619 Z M153.969643,19.889881 C155.531548,19.889881 156.87381,19.5238095 157.727976,18.9625 L157.508333,16.4732143 C156.702976,16.9125 155.677976,17.1565476 154.628571,17.1565476 C152.114881,17.1565476 150.72381,15.789881 150.72381,12.202381 C150.72381,8.81011905 151.74881,7.4922619 154.701786,7.4922619 C155.629167,7.4922619 156.605357,7.71190476 157.410714,8.05357143 L157.605952,5.3202381 C156.654167,4.9297619 155.311905,4.66130952 154.042857,4.66130952 C149.479167,4.66130952 147.502381,7.29702381 147.502381,12.202381 C147.502381,17.4494048 149.723214,19.889881 153.969643,19.889881 Z M165.961255,19.8410714 C167.791613,19.8410714 169.402327,19.4505952 170.64697,18.8404762 L170.280898,16.2779762 C169.036255,16.814881 167.767208,17.0833333 166.327327,17.0833333 C163.520779,17.0833333 162.227327,16.0095238 162.080898,12.9345238 L171.013041,12.9345238 C171.061851,12.4952381 171.086255,11.9095238 171.086255,11.4458333 C171.086255,6.76011905 168.767803,4.63690476 165.155898,4.63690476 C160.90947,4.63690476 158.85947,7.29702381 158.85947,11.9583333 C158.85947,17.2297619 161.007089,19.8410714 165.961255,19.8410714 Z M168.230898,10.8357143 L162.007684,10.8357143 C162.154113,8.34642857 163.057089,7.27261905 165.180303,7.27261905 C167.01066,7.27261905 168.182089,8.24880952 168.230898,10.8357143 Z" id="RainbowOffice-Copy" fill="#6B489D" fill-rule="nonzero"></path>
        </g>
    </g>
</svg>