<?xml version="1.0" encoding="utf-8"?>
<!-- Generator: Adobe Illustrator 16.0.0, SVG Export Plug-In . SVG Version: 6.00 Build 0)  -->
<!DOCTYPE svg PUBLIC "-//W3C//DTD SVG 1.1//EN" "http://www.w3.org/Graphics/SVG/1.1/DTD/svg11.dtd">
<svg version="1.1" id="Layer_1" xmlns="http://www.w3.org/2000/svg" xmlns:xlink="http://www.w3.org/1999/xlink" x="0px" y="0px"
	 width="90px" height="16px" viewBox="12 4 90 16" enable-background="new 12 4 90 16" xml:space="preserve">
<g>
	<polygon fill="#49166D" points="61.931,8.432 61.931,6.709 55.783,6.709 55.783,15.576 61.931,15.576 61.931,13.771 58.268,13.771 
		58.268,11.811 61.314,11.811 61.314,10.085 58.268,10.085 58.268,8.432 	"/>
	<polygon fill="#49166D" points="72.776,13.826 68.934,13.826 68.934,6.709 66.41,6.709 66.41,15.576 72.776,15.576 	"/>
	<path fill="#49166D" d="M93.054,10.083c-1.696-0.379-2.292-0.422-2.292-1.104c0-0.626,0.846-0.818,1.324-0.818
		c0.785,0,1.717,0.182,2.659,0.665l0.677-1.63c-0.967-0.528-2.207-0.747-3.391-0.747c-2.349,0-3.921,0.947-3.99,2.8
		c-0.061,1.691,1.309,2.322,2.578,2.584c1.209,0.252,2.454,0.469,2.479,1.196c0.019,0.661-0.583,0.94-1.717,0.94
		c-1.051,0-2.022-0.328-3.016-0.743l-0.587,1.769c1.146,0.489,2.314,0.759,3.51,0.759c1.663,0,2.882-0.258,3.775-1.104
		c0.619-0.572,0.827-1.27,0.827-1.937C95.893,11.315,95.021,10.525,93.054,10.083L93.054,10.083z"/>
	<polygon fill="#49166D" points="52.214,8.454 52.214,6.709 44.481,6.709 44.481,8.454 47.092,8.454 47.092,15.576 49.602,15.576 
		49.602,8.454 	"/>
	<path fill="#49166D" d="M81.36,6.709v5.631c0,0.441,0,0.561-0.021,0.729c-0.082,0.539-0.604,0.854-1.43,0.863
		c-0.613-0.01-1.062-0.189-1.277-0.516c-0.104-0.167-0.159-0.459-0.159-0.929V6.709h-2.604v6.105c0,0.853,0.111,1.227,0.487,1.718
		c0.639,0.786,1.867,1.195,3.56,1.195c0.015,0,0.032,0,0.045,0c0.008,0,0.028,0,0.043,0c2.27,0,3.436-0.882,3.778-1.707
		c0.17-0.405,0.183-0.592,0.183-1.399V6.709H81.36L81.36,6.709z"/>
	<path fill="#49166D" d="M45.663,4.281L31.01,7.198v1.021l0.054-0.012c9.676-2.354,14.601-3.769,14.641-3.777
		c0.053-0.017,0.076-0.062,0.063-0.092C45.76,4.3,45.719,4.268,45.663,4.281L45.663,4.281z"/>
	<path fill="#66CC00" d="M33.367,5.097c0.224-0.15,0.292-0.054,0.224,0.106c-0.106,0.264-0.606,1.849-4.294,4.878
		c-0.957,0.788-1.646,1.231-3.031,2.052C28.535,8.954,31.846,6.081,33.367,5.097L33.367,5.097z M33.751,4.001
		c-0.717,0.042-2.028,1.096-2.755,1.721c-2.885,2.495-5.023,4.785-6.584,7.181c-3.249,1.743-7.39,3.527-11.504,4.926l-0.098,0.041
		L12.018,20l0.449-0.175c2.618-0.993,6.982-2.874,10.941-4.948c-0.224,0.587-0.333,1.142-0.333,1.635
		c0,0.378,0.06,0.727,0.186,1.033c0.251,0.625,0.74,1.106,1.417,1.377c1.015,0.396,2.397,0.406,3.975-0.067
		c4.025-1.221,8.805-4.975,9.848-5.715l0.04-0.024c0.041-0.037,0.045-0.078,0.023-0.116c-0.021-0.028-0.067-0.035-0.108-0.015
		h-0.001h0.001l-0.05,0.038c-1.12,0.663-6.542,3.886-10.072,4.835c-1.79,0.479-3.165,0.213-3.678-0.509
		c-0.179-0.246-0.265-0.552-0.265-0.924c0-0.712,0.331-1.612,0.979-2.611c0.589-0.341,1.146-0.673,1.643-0.991
		c3.444-1.929,7.406-5.69,7.576-7.983c0.001-0.014,0.001-0.035,0.001-0.048c0-0.2-0.085-0.4-0.238-0.555
		C34.192,4.066,33.98,3.988,33.751,4.001L33.751,4.001z M33.247,4.916L33.247,4.916L33.247,4.916L33.247,4.916z"/>
	<polygon fill="#49166D" points="30.962,7.207 15.546,10.518 14.954,12.124 31.01,8.219 31.036,8.214 31.036,7.194 	"/>
	<path fill="#49166D" d="M98.906,8.39c0-0.798,0.604-1.401,1.377-1.401c0.756,0,1.358,0.603,1.358,1.401
		c0,0.809-0.603,1.407-1.358,1.407C99.51,9.797,98.906,9.199,98.906,8.39L98.906,8.39z M100.283,10.076
		c0.912,0,1.699-0.713,1.699-1.686c0-0.968-0.784-1.68-1.699-1.68c-0.93,0-1.715,0.712-1.715,1.68
		C98.568,9.363,99.353,10.076,100.283,10.076L100.283,10.076z M99.926,8.523h0.33l0.516,0.84h0.331l-0.549-0.853
		c0.283-0.037,0.498-0.189,0.498-0.54c0-0.378-0.224-0.548-0.677-0.548h-0.746v1.942h0.297V8.523L99.926,8.523z M99.926,8.271V7.667
		h0.396c0.203,0,0.428,0.047,0.428,0.291c0,0.299-0.229,0.314-0.473,0.314L99.926,8.271L99.926,8.271z"/>
</g>
</svg>
