<svg xmlns="http://www.w3.org/2000/svg" width="160" height="160" viewBox="0 0 160 160"><g fill="none" fill-rule="evenodd"><rect width="160" height="160"/><rect width="128" height="128" x="16" y="16" fill="#B1B1B1" opacity="0"/><path fill="#E3EBF4" d="M54.1167978,25.4185765 C61.383396,21.9591364 69.5661096,20.1465227 78.1651376,20.4468073 C106.766502,21.445589 129.142817,45.4412485 128.144035,74.0426129 C127.145253,102.643977 103.149594,125.020292 74.5482292,124.02151 C45.9468648,123.022729 23.5705503,99.0270691 24.569332,70.4257046 C25.0050212,57.9491964 29.8167526,46.6572437 37.4779152,37.9734344 L38.158463,24.1017712 C38.2125283,22.9985257 39.150714,22.147997 40.2539596,22.2020623 C40.3747773,22.207983 40.4948088,22.2248523 40.6125782,22.2524628 Z"/><g transform="translate(25.487 22.158)"><path fill="#7E9FFB" d="M57.9172819,5.91852154 C86.5360802,5.91852154 109.7362,29.1186414 109.7362,57.7374397 C109.7362,86.3562379 86.5360802,109.556358 57.9172819,109.556358 C52.7793873,109.556358 47.8161397,108.808605 43.1304279,107.415989 L29.9006713,112.546265 C28.870816,112.945605 27.7122249,112.43447 27.3128856,111.404615 C27.2691534,111.291835 27.2357431,111.175319 27.2130654,111.056501 L24.6134014,97.4385293 C13.2937975,87.9329254 6.09836378,73.6754744 6.09836378,57.7374397 C6.09836378,29.1186414 29.2984837,5.91852154 57.9172819,5.91852154 Z" transform="rotate(7 57.917 59.128)"/><path fill="#C1D8FD" d="M35.7337685,52.3180823 C38.913635,52.3180823 41.4914261,54.8958734 41.4914261,58.0757399 C41.4914261,61.2556063 38.913635,63.8333974 35.7337685,63.8333974 C32.553902,63.8333974 29.9761109,61.2556063 29.9761109,58.0757399 C29.9761109,54.8958734 32.553902,52.3180823 35.7337685,52.3180823 Z M57.8047892,52.3180823 C60.9846557,52.3180823 63.5624468,54.8958734 63.5624468,58.0757399 C63.5624468,61.2556063 60.9846557,63.8333974 57.8047892,63.8333974 C54.6249227,63.8333974 52.0471316,61.2556063 52.0471316,58.0757399 C52.0471316,54.8958734 54.6249227,52.3180823 57.8047892,52.3180823 Z M79.8758099,52.3180823 C83.0556764,52.3180823 85.6334675,54.8958734 85.6334675,58.0757399 C85.6334675,61.2556063 83.0556764,63.8333974 79.8758099,63.8333974 C76.6959434,63.8333974 74.1181523,61.2556063 74.1181523,58.0757399 C74.1181523,54.8958734 76.6959434,52.3180823 79.8758099,52.3180823 Z" transform="rotate(7 57.805 58.076)"/></g><circle cx="151.261" cy="137.4" r="4.8" fill="#E3EBF4"/><circle cx="15.753" cy="12.506" r="2.4" fill="#FFAB00" fill-rule="nonzero"/><circle cx="137.086" cy="151.973" r="2.4" fill="#7E9FFB"/><circle cx="9.72" cy="31.406" r="4.5" fill="#C1D8FD"/><circle cx="38.4" cy="7.749" r="3.2" fill="#7E9FFB"/></g></svg>