<?xml version="1.0" encoding="UTF-8" standalone="no"?>
<svg width="10px" height="10px" viewBox="0 0 10 10" version="1.1" xmlns="http://www.w3.org/2000/svg" xmlns:xlink="http://www.w3.org/1999/xlink">
    <!-- Generator: Sketch 47 (45396) - http://www.bohemiancoding.com/sketch -->
    <title>ATT</title>
    <desc>Created with Sketch.</desc>
    <defs></defs>
    <g id="Symbols" stroke="none" stroke-width="1" fill="none" fill-rule="evenodd">
        <g id="Brand-icon" transform="translate(-33.000000, -13.000000)" fill-rule="nonzero">
            <g id="ATT" transform="translate(33.000000, 13.000000)">
                <path d="M7.7966805,0.663900415 C8.99170124,0.663900415 9.9626556,1.63485477 9.9626556,2.8340249 L9.9626556,7.79253112 C9.9626556,8.99170124 8.99170124,9.9626556 7.7966805,9.9626556 L2.1659751,9.9626556 C0.970954357,9.95850622 0,8.98755187 0,7.78838174 L0,2.8340249 C0,1.63485477 0.970954357,0.663900415 2.1659751,0.663900415 L7.7966805,0.663900415 Z" id="Fill-1" fill="#E7E7E7"></path>
                <path d="M2.14522822,0 L7.80082988,0 C8.98755187,0 9.94605809,0.962655602 9.94605809,2.15352697 L9.95435685,7.12448133 C9.95435685,8.32365145 8.98755187,9.29460581 7.79253112,9.29460581 L2.17427386,9.29460581 C0.979253112,9.29460581 0.0124481328,8.32365145 0.0124481328,7.12448133 L0,2.15352697 C0,0.962655602 0.962655602,0 2.14522822,0" id="Fill-3" fill="#00B9F2"></path>
                <path d="M0,4.37759336 C0,4.37759336 0.377593361,3.91286307 1.0373444,3.90041494 C1.0373444,3.90041494 0.804979253,2.92946058 1.77593361,2.45228216 C1.77593361,2.45228216 2.61410788,2.1120332 3.14522822,2.65560166 C3.14522822,2.65560166 3.45643154,1.06224066 5.26556017,0.692946058 C5.26556017,0.692946058 6.62655602,0.43153527 7.56846473,1.41078838 C7.56846473,1.41078838 8.25726141,1.97510373 8.36514523,2.9626556 C8.36514523,2.9626556 8.71369295,2.7966805 9.09128631,3.01244813 C9.46887967,3.22821577 9.49377593,3.60580913 9.49792531,3.67219917 C9.49792531,3.67219917 9.53112033,4.01244813 9.3153527,4.22821577 C9.3153527,4.22821577 9.75518672,4.34854772 9.95435685,4.58921162 L9.95435685,7.43153527 C9.95435685,8.61825726 8.99170124,9.57676349 7.80497925,9.57676349 L2.14937759,9.57676349 C0.962655602,9.58506224 0,8.62240664 0,7.43983402 L0,4.37759336 Z" id="path-3_1_" fill="#FFFFFF"></path>
                <path d="M8.15767635,4.62240664 C8.1120332,4.6473029 8.07053942,4.67219917 8.03319502,4.70124481 L8.09543568,4.87551867 C8.32780083,4.73029046 8.60580913,4.65560166 8.90041494,4.67634855 C9.34439834,4.71369295 9.74273859,4.97095436 9.95435685,5.36514523 L9.95435685,5.14522822 C9.60580913,4.50207469 8.80082988,4.26970954 8.15767635,4.62240664 Z M5.71369295,0.912863071 C5.63900415,0.912863071 5.56431535,0.917012448 5.48962656,0.921161826 C5.47302905,0.921161826 5.45228216,0.925311203 5.43568465,0.929460581 C5.38174274,0.933609959 5.32365145,0.941908714 5.26970954,0.954356846 C5.25311203,0.958506224 5.23651452,0.962655602 5.21991701,0.962655602 C5.16182573,0.975103734 5.10788382,0.987551867 5.04979253,1.00414938 C5.0373444,1.00829876 5.02904564,1.01244813 5.01659751,1.01244813 C4.95435685,1.02904564 4.89211618,1.04979253 4.82987552,1.0746888 C4.82572614,1.0746888 4.82572614,1.07883817 4.82157676,1.07883817 C4.28215768,1.28630705 3.85062241,1.67219917 3.61410788,2.17012448 C3.60995851,2.17842324 3.60580913,2.19087137 3.60165975,2.19917012 C3.58091286,2.24481328 3.56016598,2.29045643 3.54356846,2.34024896 C3.53526971,2.36099585 3.52697095,2.38589212 3.52282158,2.406639 C3.51037344,2.4439834 3.50207469,2.4813278 3.48962656,2.5186722 C3.4813278,2.54771784 3.47302905,2.57676349 3.46887967,2.60995851 C3.46887967,2.62240664 3.46473029,2.63070539 3.46058091,2.64315353 L3.46058091,2.65560166 C3.43983402,2.76348548 3.42738589,2.87551867 3.42738589,2.98755187 C3.42738589,3.02074689 3.43153527,3.05394191 3.43153527,3.08713693 C3.46473029,2.18672199 4.12863071,1.43153527 5.03319502,1.17842324 C5.0373444,1.17842324 5.04564315,1.17427386 5.04979253,1.17427386 C5.10788382,1.15767635 5.1659751,1.14522822 5.22821577,1.13278008 C5.2406639,1.12863071 5.25311203,1.12863071 5.26970954,1.12448133 C5.32365145,1.11618257 5.38174274,1.10788382 5.43983402,1.09958506 C5.45643154,1.09958506 5.47302905,1.09543568 5.48962656,1.09543568 C5.56431535,1.08713693 5.63485477,1.08713693 5.70954357,1.08713693 C6.94190871,1.08713693 7.94605809,1.97925311 7.98755187,3.09128631 C7.98755187,3.05809129 7.99170124,3.02489627 7.99170124,2.99170124 C8,1.84232365 6.97510373,0.912863071 5.71369295,0.912863071 L5.71369295,0.912863071 Z M8.73443983,3.23236515 C9.01244813,3.26556017 9.21991701,3.51037344 9.20746888,3.79253112 C9.21161826,3.78008299 9.21161826,3.76348548 9.21576763,3.75103734 C9.24896266,3.45228216 9.0373444,3.18672199 8.74273859,3.15352697 C8.45228216,3.12033195 8.18672199,3.32780083 8.14522822,3.61825726 C8.14522822,3.63485477 8.14107884,3.6473029 8.14107884,3.66390041 C8.19917012,3.38174274 8.45643154,3.19917012 8.73443983,3.23236515 L8.73443983,3.23236515 Z M2.20746888,2.79253112 C2.68879668,2.76763485 3.1120332,3.11618257 3.17842324,3.59751037 C3.17842324,3.57261411 3.17842324,3.54771784 3.17842324,3.52282158 C3.15352697,3.00829876 2.71369295,2.60995851 2.19917012,2.63900415 C1.6846473,2.66804979 1.29460581,3.10788382 1.31950207,3.62240664 C1.31950207,3.6473029 1.32365145,3.67219917 1.32780083,3.69709544 C1.34439834,3.21161826 1.72614108,2.81742739 2.20746888,2.79253112 L2.20746888,2.79253112 Z M1.0746888,4.37759336 L1.16182573,4.37759336 L1.15767635,4.29045643 C1.15767635,4.27385892 1.15767635,4.25726141 1.15352697,4.2406639 L1.07053942,4.2406639 C0.526970954,4.2406639 0.0829875519,4.68879668 0.0829875519,5.23236515 C0.0829875519,5.25311203 0.0829875519,5.2780083 0.0871369295,5.29875519 C0.124481328,4.78008299 0.55186722,4.37759336 1.0746888,4.37759336 L1.0746888,4.37759336 Z" id="Fill-7" fill="#F5F5F6"></path>
                <path d="M2.0746888,4.98755187 C2.07883817,5.26970954 2.6473029,6.29875519 3.50622407,7.15767635 C4.36514523,8.01659751 5.39419087,8.58506224 5.67634855,8.58921162 C5.95435685,8.58921162 6.2406639,8.39004149 6.50622407,8.12448133 C6.51452282,8.11618257 6.52697095,8.10373444 6.53526971,8.09543568 C6.53526971,8.09543568 6.53526971,8.09543568 6.53941909,8.09128631 C6.55186722,8.07883817 6.56016598,8.06639004 6.57261411,8.05394191 C6.57676349,8.04979253 6.57676349,8.04979253 6.58091286,8.04564315 C6.58921162,8.03319502 6.60165975,8.02489627 6.60995851,8.01244813 C6.61410788,8.00829876 6.61410788,8.00829876 6.61825726,8.00414938 C6.62655602,7.99170124 6.63485477,7.98340249 6.64315353,7.97510373 C6.6473029,7.97095436 6.6473029,7.96680498 6.65145228,7.9626556 C6.65975104,7.95435685 6.66390041,7.94605809 6.67219917,7.93775934 C6.67634855,7.93360996 6.67634855,7.92946058 6.68049793,7.9253112 C6.6846473,7.91701245 6.68879668,7.90871369 6.69294606,7.90456432 C6.69709544,7.90041494 6.69709544,7.89211618 6.70124481,7.8879668 C6.70539419,7.88381743 6.70539419,7.87551867 6.70954357,7.87136929 C6.71369295,7.86307054 6.71369295,7.85892116 6.71784232,7.85477178 C6.71784232,7.85062241 6.7219917,7.84647303 6.7219917,7.84232365 C6.72614108,7.8340249 6.72614108,7.82572614 6.72614108,7.81742739 C6.72614108,7.81742739 6.72614108,7.81742739 6.72614108,7.81327801 C6.72614108,7.76348548 6.66390041,7.67634855 6.56431535,7.57676349 C6.55186722,7.56016598 6.53526971,7.54771784 6.5186722,7.53112033 C6.41908714,7.43153527 6.28630705,7.31950207 6.16182573,7.20746888 C6.12448133,7.17427386 6.08713693,7.14522822 6.04979253,7.11618257 C5.79253112,6.91286307 5.53526971,6.76348548 5.43983402,6.76348548 C5.41493776,6.76348548 5.39004149,6.76348548 5.36514523,6.77178423 C5.29460581,6.78838174 5.23236515,6.83817427 5.17842324,6.89211618 C5.12448133,6.94605809 5.09128631,7.00414938 5.04564315,7.04564315 C5,7.09128631 4.95020747,7.11618257 4.91286307,7.12448133 C4.74688797,7.12448133 4.3526971,6.86307054 4.07883817,6.593361 C3.80497925,6.31950207 3.54356846,5.9253112 3.54356846,5.7593361 C3.54771784,5.7219917 3.57676349,5.67219917 3.62240664,5.62655602 C3.66804979,5.58091286 3.7219917,5.54771784 3.77593361,5.49377593 C3.82987552,5.43983402 3.87966805,5.37759336 3.89626556,5.30705394 C3.90041494,5.28215768 3.90456432,5.25726141 3.90456432,5.23236515 C3.90456432,5.13692946 3.75518672,4.87966805 3.55186722,4.62240664 C3.52282158,4.58506224 3.49377593,4.54771784 3.46058091,4.51037344 C3.34854772,4.39004149 3.23651452,4.25311203 3.13692946,4.15352697 C3.12033195,4.13692946 3.10788382,4.12448133 3.09128631,4.10788382 C2.99170124,4.00414938 2.90456432,3.94190871 2.85477178,3.94190871 C2.85477178,3.94190871 2.85477178,3.94190871 2.85477178,3.94190871 C2.84647303,3.94190871 2.83817427,3.94190871 2.82987552,3.94605809 C2.82572614,3.94605809 2.82157676,3.95020747 2.81742739,3.95020747 C2.81327801,3.95435685 2.80497925,3.95435685 2.80082988,3.95850622 C2.7966805,3.9626556 2.78838174,3.9626556 2.78423237,3.96680498 C2.78008299,3.97095436 2.77178423,3.97095436 2.76763485,3.97510373 C2.7593361,3.97925311 2.75518672,3.98340249 2.74688797,3.98755187 C2.74273859,3.99170124 2.73858921,3.99170124 2.73443983,3.99585062 C2.72614108,4 2.71784232,4.00829876 2.70954357,4.01659751 C2.69709544,4.02074689 2.69709544,4.02074689 2.69294606,4.02489627 C2.6846473,4.03319502 2.67219917,4.04149378 2.66390041,4.04979253 C2.65975104,4.05394191 2.65975104,4.05394191 2.65560166,4.05809129 C2.64315353,4.06639004 2.63485477,4.07883817 2.62240664,4.08713693 C2.61825726,4.09128631 2.61825726,4.09128631 2.61410788,4.09543568 C2.60165975,4.10788382 2.58921162,4.11618257 2.57676349,4.12863071 C2.57676349,4.12863071 2.57676349,4.12863071 2.57261411,4.13278008 C2.56431535,4.14107884 2.55186722,4.14937759 2.54356846,4.16182573 C2.27385892,4.42323651 2.0746888,4.70954357 2.0746888,4.98755187" id="Fill-10" fill="#FCB314"></path>
                <path d="M7.47717842,4.09958506 C7.80497925,4.57676349 8.01244813,5.12448133 8.08713693,5.69709544 C8.11618257,5.90041494 7.97095436,6.08298755 7.77178423,6.1120332 C7.57261411,6.13692946 7.38589212,5.99585062 7.35684647,5.7966805 C7.18672199,4.48547718 6.16182573,3.44813278 4.85477178,3.26970954 C4.65145228,3.2406639 4.51037344,3.05394191 4.53941909,2.85062241 C4.56846473,2.6473029 4.75518672,2.50622407 4.95850622,2.53526971 C5.97925311,2.67634855 6.89626556,3.24481328 7.47717842,4.09958506 M6.42738589,4.85477178 C6.65560166,5.18672199 6.80082988,5.56846473 6.85062241,5.96680498 C6.87551867,6.17427386 6.73029046,6.36099585 6.52697095,6.38589212 C6.32365145,6.41078838 6.13692946,6.26970954 6.10788382,6.06224066 C6.07053942,5.78008299 5.96680498,5.51037344 5.80497925,5.2780083 C5.51452282,4.85477178 5.05809129,4.57261411 4.55186722,4.50207469 C4.34854772,4.47302905 4.2033195,4.28215768 4.23236515,4.07883817 C4.26141079,3.87551867 4.45228216,3.73029046 4.65560166,3.75518672 C5.37759336,3.85892116 6.01659751,4.25726141 6.42738589,4.85477178" id="Fill-12" fill="#00B9F2"></path>
            </g>
        </g>
    </g>
</svg>
