<?xml version="1.0" encoding="UTF-8"?>
<svg width="20px" height="20px" viewBox="0 0 20 20" version="1.1" xmlns="http://www.w3.org/2000/svg" xmlns:xlink="http://www.w3.org/1999/xlink">
    <g stroke="none" stroke-width="1" fill="none" fill-rule="evenodd">
        <g fill-rule="nonzero">
            <path d="M15.546875,0 L4.453125,0 C1.99373198,0 0,1.99373198 0,4.453125 L0,15.546875 C0,18.006268 1.99373198,20 4.453125,20 L15.546875,20 C18.006268,20 20,18.006268 20,15.546875 L20,4.453125 C20,1.99373198 18.006268,0 15.546875,0 Z" id="Rectangle" fill="#0684BC"></path>
            <path d="M6.79533032,15.6618183 C6.83400519,15.6634785 6.87262146,15.6571699 6.90875707,15.6433223 C6.94491221,15.6294746 6.97784444,15.6083613 7.00550283,15.5812715 C7.03269243,15.5536348 7.05396361,15.5207441 7.0680272,15.4846113 C7.08209079,15.4484785 7.08865379,15.4098652 7.08730603,15.3711152 L7.08730603,7.18377002 C7.08230565,7.14867236 7.08550902,7.1128911 7.09668176,7.07923875 C7.1078545,7.0455864 7.12670362,7.01500046 7.15170555,6.98986373 C7.17672702,6.96472702 7.20721766,6.94576217 7.24081401,6.93441451 C7.27441036,6.92308638 7.31017484,6.91968794 7.34531427,6.92453169 L12.6537718,6.92453169 C12.688423,6.92074263 12.7234647,6.92492232 12.7562407,6.93673873 C12.7890362,6.9485356 12.818687,6.96767623 12.8429662,6.99267623 C12.8672259,7.01767624 12.885489,7.04787156 12.8963102,7.08099657 C12.9071508,7.11410204 12.9102956,7.14925829 12.9054906,7.18377002 L12.9054906,9.73964933 C12.9105495,9.77420017 12.9075806,9.80945408 12.8968376,9.84267675 C12.8860945,9.87591892 12.8678704,9.90623142 12.8435327,9.93129 C12.8191948,9.95634858 12.7894269,9.97546975 12.7565337,9.9871885 C12.7236406,9.99890725 12.6884816,10.0029112 12.6537718,9.99888767 L10.2625712,9.99888767 C10.2270802,9.993165 10.1907297,9.99589942 10.1564692,10.0068369 C10.1222088,10.0177939 10.091015,10.0366416 10.0654075,10.0618955 C10.0397806,10.0871299 10.0204822,10.1180478 10.009036,10.1521299 C9.99758983,10.1862315 9.99434733,10.2225401 9.99954308,10.2581065 L9.99954308,11.3907043 C9.99495283,11.6485169 10.0194274,11.9060169 10.072537,12.1583412 C10.1278537,12.3866811 10.2237792,12.6032241 10.3557034,12.7976382 L12.0056357,15.3862128 C12.0627887,15.4785762 12.1444747,15.5532441 12.2415915,15.601916 C12.3386889,15.6505683 12.4474082,15.6713105 12.5556197,15.6618183 L14.7077003,15.6618183 C14.8159313,15.6618183 14.8864055,15.632873 14.9191229,15.5724628 C14.9340655,15.5366426 14.9389096,15.4974238 14.9331279,15.4590449 C14.9273657,15.4206855 14.9112122,15.3846113 14.8864055,15.3547675 L13.2503219,12.7120523 C13.1748082,12.6038296 13.2025057,12.5182631 13.3321252,12.4528139 L14.4799092,11.9356068 C14.8493909,11.7863685 15.1633996,11.5260364 15.3784944,11.1906067 C15.5775137,10.8375402 15.6758807,10.4366808 15.6629304,10.0316025 L15.6629304,6.27769564 C15.6629304,5.64093773 15.4984842,5.15810561 15.169572,4.82923837 C14.8406793,4.50037113 14.3578295,4.3359375 13.7210224,4.3359375 L6.27808327,4.3359375 C5.6546952,4.3359375 5.17518544,4.50037113 4.83957353,4.82923837 C4.50396163,5.15810561 4.33617522,5.64093773 4.33617522,6.27769564 L4.33617522,15.3711152 C4.33459306,15.4097871 4.34092167,15.4483613 4.3547704,15.4845137 C4.36861913,15.5206464 4.38969498,15.5535762 4.41670879,15.5812715 C4.44442577,15.6083028 4.47735802,15.6293769 4.51349362,15.6432246 C4.54962923,15.6570723 4.58822597,15.6634004 4.6268813,15.6618183 L6.79533032,15.6618183 Z" id="Path" fill="#FFFFFF"></path>
        </g>
    </g>
</svg>