<svg width="92.1506849315" height="14" viewBox="0 0 961 146" fill="none" xmlns="http://www.w3.org/2000/svg">
<g clip-path="url(#clip0_9101_119711)">
<path fill-rule="evenodd" clip-rule="evenodd" d="M174.671 17.6394C174.671 17.6396 174.672 17.6396 174.673 17.6396C175.436 19.1741 177.059 19.9746 178.653 19.8197C179.132 19.768 179.597 19.6279 180.04 19.4139C182.021 18.4069 182.821 16.0054 181.822 14.0208C181.549 13.3826 176.126 3.40055 160.614 0.637594C156.804 -0.0448464 153.373 -0.100179 150.374 0.217063C140.613 1.23519 135.501 6.18196 135.11 6.56191C133.542 8.11492 133.542 10.6639 135.11 12.2169C136.666 13.7884 139.208 13.8032 140.765 12.2317C140.765 12.2317 140.813 12.1616 141.222 11.8776C142.391 10.9517 145.726 8.74572 151.204 8.17395C153.469 7.94155 156.11 7.96737 159.183 8.51701C165.432 9.66425 169.287 12.0841 171.663 14.1462C172.832 15.1975 173.632 16.1345 174.119 16.7911C174.355 17.1121 174.518 17.374 174.595 17.5215C174.634 17.5806 174.651 17.6101 174.66 17.6248C174.667 17.6363 174.668 17.6388 174.671 17.6394ZM926.183 1.0289L905.828 118.379H939.743L960.106 1.0289H926.183ZM447.474 45.7813C447.43 46.1096 447.389 46.4674 447.389 46.8695H481.924C482.009 46.0469 482.075 45.287 482.075 44.5603V42.2437C482.075 29.3105 478.088 19.2805 470.142 12.1942C462.178 5.10048 450.122 1.56285 433.991 1.56285C426.285 1.56285 418.811 2.92404 411.559 5.63167C404.318 8.36512 397.774 12.2421 391.916 17.2811C386.054 22.3127 381.071 28.4215 376.961 35.6148C372.841 42.8302 370.033 50.8904 368.48 59.8174C368.071 62.1894 367.761 64.4728 367.558 66.6787C367.344 68.881 367.248 71.0205 367.248 73.0641C367.248 80.1726 368.348 86.5027 370.561 92.1097C372.76 97.7021 376.013 102.461 380.266 106.364C384.538 110.27 389.75 113.243 395.915 115.298C402.082 117.356 409.172 118.382 417.185 118.382C424.485 118.382 431.39 117.331 437.923 115.224C444.442 113.129 450.355 110.086 455.641 106.142C460.934 102.191 465.516 97.3774 469.364 91.7335C473.207 86.0784 476.162 79.6524 478.22 72.4555H443.239C441.597 77.8154 439.004 82.2826 435.463 85.8682C431.903 89.4611 427.207 91.2539 421.349 91.2539C417.86 91.2539 414.982 90.7781 412.721 89.7894C410.46 88.823 408.634 87.4802 407.25 85.7907C405.863 84.0901 404.882 82.1055 404.318 79.8553C403.757 77.6051 403.48 75.1373 403.48 72.4555C403.48 70.7069 403.565 68.881 403.783 66.9812C403.986 65.0962 404.296 63.1079 404.698 61.0421C406.546 50.2743 409.748 42.1773 414.263 36.7731C418.771 31.3763 424.271 28.6945 430.76 28.6945C436.101 28.6945 440.233 30.0741 443.161 32.8481C446.09 35.6148 447.562 39.5692 447.562 44.7152C447.562 45.1284 447.533 45.4862 447.474 45.7813ZM551.122 63.6157C551.225 63.0698 551.284 62.2656 551.284 61.1737C551.284 57.6877 550.082 54.7514 547.71 52.3721C545.312 49.9854 542.324 48.7939 538.735 48.7939C533.637 48.7939 529.513 50.1108 526.355 52.7778C523.197 55.4486 521.191 59.0489 520.32 63.6157H551.122ZM517.383 80.9054C517.28 81.4329 517.199 81.9826 517.147 82.5211C517.081 83.0597 517.066 83.6057 517.066 84.159C517.066 88.3016 518.42 91.5736 521.131 94.0156C523.857 96.4687 527.222 97.675 531.228 97.675C533.954 97.675 536.577 97.0516 539.059 95.8195C541.56 94.5616 543.619 92.7098 545.245 90.1903H577.693C575.299 95.5133 572.178 99.9584 568.323 103.555C564.453 107.13 560.204 110.04 555.523 112.287C550.845 114.493 545.932 116.082 540.775 117.005C535.595 117.919 530.542 118.384 525.536 118.384C519.449 118.384 513.85 117.621 508.751 116.094C503.639 114.577 499.238 112.298 495.553 109.251C491.849 106.222 488.975 102.5 486.913 98.0845C484.848 93.6763 483.804 88.6188 483.804 82.8494C483.804 81.4329 483.903 79.9832 484.058 78.5187C484.202 77.0579 484.405 75.5824 484.623 74.0441C485.818 67.098 488.157 60.7605 491.639 55.0612C495.11 49.3619 499.371 44.5221 504.421 40.5566C509.478 36.5837 515.126 33.5219 521.371 31.3381C527.631 29.1654 534.171 28.0846 541.011 28.0846C547.861 28.0846 553.918 29.0658 559.193 31.0172C564.453 32.9649 568.902 35.691 572.488 39.1696C576.059 42.6445 578.788 46.8904 580.625 51.8888C582.477 56.8725 583.399 62.3689 583.399 68.3485C583.399 72.0448 582.96 76.2206 582.097 80.9054H517.383ZM625.346 32.9698H594.392L579.714 118.382H613.622L621.115 74.8606C621.989 69.3199 623.616 64.9892 625.999 61.8979C628.393 58.8066 632.218 57.261 637.43 57.261C641.116 57.261 643.635 58.2349 644.993 60.1936C646.354 62.1451 647.036 64.5871 647.036 67.5271C647.036 69.3863 646.874 71.2713 646.553 73.2338L638.714 118.382H672.637L681.416 67.1951C682.069 63.4989 682.409 59.9797 682.409 56.6118C682.409 48.1347 680.177 41.6534 675.721 37.212C671.257 32.7632 664.256 30.5241 654.687 30.5241C648.172 30.5241 642.473 31.8632 637.582 34.5155C632.694 37.201 627.858 41.1222 623.066 46.342L625.346 32.9698ZM735.326 117.738C731.508 117.938 728.003 118.118 724.79 118.229C721.6 118.343 718.634 118.38 715.911 118.38C710.802 118.38 706.516 118.133 703.045 117.654C699.562 117.174 696.788 116.289 694.723 115.045C692.657 113.806 691.192 112.128 690.314 110.069C689.447 108.029 689.02 105.406 689.02 102.26C689.02 100.308 689.16 98.1025 689.429 95.6494C689.702 93.2074 690.093 90.5035 690.643 87.5745L696.847 51.9032H684.774L688.046 32.3264H700.588L705.324 5.75179H738.727L734.009 32.3264H750.303L747.034 51.9032H730.737L725.37 82.9929C725.148 83.9816 724.993 84.8558 724.875 85.66C724.761 86.4937 724.706 87.2204 724.706 87.877C724.706 89.9538 725.37 91.4257 726.664 92.311C727.985 93.1742 730.42 93.6021 734.009 93.6021H739.384L735.326 117.738ZM788.103 32.9698H757.286L742.626 118.382H776.531L781.585 88.8783C783.211 79.6672 786.066 73.1748 790.143 69.4822C794.223 65.797 799.726 63.9415 806.68 63.9415C807.879 63.9415 809.048 64.0596 810.199 64.2625C810.424 64.3073 810.649 64.3518 810.873 64.3962L811.294 64.4793C812.052 64.6289 812.801 64.7769 813.526 64.9265L819.572 31.0184C818.856 30.928 818.146 30.8147 817.486 30.7093L817.367 30.6901C816.658 30.5831 815.924 30.5241 815.164 30.5241C802.22 30.5241 792.334 37.1014 785.506 50.2485H785.163L788.103 32.9698ZM849.266 99.1371C852.184 99.1371 854.777 98.617 857.005 97.5288C859.23 96.4442 861.104 94.9466 862.616 93.0284C864.155 91.1323 865.328 88.9079 866.206 86.3441C867.083 83.7988 867.674 81.0654 868.006 78.1253C864.97 79.4238 861.886 80.3718 858.798 80.9879C855.711 81.5781 852.815 82.231 850.159 82.9393C847.499 83.6439 845.194 84.6436 843.312 85.9531C841.398 87.2516 840.232 89.2473 839.801 91.9881V92.9546C839.801 94.8211 840.579 96.3078 842.165 97.4402C843.737 98.5912 846.112 99.1371 849.266 99.1371ZM864.94 118.566L864.741 106.821C859.215 111.365 853.745 114.446 848.352 116.017C842.988 117.581 837.093 118.378 830.671 118.378C827.093 118.378 823.658 117.976 820.408 117.175C817.151 116.36 814.322 115.084 811.935 113.328C809.534 111.594 807.63 109.466 806.217 106.883C804.819 104.349 804.104 101.265 804.104 97.6723C804.104 96.1562 804.255 94.4778 804.602 92.637C805.682 86.211 808.051 81.1942 811.684 77.5459C815.325 73.9123 819.571 71.1715 824.407 69.3271C829.217 67.4716 834.352 66.2026 839.723 65.4833C842.032 65.1822 844.272 64.8913 846.442 64.6095C849.325 64.2353 852.084 63.877 854.719 63.5319C859.333 62.9232 863.258 62.1338 866.449 61.0862C869.644 60.0459 871.488 58.183 871.909 55.4643C871.909 55.2504 871.949 55.0585 871.997 54.8962C872.045 54.7302 872.071 54.5495 872.071 54.3318C872.082 53.0186 871.687 51.9857 870.931 51.2332C870.171 50.4807 869.271 49.9015 868.234 49.5068C867.213 49.1305 866.11 48.8723 864.907 48.6953C863.716 48.5329 862.723 48.4518 861.971 48.4518C860.761 48.4518 859.499 48.5329 858.145 48.6953C856.788 48.8723 855.497 49.2523 854.305 49.8536C853.11 50.4512 852.007 51.2885 850.971 52.3731C849.941 53.4686 849.196 54.9294 848.765 56.7812H816.166C816.93 52.196 818.45 48.1604 820.737 44.6264C823.016 41.0962 826.259 38.0971 830.427 35.6625C834.622 33.2168 839.742 31.3391 845.828 30.0407C851.915 28.7164 859.215 28.0893 867.674 28.0893C875.395 28.0893 881.732 28.602 886.653 29.6423C891.607 30.6604 895.499 32.1618 898.314 34.1242C901.143 36.0646 903.105 38.4107 904.186 41.122C905.267 43.837 905.828 46.8877 905.828 50.263C905.828 52.314 905.684 54.4388 905.415 56.6005C905.138 58.7806 904.776 61.0566 904.352 63.4544L897.495 103.39C897.196 105.234 897.019 106.758 897.019 107.942C897.019 109.156 897.225 110.207 897.668 111.126C898.1 112.048 898.93 113.118 900.11 114.316L899.988 118.566H864.94ZM164.706 26.7555C164.697 26.7619 164.695 26.7594 164.678 26.727C164.655 26.684 164.603 26.5883 164.467 26.3903L164.46 26.3818C164.197 26.0531 163.786 25.537 163.139 24.9775C161.858 23.8561 159.719 22.5059 156.185 21.8456C154.444 21.5321 152.957 21.5173 151.718 21.6501C148.671 21.9711 146.863 23.1847 146.247 23.6569C146.074 23.7897 146.085 23.8081 146.085 23.8081C144.786 25.1029 142.669 25.114 141.356 23.8081C140.05 22.4986 140.05 20.3885 141.356 19.0753C141.68 18.747 144.919 15.652 151.017 15.0102C152.883 14.822 155.008 14.8663 157.358 15.2795V15.2758C166.979 16.9911 170.461 23.2253 170.682 23.7565C171.509 25.387 170.848 27.4085 169.192 28.2311C168.827 28.4229 168.432 28.5409 168.034 28.5778C166.698 28.718 165.341 28.0245 164.706 26.7555ZM153.155 42.3399C157.943 42.3546 161.831 39.0568 161.857 34.9437C161.886 30.8565 158.013 27.4848 153.225 27.459C148.422 27.4479 144.523 30.7532 144.516 34.8736C144.493 38.9609 148.359 42.3178 153.155 42.3399Z" fill="#FF7A00"/>
<path fill-rule="evenodd" clip-rule="evenodd" d="M65.8562 51.2376H50.7097L54.6088 27.9314H72.5367C76.5539 27.9314 79.8296 28.7208 82.3159 30.2886C84.8243 31.8748 86.0601 34.3389 86.0601 37.7032C86.0601 38.8025 86.0158 39.6103 85.9015 40.1489C85.2559 44.2915 83.2381 47.1651 79.8628 48.7956C76.4986 50.415 71.8321 51.2376 65.8562 51.2376ZM39.1268 117.899L46.143 76.9897H57.8736C64.7128 76.9897 69.4124 77.8308 71.9688 79.5055C74.5215 81.2135 75.8089 84.1092 75.8089 88.2408C75.8089 90.7455 75.4769 93.7667 74.8203 97.367C74.171 100.949 73.6988 104.188 73.4332 107.047C73.1713 109.953 73.0238 112.3 73.0238 114.162C73.0238 115.564 73.1308 116.815 73.3595 117.899H112.314L112.793 114.321C110.846 114.321 109.868 113.011 109.868 110.415C109.868 108.884 110.078 106.766 110.525 104.048C110.953 101.336 111.55 97.9056 112.314 93.7667C113.077 89.3179 113.457 85.4188 113.457 82.0398C113.457 78.7862 113.077 76.1265 112.314 74.0644C111.55 71.9913 110.495 70.2538 109.141 68.841C107.777 67.4282 106.15 66.2625 104.239 65.3403C102.347 64.4144 100.196 63.518 97.8093 62.6363C104.973 60.803 110.599 57.2395 114.667 51.9755C118.751 46.6968 121.381 40.6913 122.576 33.9554C123.119 30.9158 123.403 28.2377 123.403 25.969C123.403 21.6198 122.558 17.8793 120.854 14.7217C119.179 11.5603 116.464 8.93752 112.716 6.82381C108.964 4.7064 104.128 3.13494 98.2077 2.0873C92.2907 1.06549 85.0237 0.552734 76.4581 0.552734H21.0366L0.659302 117.899H39.1268ZM137.751 48.5791L118.657 117.9H152.406L162.315 48.5791H137.751ZM177.394 32.4887H208.366L206.079 45.8609C210.859 40.6411 215.699 36.7235 220.583 34.0344C225.482 31.3858 231.189 30.043 237.707 30.043C247.257 30.043 254.274 32.2821 258.73 36.7309C263.19 41.1723 265.41 47.6536 265.41 56.1307C265.41 59.4986 265.082 63.0178 264.44 66.714L255.639 117.901H221.723L229.555 72.7527C229.879 70.7902 230.053 68.9052 230.053 67.046C230.053 64.106 229.355 61.664 228.002 59.7126C226.648 57.7538 224.117 56.7799 220.425 56.7799C215.216 56.7799 211.387 58.3255 209.015 61.4168C206.617 64.5118 204.983 68.8388 204.127 74.3795L196.624 117.901H162.727L177.394 32.4887ZM310.705 54.044C312.553 53.0554 314.726 52.5721 317.22 52.5721H317.559C321.897 52.5721 324.933 53.8559 326.667 56.427C328.404 58.9834 329.29 62.0562 329.29 65.6676C329.29 67.5231 329.113 69.327 328.803 71.0792C328.371 73.37 327.703 75.5833 326.84 77.7118C325.977 79.8402 324.856 81.7253 323.505 83.3668C322.144 84.9899 320.51 86.3179 318.614 87.2659C316.699 88.2619 314.567 88.7673 312.17 88.7673H311.365C307.544 88.664 304.814 87.3877 303.117 84.9087C301.45 82.452 300.609 79.5378 300.598 76.1403C300.598 75.5021 300.616 74.8418 300.686 74.1815C300.73 73.5434 300.808 72.8203 300.926 72.0457C301.346 69.327 301.985 66.7743 302.804 64.3581C303.608 61.9566 304.666 59.8835 305.972 58.1497C307.289 56.4012 308.861 55.0326 310.705 54.044ZM297.012 121.189V120.706H262.949V121.831C262.949 124.892 263.691 127.829 265.14 130.64C266.612 133.48 268.91 135.974 272.075 138.158C275.226 140.323 279.361 142.049 284.463 143.363C289.575 144.665 295.813 145.31 303.202 145.31C313.748 145.31 322.222 144.137 328.64 141.821C335.044 139.482 340.102 136.247 343.791 132.111C347.483 127.98 350.176 123.14 351.873 117.607C353.544 112.059 354.927 106.079 356.027 99.6864L367.923 30.8927H338.091L336.306 42.0589C333.908 37.9495 330.669 34.6443 326.589 32.1691C322.532 29.6901 317.887 28.4581 312.66 28.4581C305.589 28.4581 299.436 29.7307 294.164 32.276C288.893 34.8398 284.381 38.1413 280.637 42.2286C276.878 46.3048 273.883 50.9454 271.673 56.1614C269.445 61.3849 267.888 66.5936 267.025 71.8133C266.793 73.3331 266.612 74.7939 266.461 76.2067C266.299 77.6196 266.21 79.0435 266.21 80.4416C266.21 84.9088 266.867 89.0809 268.165 92.9948C269.467 96.9123 271.422 100.277 274.041 103.113C276.646 105.928 279.877 108.163 283.725 109.779C287.58 111.398 292.076 112.232 297.174 112.232C303.375 112.232 308.566 111.303 312.749 109.454C316.932 107.617 320.425 105.426 323.262 102.933L321.952 109.941C320.868 116.046 319.064 120.333 316.574 122.83C314.066 125.324 310.38 126.563 305.496 126.563C302.01 126.563 299.675 125.87 298.48 124.461C297.499 123.468 297.012 122.391 297.012 121.189Z" fill="#0684BC"/>
</g>
<defs>
<clipPath id="clip0_9101_119711">
<rect width="961" height="146" fill="white"/>
</clipPath>
</defs>
</svg>
